<?xml version="1.0" standalone="no"?>
<!DOCTYPE svg PUBLIC "-//W3C//DTD SVG 1.1//EN" "http://www.w3.org/Graphics/SVG/1.1/DTD/svg11.dtd" >
<svg xmlns="http://www.w3.org/2000/svg">
<metadata></metadata>
<defs>
<font id="andoregular" horiz-adv-x="729" >
<font-face units-per-em="2048" ascent="1577" descent="-471" />
<missing-glyph horiz-adv-x="344" />
<glyph unicode="&#xfb01;" horiz-adv-x="745" d="M33 991v94h131v228q0 102 65.5 162.5t163.5 60.5t164 -60.5t66 -162.5v-70h-103v70q0 59 -36 94t-91 35t-91 -35t-36 -94v-228h357v-1085h-103v991h-254v-991h-102v991h-131z" />
<glyph unicode="&#xfb02;" horiz-adv-x="774" d="M33 991v94h131v213q0 102 62 160t159 58q50 0 266 -9v-1507h-102v1423h-164q-55 0 -87 -33t-32 -92v-213h172v-94h-172v-991h-102v991h-131z" />
<glyph unicode="&#xfb03;" horiz-adv-x="1118" d="M33 991v94h131v172q0 102 55.5 160t145.5 58q86 0 147 -54l-41 -73q-51 34 -106 34q-46 0 -72.5 -33t-26.5 -92v-172h271v228q0 102 65.5 162.5t163.5 60.5t163.5 -60.5t65.5 -162.5v-70h-102v70q0 59 -36 94t-91 35t-91 -35t-36 -94v-228h356v-1085h-102v991h-254v-991 h-102v991h-271v-991h-102v991h-131z" />
<glyph unicode="&#xfb04;" horiz-adv-x="1138" d="M33 991v94h131v172q0 102 55.5 160t145.5 58q86 0 147 -54l-41 -73q-51 34 -106 34q-46 0 -72.5 -33t-26.5 -92v-172h271v213q0 102 62 160t159 58q42 0 258 -9v-1507h-103v1423h-155q-55 0 -87 -33t-32 -92v-213h172v-94h-172v-991h-102v991h-271v-991h-102v991h-131z " />
<glyph horiz-adv-x="0" />
<glyph horiz-adv-x="682" />
<glyph unicode=" "  horiz-adv-x="344" />
<glyph unicode="&#x09;" horiz-adv-x="344" />
<glyph unicode="&#xa0;" horiz-adv-x="344" />
<glyph unicode="!" horiz-adv-x="348" d="M109 55q0 29 18.5 47.5t46.5 18.5t47 -18.5t19 -47.5t-19 -47t-47 -18t-46.5 18t-18.5 47zM123 330v1104h102v-1104h-102z" />
<glyph unicode="&#x22;" horiz-adv-x="528" d="M106 1085v431h95v-431h-95zM328 1085v431h94v-431h-94z" />
<glyph unicode="#" d="M25 436v90h131l43 365h-144v90h154l51 453h98l-51 -453h174l51 453h99l-51 -453h122v-90h-133l-43 -365h146v-90h-156l-49 -436h-98l49 436h-174l-49 -436h-99l49 436h-120zM254 526h174l43 365h-174z" />
<glyph unicode="$" d="M115 272v140h102v-140q0 -73 39.5 -115t108.5 -42q70 0 109.5 41.5t39.5 115.5v170q0 66 -22 115.5t-57 79t-78 54t-85.5 50.5t-77.5 58t-57 86t-22 127v151q0 102 54 167.5t146 80.5v148h99v-148q92 -15 146 -80.5t54 -167.5v-143h-100v143q0 72 -40.5 115t-108.5 43 q-66 0 -107 -43t-41 -115v-151q0 -58 22 -101t57 -70t77.5 -50.5t84.5 -51t77 -63t57 -95t22 -139.5v-170q0 -103 -54 -168t-146 -79v-148h-99v148q-92 14 -146 79t-54 168z" />
<glyph unicode="%" horiz-adv-x="1007" d="M86 969v317q0 78 47 123t127 45t127 -45t47 -123v-317q0 -79 -47 -123.5t-127 -44.5t-127 44.5t-47 123.5zM145 0l623 1434h94l-622 -1434h-95zM172 969q0 -39 25 -62.5t63 -23.5t63 23.5t25 62.5v317q0 39 -25 62.5t-63 23.5t-63 -23.5t-25 -62.5v-317zM573 147v318 q0 78 47.5 123t127.5 45t127 -45t47 -123v-318q0 -79 -47 -123t-127 -44t-127.5 44t-47.5 123zM659 147q0 -39 25.5 -62.5t63.5 -23.5t63 23.5t25 62.5v318q0 39 -25 62.5t-63 23.5t-63.5 -23.5t-25.5 -62.5v-318z" />
<glyph unicode="&#x26;" horiz-adv-x="788" d="M115 229v336q0 68 29 121.5t75 77.5q-46 26 -75 79.5t-29 123.5v241q0 114 66.5 180t183.5 66q119 0 184 -66t65 -180v-123h-102v123q0 69 -40 110.5t-107 41.5q-66 0 -107 -41.5t-41 -110.5v-241q0 -69 42.5 -112.5t109.5 -43.5h399v-94h-154v-488q0 -71 41.5 -109 t112.5 -38v-94q-70 0 -128.5 24t-76.5 64q-25 -42 -79.5 -69t-118.5 -27q-117 0 -183.5 66.5t-66.5 182.5zM217 229q0 -72 39.5 -113.5t108.5 -41.5q67 0 107 42t40 113v488h-143q-68 0 -110 -41t-42 -111v-336z" />
<glyph unicode="'" horiz-adv-x="307" d="M106 1085v431h95v-431h-95z" />
<glyph unicode="(" horiz-adv-x="415" d="M106 604q0 320 59.5 554t141.5 341h92q-75 -100 -132.5 -346t-57.5 -549q0 -304 57.5 -549t132.5 -346h-92q-82 107 -141.5 340.5t-59.5 554.5z" />
<glyph unicode=")" horiz-adv-x="415" d="M16 -291q75 101 133 346t58 549q0 303 -58 548.5t-133 346.5h93q82 -106 141 -340.5t59 -554.5q0 -321 -59 -554.5t-141 -340.5h-93z" />
<glyph unicode="*" horiz-adv-x="376" d="M41 1411l33 59l94 -67l-10 117h63l-10 -117l92 70l33 -62l-103 -41l103 -45l-33 -59l-92 65l10 -114h-63l10 112l-94 -65l-31 61l102 43z" />
<glyph unicode="+" d="M74 520v90h243v299h95v-299h243v-90h-243v-299h-95v299h-243z" />
<glyph unicode="," horiz-adv-x="256" d="M25 -219q65 103 65 225q0 40 -10 92l100 11q8 -44 8 -93q0 -138 -88 -252z" />
<glyph unicode="-" horiz-adv-x="456" d="M61 518v94h334v-94h-334z" />
<glyph unicode="." horiz-adv-x="253" d="M61 55q0 29 19 47.5t47 18.5t47 -18.5t19 -47.5t-19 -47t-47 -18t-47 18t-19 47z" />
<glyph unicode="/" horiz-adv-x="647" d="M41 0l467 1434h98l-467 -1434h-98z" />
<glyph unicode="0" d="M115 229v979q0 112 69.5 179t180.5 67t180 -67t69 -179v-979q0 -114 -68.5 -181.5t-180.5 -67.5t-181 67.5t-69 181.5zM217 229q0 -72 40 -113.5t108 -41.5t107.5 41.5t39.5 113.5v979q0 69 -40 110.5t-107 41.5q-66 0 -107 -41.5t-41 -110.5v-979z" />
<glyph unicode="1" horiz-adv-x="587" d="M70 1094v100q88 31 159.5 100.5t104.5 139.5h86v-1434h-103v1260q-126 -139 -247 -166z" />
<glyph unicode="2" horiz-adv-x="681" d="M78 0v55q0 80 22 164t57 158t78 148t85.5 146.5t77.5 142.5t57 146t22 146v100q0 71 -39.5 112.5t-109.5 41.5q-65 0 -106.5 -42t-41.5 -112v-121h-102v121q0 114 69.5 181t180.5 67q112 0 182 -67t70 -181v-108q0 -95 -40 -202t-97.5 -204.5t-116 -194t-101 -203 t-45.5 -200.5h398v-94h-500z" />
<glyph unicode="3" horiz-adv-x="692" d="M78 229v125h102v-125q0 -71 41 -113t107 -42q70 0 108.5 41t38.5 114v291q0 68 -40 110t-107 42h-109v94h109q67 0 107 43.5t40 114.5v284q0 69 -40 110.5t-107 41.5q-66 0 -107 -41.5t-41 -110.5v-123h-102v123q0 111 70 178.5t180 67.5q111 0 180.5 -67t69.5 -179v-284 q0 -139 -91 -205q91 -63 91 -199v-291q0 -114 -69 -181.5t-181 -67.5q-110 0 -180 67.5t-70 181.5z" />
<glyph unicode="4" horiz-adv-x="704" d="M88 285v94q0 94 35.5 231t78 258t78 278.5t35.5 287.5h103q0 -112 -23.5 -237.5t-57 -234t-67 -211t-57 -201t-23.5 -171.5h299v397h103v-776h-103v285h-401z" />
<glyph unicode="5" d="M115 225v129h102v-129q0 -69 41 -110t107 -41q67 0 107 41t40 110v375q0 67 -39.5 111.5t-103.5 44.5q-107 0 -152 -72h-98v750h489v-95h-387v-548q65 59 148 59q112 0 178.5 -69.5t66.5 -180.5v-375q0 -112 -68 -178.5t-181 -66.5q-111 0 -180.5 67t-69.5 178z" />
<glyph unicode="6" d="M115 225v979q0 114 69 182t181 68q113 0 181 -67.5t68 -182.5v-119h-102v119q0 72 -40.5 114t-106.5 42q-69 0 -108.5 -42t-39.5 -114v-426q23 31 63.5 51.5t84.5 20.5q117 0 183 -67t66 -183v-375q0 -112 -69 -178.5t-180 -66.5q-110 0 -180 67t-70 178zM217 225 q0 -69 41 -110t107 -41q67 0 107 41t40 110v375q0 72 -40.5 114t-106.5 42q-69 0 -108.5 -42t-39.5 -114v-375z" />
<glyph unicode="7" horiz-adv-x="626" d="M45 1335v99h492q8 -27 8 -62q0 -145 -30 -289.5t-73 -266t-85.5 -244.5t-72.5 -271.5t-30 -300.5h-102q0 156 30 306.5t73 271t86 237.5t73 252t30 268h-399z" />
<glyph unicode="8" d="M115 229v242q0 59 25.5 108.5t58 79t84.5 64.5q-79 49 -123.5 108.5t-44.5 151.5v225q0 112 69.5 179t180.5 67t180 -67t69 -179v-225q0 -64 -26 -115.5t-59 -81t-85 -63.5q80 -52 125 -109.5t45 -142.5v-242q0 -115 -68 -182t-181 -67q-112 0 -181 67.5t-69 181.5z M217 229q0 -71 41 -113t107 -42q70 0 108.5 41t38.5 114v242q0 67 -38.5 111.5t-111.5 91.5q-71 -46 -108 -91t-37 -112v-242zM217 983q0 -67 38.5 -114.5t109.5 -94.5q71 47 109 94.5t38 114.5v225q0 69 -40 110.5t-107 41.5q-66 0 -107 -41.5t-41 -110.5v-225z" />
<glyph unicode="9" d="M115 229v125h102v-125q0 -71 41 -113t107 -42q70 0 108.5 41t38.5 114v424q-60 -63 -147 -63q-111 0 -180.5 67.5t-69.5 182.5v368q0 112 69.5 179t180.5 67q113 0 181 -67t68 -179v-979q0 -114 -68.5 -181.5t-180.5 -67.5q-110 0 -180 67.5t-70 181.5zM217 840 q0 -72 41 -115t107 -43q70 0 108.5 42t38.5 116v368q0 69 -40 110.5t-107 41.5q-66 0 -107 -41.5t-41 -110.5v-368z" />
<glyph unicode=":" horiz-adv-x="253" d="M61 236q0 29 19 47t47 18t47 -18t19 -47t-19 -47.5t-47 -18.5t-47 18.5t-19 47.5zM61 850q0 29 19 47t47 18t47 -18t19 -47t-19 -47.5t-47 -18.5t-47 18.5t-19 47.5z" />
<glyph unicode=";" horiz-adv-x="253" d="M23 -219q65 103 65 225q0 40 -10 92l100 11q8 -44 8 -93q0 -138 -88 -252zM61 850q0 29 19 47t47 18t47 -18t19 -47t-19 -47.5t-47 -18.5t-47 18.5t-19 47.5z" />
<glyph unicode="&#x3c;" d="M86 526v70l557 354v-106l-450 -283l450 -282v-107z" />
<glyph unicode="=" d="M74 393v92h581v-92h-581zM74 664v92h581v-92h-581z" />
<glyph unicode="&#x3e;" d="M86 172v107l451 282l-451 283v106l557 -354v-70z" />
<glyph unicode="?" horiz-adv-x="647" d="M86 1085v123q0 114 66 180t184 66q119 0 184.5 -66t65.5 -180v-338q0 -103 -52 -167.5t-147 -77.5v-297h-100v385h45q72 0 111.5 41.5t39.5 115.5v338q0 69 -40 110.5t-107 41.5q-66 0 -107 -41.5t-41 -110.5v-123h-102zM270 55q0 29 19 47.5t47 18.5t46.5 -18.5 t18.5 -47.5t-18.5 -47t-46.5 -18t-47 18t-19 47z" />
<glyph unicode="@" horiz-adv-x="950" d="M115 66v1042q0 157 102 251.5t258 94.5q165 0 263 -93.5t98 -252.5v-899q0 -105 -67.5 -167t-170.5 -62t-170.5 63t-67.5 170v549q0 107 68 173t170 66q56 0 88 -18v-90q-34 18 -88 18q-60 0 -99.5 -41.5t-39.5 -107.5v-549q0 -65 39 -104t100 -39q60 0 99.5 38.5 t39.5 100.5v899q0 119 -71 187.5t-191 68.5q-113 0 -187.5 -69.5t-74.5 -186.5v-1042q0 -143 91.5 -226.5t215.5 -83.5q53 0 110 16.5t93 41.5l35 -86q-118 -62 -238 -62q-80 0 -151.5 24.5t-129 72t-91 126t-33.5 177.5z" />
<glyph unicode="A" d="M115 0v1208q0 111 70 178.5t180 67.5q111 0 180 -67t69 -179v-1208h-102v571h-295v-571h-102zM217 666h295v542q0 69 -40 110.5t-107 41.5q-66 0 -107 -41.5t-41 -110.5v-542z" />
<glyph unicode="B" horiz-adv-x="720" d="M115 0v1434h250q113 0 181 -67t68 -179v-268q0 -69 -27 -124.5t-75 -78.5q45 -23 73.5 -79t28.5 -120v-268q0 -115 -68 -182.5t-181 -67.5h-250zM217 94h148q66 0 106.5 42t40.5 114v268q0 67 -38.5 109.5t-100.5 42.5h-156v-576zM217 764h156q63 0 101 42.5t38 113.5 v268q0 69 -40 110t-107 41h-148v-575z" />
<glyph unicode="C" horiz-adv-x="692" d="M115 229v979q0 112 69.5 179t180.5 67t180 -67t69 -179v-123h-102v123q0 69 -40 110.5t-107 41.5q-66 0 -107 -41.5t-41 -110.5v-979q0 -71 41 -113t107 -42q70 0 108.5 41t38.5 114v125h102v-125q0 -114 -68.5 -181.5t-180.5 -67.5t-181 67.5t-69 181.5z" />
<glyph unicode="D" d="M115 0v1434h250q119 0 184 -66t65 -180v-938q0 -116 -66 -183t-183 -67h-250zM217 94h148q66 0 106.5 42t40.5 114v938q0 69 -40 110t-107 41h-148v-1245z" />
<glyph unicode="E" horiz-adv-x="587" d="M115 0v1434h411v-95h-309v-571h279v-94h-279v-580h309v-94h-411z" />
<glyph unicode="F" horiz-adv-x="575" d="M115 0v1434h411v-95h-309v-571h279v-94h-279v-674h-102z" />
<glyph unicode="G" d="M115 229v979q0 112 69.5 179t180.5 67t180 -67t69 -179v-123h-102v123q0 69 -40.5 110.5t-106.5 41.5t-107 -41.5t-41 -110.5v-979q0 -71 41 -113t107 -42q70 0 108.5 41t38.5 114v447h-147v94h249v-541q0 -114 -68.5 -181.5t-180.5 -67.5q-110 0 -180 67.5t-70 181.5z " />
<glyph unicode="H" d="M115 0v1434h102v-664h295v664h102v-1434h-102v676h-295v-676h-102z" />
<glyph unicode="I" horiz-adv-x="348" d="M123 0v1434h102v-1434h-102z" />
<glyph unicode="J" horiz-adv-x="632" d="M61 203v151h103v-151q0 -59 36 -94t91 -35q54 0 89.5 35t35.5 94v1134h-301v97h403v-1231q0 -101 -65 -162t-162 -61q-98 0 -164 60.5t-66 162.5z" />
<glyph unicode="K" horiz-adv-x="724" d="M115 0v1434h102v-734q183 177 241 271.5t58 230.5v232h102v-232q0 -144 -52 -245t-156 -201q70 -65 112.5 -122.5t69 -139t26.5 -183.5v-311h-102v311q0 82 -22 150t-57 117.5t-95 111.5l-125 -121v-569h-102z" />
<glyph unicode="L" horiz-adv-x="546" d="M115 0v1434h102v-1340h297v-94h-399z" />
<glyph unicode="M" horiz-adv-x="1060" d="M115 0v1227q0 103 67.5 165t165.5 62q56 0 107 -25t75 -69q26 41 79 67.5t106 26.5q97 0 164 -62t67 -165v-1227h-102v1227q0 60 -37 96.5t-92 36.5q-56 0 -94.5 -36.5t-38.5 -96.5v-1227h-103v1227q0 60 -37.5 96.5t-93.5 36.5t-93.5 -36.5t-37.5 -96.5v-1227h-102z" />
<glyph unicode="N" d="M115 0v1208q0 112 69.5 179t180.5 67t180 -67t69 -179v-1208h-102v1208q0 69 -40 110.5t-107 41.5t-107.5 -41.5t-40.5 -110.5v-1208h-102z" />
<glyph unicode="O" d="M115 229v979q0 112 69.5 179t180.5 67t180 -67t69 -179v-979q0 -114 -68.5 -181.5t-180.5 -67.5t-181 67.5t-69 181.5zM217 229q0 -72 40 -113.5t108 -41.5t107.5 41.5t39.5 113.5v979q0 69 -40 110.5t-107 41.5q-66 0 -107 -41.5t-41 -110.5v-979z" />
<glyph unicode="P" horiz-adv-x="700" d="M115 0v1434h250q114 0 181.5 -66.5t67.5 -179.5v-367q0 -117 -67.5 -184.5t-181.5 -67.5h-148v-569h-102zM217 664h148q67 0 107 42t40 115v367q0 69 -40 110t-107 41h-148v-675z" />
<glyph unicode="Q" d="M115 229v979q0 112 69.5 179t180.5 67t180 -67t69 -179v-979q0 -100 -54 -165.5t-144 -79.5v-240h-103v240q-91 14 -144.5 79t-53.5 166zM217 229q0 -72 40 -113.5t108 -41.5t107.5 41.5t39.5 113.5v979q0 69 -40 110.5t-107 41.5q-66 0 -107 -41.5t-41 -110.5v-979z" />
<glyph unicode="R" horiz-adv-x="720" d="M115 0v1434h250q114 0 181.5 -66.5t67.5 -179.5v-268q0 -69 -28.5 -125t-75.5 -78q47 -23 75.5 -77.5t28.5 -121.5v-518h-102v518q0 70 -39.5 111t-107.5 41h-148v-670h-102zM217 764h148q68 0 107.5 43t39.5 113v268q0 69 -40 110t-107 41h-148v-575z" />
<glyph unicode="S" horiz-adv-x="688" d="M94 231v123h103v-123q0 -73 38.5 -115t108.5 -42q69 0 108.5 42.5t39.5 114.5v181q0 67 -22 120t-57 87.5t-77.5 65t-85 62.5t-77.5 69.5t-57 95t-22 130.5v160q0 116 68.5 184t181.5 68q112 0 181 -68t69 -184v-117h-102v117q0 72 -40.5 115t-107.5 43t-107 -43 t-40 -115v-160q0 -60 22 -107.5t57 -80t77.5 -62t84.5 -63t77 -73.5t57 -102.5t22 -141.5v-181q0 -116 -69 -183.5t-181 -67.5q-113 0 -181.5 67.5t-68.5 183.5z" />
<glyph unicode="T" horiz-adv-x="585" d="M37 1339v95h512v-95h-205v-1339h-102v1339h-205z" />
<glyph unicode="U" d="M115 229v1205h102v-1205q0 -71 41 -113t107 -42q70 0 108.5 41t38.5 114v1205h102v-1205q0 -115 -68 -182t-181 -67q-112 0 -181 67.5t-69 181.5z" />
<glyph unicode="V" d="M115 473v961h102v-961q0 -62 30 -152.5t65.5 -154.5t52.5 -64q18 0 53 63.5t64.5 154t29.5 153.5v961h102v-961q0 -82 -42.5 -200t-102.5 -205.5t-104 -87.5q-43 0 -103 86.5t-103.5 205t-43.5 201.5z" />
<glyph unicode="W" horiz-adv-x="1060" d="M115 438v996h102v-996q0 -60 22.5 -142t52.5 -140t50 -58q18 0 50.5 57.5t59.5 140.5t27 142v955h103v-955q0 -60 27 -142.5t61.5 -140t54.5 -57.5q18 0 46.5 57.5t50.5 140t22 142.5v996h102v-996q0 -90 -34 -198t-86.5 -184t-100.5 -76q-47 0 -100 76.5t-95 183.5 q-36 -102 -89 -181t-99 -79q-48 0 -101.5 72.5t-89.5 180.5t-36 205z" />
<glyph unicode="X" horiz-adv-x="712" d="M106 0v260q0 134 50 242.5t143 236.5q-48 68 -73.5 107.5t-58 101t-47 121t-14.5 123.5v242h103v-242q0 -96 38 -182.5t109 -188.5q71 101 109.5 187t38.5 184v242h102v-242q0 -64 -14.5 -124t-46 -121t-57.5 -101.5t-72 -106.5q44 -61 71.5 -106t58 -107t45.5 -128.5 t15 -137.5v-260h-102v260q0 106 -39 199t-109 196q-70 -102 -108.5 -195.5t-38.5 -199.5v-260h-103z" />
<glyph unicode="Y" horiz-adv-x="696" d="M98 1028v406h103v-406q0 -94 38 -179t109 -187q36 55 56.5 88.5t45 83t35.5 97t11 97.5v406h102v-406q0 -64 -20.5 -132.5t-50 -123t-58.5 -101t-49.5 -81.5t-20.5 -51v-539h-102v539q0 19 -31 70t-68.5 108.5t-68.5 144t-31 166.5z" />
<glyph unicode="Z" horiz-adv-x="612" d="M82 57q0 131 18 246t47.5 201t65.5 165t72.5 153.5t67 149t51.5 168.5t24 197h-346v97h442q6 -25 6 -58q0 -150 -34.5 -281.5t-84 -234.5t-99.5 -208t-88 -248t-42 -308h348v-96h-442q-6 26 -6 57z" />
<glyph unicode="[" horiz-adv-x="415" d="M123 -289v1788h231v-90h-133v-1608h133v-90h-231z" />
<glyph unicode="\" horiz-adv-x="647" d="M41 1434h98l467 -1434h-98z" />
<glyph unicode="]" horiz-adv-x="415" d="M61 -199h134v1608h-134v90h232v-1788h-232v90z" />
<glyph unicode="^" d="M37 764l295 670h65l293 -670h-92l-233 543l-234 -543h-94z" />
<glyph unicode="_" horiz-adv-x="1024" d="M41 -20h942v-91h-942v91z" />
<glyph unicode="`" horiz-adv-x="368" d="M61 1454h121l125 -221h-92z" />
<glyph unicode="a" horiz-adv-x="659" d="M94 203v155q0 155 146 222l211 98v205q0 59 -36 94t-91 35q-54 0 -90.5 -35.5t-36.5 -93.5v-99h-103v99q0 101 66.5 162t163.5 61q98 0 163.5 -60.5t65.5 -162.5v-680q0 -102 -65.5 -162.5t-163.5 -60.5q-97 0 -163.5 61t-66.5 162zM197 203q0 -58 36.5 -93.5t90.5 -35.5 q55 0 91 35t36 94v370l-168 -77q-38 -18 -62 -54.5t-24 -83.5v-155z" />
<glyph unicode="b" horiz-adv-x="671" d="M106 203v1313h103v-472q46 62 127 62q97 0 163 -61t66 -162v-680q0 -101 -66 -162t-163 -61q-98 0 -164 60.5t-66 162.5zM209 203q0 -59 36 -94t91 -35q54 0 90.5 35.5t36.5 93.5v680q0 58 -36.5 93.5t-90.5 35.5q-55 0 -91 -35t-36 -94v-680z" />
<glyph unicode="c" horiz-adv-x="630" d="M106 203v680q0 101 66.5 162t163.5 61q98 0 163.5 -60.5t65.5 -162.5v-99h-102v99q0 59 -36 94t-91 35q-54 0 -90.5 -35.5t-36.5 -93.5v-680q0 -58 36.5 -93.5t90.5 -35.5q55 0 91 35t36 94v112h102v-112q0 -102 -65.5 -162.5t-163.5 -60.5q-97 0 -163.5 61t-66.5 162z " />
<glyph unicode="d" horiz-adv-x="671" d="M106 203v680q0 101 66.5 162t163.5 61q81 0 127 -62v472h102v-1313q0 -102 -65.5 -162.5t-163.5 -60.5q-97 0 -163.5 61t-66.5 162zM209 203q0 -58 36.5 -93.5t90.5 -35.5q55 0 91 35t36 94v680q0 59 -36 94t-91 35q-54 0 -90.5 -35.5t-36.5 -93.5v-680z" />
<glyph unicode="e" horiz-adv-x="659" d="M106 203v680q0 102 66 162.5t164 60.5t163.5 -60.5t65.5 -162.5v-176q0 -53 -22.5 -84t-69.5 -54l-264 -133v-233q0 -58 36.5 -93.5t90.5 -35.5q55 0 91 35t36 94v112h102v-112q0 -102 -65.5 -162.5t-163.5 -60.5t-164 60.5t-66 162.5zM209 549l225 110q29 15 29 48v176 q0 59 -36 94t-91 35q-54 0 -90.5 -35.5t-36.5 -93.5v-334z" />
<glyph unicode="f" horiz-adv-x="454" d="M33 991v94h131v213q0 102 55.5 160t145.5 58q65 0 118 -35l-30 -80q-42 22 -88 22t-72.5 -33t-26.5 -92v-213h172v-94h-172v-991h-102v991h-131z" />
<glyph unicode="g" horiz-adv-x="671" d="M106 203v680q0 101 66.5 162t163.5 61q98 0 163.5 -60.5t65.5 -162.5v-1071q0 -101 -64 -161.5t-163 -60.5q-105 0 -166 59t-61 163q0 31 10.5 62.5t21.5 47.5l11 15l88 -39q-31 -45 -31 -86q0 -60 35.5 -93.5t91.5 -33.5t90.5 34t34.5 93v229q-45 -61 -127 -61 q-97 0 -163.5 61t-66.5 162zM209 203q0 -58 36.5 -93.5t90.5 -35.5q55 0 91 35t36 94v680q0 59 -36 94t-91 35q-54 0 -90.5 -35.5t-36.5 -93.5v-680z" />
<glyph unicode="h" horiz-adv-x="671" d="M106 0v1516h103v-472q46 62 127 62q97 0 163 -61t66 -162v-883h-102v883q0 58 -36.5 93.5t-90.5 35.5q-55 0 -91 -35t-36 -94v-883h-103z" />
<glyph unicode="i" horiz-adv-x="348" d="M106 1362q0 29 20 48.5t48 19.5t48 -19.5t20 -48.5t-20 -48.5t-48 -19.5t-48 19.5t-20 48.5zM123 0v1085h102v-1085h-102z" />
<glyph unicode="j" horiz-adv-x="348" d="M-70 -371l31 88q39 -24 80 -24q82 0 82 129v1263h102v-1263q0 -104 -45 -166t-139 -62q-67 0 -111 35zM106 1362q0 29 20 48.5t48 19.5t48 -19.5t20 -48.5t-20 -48.5t-48 -19.5t-48 19.5t-20 48.5z" />
<glyph unicode="k" horiz-adv-x="663" d="M106 0v1516h103v-981q139 127 196.5 222t57.5 195q0 62 -56 62h-10l13 92h12q70 0 105 -32q38 -35 38 -120q0 -99 -38 -186t-126 -182q79 -62 121.5 -136t42.5 -186v-264h-102v264q0 145 -133 250q-37 -37 -121 -106v-408h-103z" />
<glyph unicode="l" horiz-adv-x="348" d="M123 0v1516h102v-1516h-102z" />
<glyph unicode="m" horiz-adv-x="1003" d="M106 0v883q0 102 63 162.5t161 60.5q58 0 103.5 -25t68.5 -71q23 44 69 70t103 26q97 0 160 -60.5t63 -162.5v-883h-102v883q0 59 -33 94t-88 35q-52 0 -86.5 -35t-34.5 -94v-883h-102v883q0 58 -35 93.5t-86 35.5q-55 0 -88 -35t-33 -94v-883h-103z" />
<glyph unicode="n" horiz-adv-x="671" d="M106 0v883q0 102 66 162.5t164 60.5t163.5 -60.5t65.5 -162.5v-883h-102v883q0 58 -36.5 93.5t-90.5 35.5t-90.5 -35.5t-36.5 -93.5v-883h-103z" />
<glyph unicode="o" horiz-adv-x="671" d="M106 203v680q0 102 66 162.5t164 60.5t163.5 -60.5t65.5 -162.5v-680q0 -102 -65.5 -162.5t-163.5 -60.5t-164 60.5t-66 162.5zM209 203q0 -59 36 -94t91 -35t91 35t36 94v680q0 59 -36 94t-91 35t-91 -35t-36 -94v-680z" />
<glyph unicode="p" horiz-adv-x="671" d="M106 -397v1280q0 102 66 162.5t164 60.5q97 0 163 -61t66 -162v-680q0 -101 -66 -162t-163 -61q-82 0 -127 61v-438h-103zM209 203q0 -59 36 -94t91 -35q54 0 90.5 35.5t36.5 93.5v680q0 58 -36.5 93.5t-90.5 35.5q-55 0 -91 -35t-36 -94v-680z" />
<glyph unicode="q" horiz-adv-x="671" d="M106 203v680q0 101 66.5 162t163.5 61q98 0 163.5 -60.5t65.5 -162.5v-1280h-102v438q-45 -61 -127 -61q-97 0 -163.5 61t-66.5 162zM209 203q0 -58 36.5 -93.5t90.5 -35.5q55 0 91 35t36 94v680q0 59 -36 94t-91 35q-54 0 -90.5 -35.5t-36.5 -93.5v-680z" />
<glyph unicode="r" horiz-adv-x="577" d="M106 0v883q0 103 58.5 163t152.5 60t152.5 -61t58.5 -162v-99h-102v99q0 61 -31.5 95t-77.5 34q-43 0 -75.5 -34t-32.5 -95v-883h-103z" />
<glyph unicode="s" horiz-adv-x="638" d="M90 203v112h103v-112q0 -59 36 -94t90 -35q55 0 91 35t36 94v125q0 43 -19.5 77.5t-51 57.5t-69.5 44t-76 45t-69.5 52.5t-51 73.5t-19.5 102v103q0 101 66 162t163 61q98 0 164 -60.5t66 -162.5v-99h-103v99q0 58 -36.5 93.5t-90.5 35.5t-90 -35t-36 -94v-103 q0 -43 19.5 -75.5t51 -54.5t69.5 -42.5t76 -44t69.5 -52.5t51 -76t19.5 -107v-125q0 -102 -66 -162.5t-164 -60.5q-97 0 -163 61t-66 162z" />
<glyph unicode="t" horiz-adv-x="466" d="M29 991v94h123v271h102v-271h188v-94h-188v-792q0 -125 100 -125q19 0 42 2.5t36 5.5l14 2v-90q-45 -14 -92 -14q-97 0 -149.5 57.5t-52.5 161.5v792h-123z" />
<glyph unicode="u" horiz-adv-x="671" d="M106 203v882h103v-882q0 -58 36.5 -93.5t90.5 -35.5q55 0 91 35t36 94v882h102v-882q0 -102 -65.5 -162.5t-163.5 -60.5q-97 0 -163.5 61t-66.5 162z" />
<glyph unicode="v" horiz-adv-x="671" d="M106 336v749h103v-749q0 -64 48.5 -153t78.5 -89q29 0 78 89.5t49 152.5v555q0 56 -16.5 78t-57.5 22v94q16 1 31 1q76 0 108 -38q38 -46 37 -157v-555q0 -64 -38.5 -149t-93.5 -146t-97 -61q-43 0 -98 61.5t-93.5 146t-38.5 148.5z" />
<glyph unicode="w" horiz-adv-x="1003" d="M106 336v749h103v-749q0 -52 22 -112t49 -98t44 -38t47 39.5t55 100t25 108.5v749h102v-749q0 -49 24.5 -109t54.5 -99.5t48 -39.5t45 38t48.5 98t21.5 112v749h102v-749q0 -83 -33 -167t-84 -136.5t-100 -52.5q-44 0 -98 64t-80 138q-28 -78 -79.5 -140t-98.5 -62 q-48 0 -99 52t-85 136t-34 168z" />
<glyph unicode="x" horiz-adv-x="655" d="M98 0v186q0 64 13 119t40 102t51.5 79.5t63.5 76.5q-81 90 -124.5 175t-43.5 206v141h103v-141q0 -94 33 -166t94 -143q61 71 94 143t33 166v141h102v-141q0 -65 -13 -120.5t-40.5 -104t-51 -80t-63.5 -76.5q39 -44 63 -76.5t51.5 -80t40.5 -102.5t13 -118v-186h-102v186 q0 94 -33 165t-94 143q-61 -72 -94 -143t-33 -165v-186h-103z" />
<glyph unicode="y" horiz-adv-x="671" d="M106 203v882h103v-882q0 -58 36.5 -93.5t90.5 -35.5q55 0 91 35t36 94v882h102v-1273q0 -101 -64 -161.5t-163 -60.5q-105 0 -166 59t-61 163q0 31 10.5 62.5t21.5 47.5l11 15l88 -39q-31 -45 -31 -86q0 -60 35.5 -93.5t91.5 -33.5t90.5 34t34.5 93v229q-45 -61 -127 -61 q-97 0 -163.5 61t-66.5 162z" />
<glyph unicode="z" horiz-adv-x="557" d="M66 45q0 142 33.5 262.5t81 202t94.5 155t80.5 156t33.5 170.5h-323v94h419q7 -16 7 -36q0 -88 -17.5 -167t-46 -139.5t-62.5 -118t-68.5 -114.5t-63.5 -116.5t-47 -136.5t-19 -163h324v-94h-420q-6 25 -6 45z" />
<glyph unicode="{" horiz-adv-x="440" d="M61 557v94q39 0 73 29.5t34 77.5v551q0 86 58.5 138t152.5 52v-90q-51 0 -82 -29.5t-31 -70.5v-551q0 -58 -24.5 -98.5t-57.5 -55.5q33 -15 57.5 -55t24.5 -98v-551q0 -41 31 -71t82 -30v-90q-94 0 -152.5 52.5t-58.5 138.5v551q0 48 -34 77t-73 29z" />
<glyph unicode="|" horiz-adv-x="344" d="M123 -397v1913h98v-1913h-98z" />
<glyph unicode="}" horiz-adv-x="440" d="M61 -201q51 0 82 30t31 71v551q0 58 24.5 98t57.5 55q-33 15 -57.5 55.5t-24.5 98.5v551q0 41 -31 70.5t-82 29.5v90q94 0 152.5 -52t58.5 -138v-551q0 -48 34 -77.5t73 -29.5v-94q-39 0 -73 -29t-34 -77v-551q0 -86 -58.5 -138.5t-152.5 -52.5v90z" />
<glyph unicode="~" d="M68 479q-13 92 36 142.5t129 50.5q37 0 76.5 -17.5t67.5 -39t60.5 -39t58.5 -17.5q44 0 69.5 30.5t14.5 80.5h82q20 -87 -31.5 -144t-134.5 -57q-33 0 -70 18t-64.5 39.5t-62.5 39.5t-66 18q-42 0 -66.5 -27t-14.5 -78h-84z" />
<glyph unicode="&#xa1;" horiz-adv-x="348" d="M109 1030q0 29 18.5 47.5t46.5 18.5t47 -18.5t19 -47.5t-19 -47t-47 -18t-46.5 18t-18.5 47zM123 -348v1104h102v-1104h-102z" />
<glyph unicode="&#xa2;" d="M135 377v678q0 88 50.5 146.5t129.5 72.5v180h99v-180q80 -14 130 -72t50 -147v-99h-102v99q0 60 -36 95.5t-91 35.5q-54 0 -90.5 -35.5t-36.5 -95.5v-678q0 -60 36.5 -95.5t90.5 -35.5q55 0 91 35.5t36 95.5v110h102v-110q0 -89 -50.5 -148t-129.5 -73v-176h-99v176 q-79 14 -129.5 73t-50.5 148z" />
<glyph unicode="&#xa3;" d="M68 0v94h127v572h-107v94h107v465q0 103 64 166t161 63q106 0 165.5 -59.5t59.5 -163.5v-146h-102v146q0 61 -33.5 95t-89.5 34t-89.5 -37t-33.5 -98v-465h242v-94h-242v-572h362v-94h-591z" />
<glyph unicode="&#xa4;" d="M55 432l115 119q-37 61 -37 145q0 85 37 146l-115 121l66 61l110 -117q58 39 134 39q79 0 135 -41l110 119l62 -61l-115 -121q39 -64 39 -146t-37 -143l113 -121l-62 -61l-114 116q-50 -36 -131 -36q-82 0 -132 36l-112 -116zM225 696q0 -69 38.5 -111t101.5 -42t101 42 t38 111q0 72 -38 115t-101 43t-101.5 -43t-38.5 -115z" />
<glyph unicode="&#xa5;" d="M115 1028v406h102v-406q0 -93 38 -178t110 -188q48 73 74 118t49.5 114t23.5 134v406h102v-406q0 -79 -31 -165t-68 -144t-68 -109.5t-31 -70.5v-23h166v-90h-166v-104h166v-91h-166v-231h-103v231h-166v91h166v104h-166v90h166v23q0 19 -31 70t-68 108.5t-68 144 t-31 166.5z" />
<glyph unicode="&#xa6;" horiz-adv-x="344" d="M123 371h98v-768h-98v768zM123 788v768h98v-768h-98z" />
<glyph unicode="&#xa7;" horiz-adv-x="647" d="M94 -20v104h103v-104q0 -59 36.5 -94.5t90.5 -35.5t90.5 35.5t36.5 94.5v114q0 43 -19.5 75.5t-51 55t-69.5 42.5t-76.5 44t-70 53t-51 76t-19.5 107v117q0 48 18.5 89t47.5 66.5t49 38.5t39 21q-47 29 -77 55.5t-53.5 74t-23.5 107.5v115q0 101 66.5 162t163.5 61 q98 0 163.5 -60.5t65.5 -162.5v-105h-102v105q0 58 -36.5 93.5t-90.5 35.5t-90.5 -35.5t-36.5 -93.5v-115q0 -43 19.5 -75.5t51 -54.5t69.5 -42.5t76 -44t69.5 -52.5t51 -76t19.5 -107v-117q0 -48 -18.5 -88.5t-47 -66t-50.5 -39.5t-40 -21q74 -44 115 -97.5t41 -140.5v-114 q0 -101 -66 -162.5t-163 -61.5q-98 0 -164 61t-66 163zM197 547q0 -56 29.5 -94t84.5 -72q15 6 34 16.5t45.5 30.5t43.5 51.5t17 67.5v117q0 56 -30.5 93.5t-88.5 73.5q-15 -6 -32.5 -16t-43.5 -30.5t-42.5 -52t-16.5 -68.5v-117z" />
<glyph unicode="&#xa8;" horiz-adv-x="475" d="M61 1362q0 31 18.5 49.5t49.5 18.5t49.5 -18.5t18.5 -49.5q0 -28 -19 -48t-49 -20t-49 20t-19 48zM279 1362q0 31 18 49.5t49 18.5t49.5 -18.5t18.5 -49.5q0 -28 -19 -48t-49 -20t-48.5 19.5t-18.5 48.5z" />
<glyph unicode="&#xa9;" horiz-adv-x="1486" d="M61 717q0 211 86 379t242 263t354 95t354 -95t242 -263t86 -379t-86 -379t-242 -263t-354 -95t-354 95t-242 263t-86 379zM164 717q0 -184 74 -331t206 -229.5t299 -82.5t299.5 82.5t206.5 229.5t74 331q0 280 -163 461.5t-417 181.5q-168 0 -300 -82.5t-205.5 -229 t-73.5 -331.5zM514 422v594q0 104 65 164.5t164 60.5q98 0 162 -60.5t64 -164.5v-115h-101v115q0 62 -35 96.5t-90 34.5q-56 0 -92.5 -35t-36.5 -96v-594q0 -60 35 -95.5t90 -35.5q56 0 92.5 35.5t36.5 95.5v127h101v-127q0 -103 -66 -164t-164 -61t-161.5 61t-63.5 164z " />
<glyph unicode="&#xaa;" horiz-adv-x="434" d="M82 977v59q0 92 86 129l115 49v101q0 30 -18.5 48.5t-45.5 18.5q-28 0 -47.5 -18.5t-19.5 -48.5v-58h-70v58q0 61 37.5 98t99.5 37q59 0 96 -37t37 -98v-338q0 -60 -36.5 -99.5t-92.5 -39.5q-63 0 -102 39t-39 100zM84 709v65h266v-65h-266zM152 977q0 -32 20 -52t51 -20 q25 0 42.5 20t17.5 52v166l-86 -37q-45 -17 -45 -70v-59z" />
<glyph unicode="&#xab;" horiz-adv-x="731" d="M61 553l234 369h108l-233 -369l233 -369h-108zM328 553l233 369h109l-234 -369l234 -369h-109z" />
<glyph unicode="&#xac;" d="M74 520v90h581v-374h-92v284h-489z" />
<glyph unicode="&#xad;" horiz-adv-x="456" d="M61 518v94h334v-94h-334z" />
<glyph unicode="&#xae;" horiz-adv-x="1490" d="M61 717q0 211 87 379t244 263t356 95q198 0 354 -95t242 -263t86 -379t-86 -379t-242 -263t-354 -95q-199 0 -356 95t-244 263t-87 379zM164 717q0 -184 75 -331t208.5 -229.5t300.5 -82.5t299 82.5t206 229.5t74 331q0 185 -73.5 331.5t-205.5 229t-300 82.5 t-301.5 -82.5t-208 -229.5t-74.5 -331zM528 205v1032h195q123 0 192.5 -60t69.5 -167v-150q0 -59 -29.5 -107.5t-74.5 -72.5q45 -26 74.5 -73.5t29.5 -106.5v-285h-98v285q0 59 -42 96t-110 37h-106v-428h-101zM629 727h106q69 0 110.5 36.5t41.5 96.5v150q0 62 -44 97.5 t-120 35.5h-94v-416z" />
<glyph unicode="&#xaf;" horiz-adv-x="475" d="M61 1290v86h353v-86h-353z" />
<glyph unicode="&#xb0;" horiz-adv-x="462" d="M61 1278q0 77 46 126.5t124 49.5q77 0 123.5 -50t46.5 -126q0 -75 -46.5 -123.5t-123.5 -48.5q-78 0 -124 48.5t-46 123.5zM133 1278q0 -42 27.5 -72t70.5 -30q42 0 69.5 30t27.5 72q0 44 -27.5 75t-69.5 31q-43 0 -70.5 -31t-27.5 -75z" />
<glyph unicode="&#xb1;" d="M74 0v90h581v-90h-581zM74 524v90h243v299h95v-299h243v-90h-243v-299h-95v299h-243z" />
<glyph unicode="&#xb2;" horiz-adv-x="413" d="M66 1380v82q0 64 38.5 102t100.5 38q63 0 103 -38.5t40 -101.5v-57q0 -58 -30 -125t-66 -117.5t-66 -112t-30 -108.5h190v-82h-276v53q0 57 20 114t48 104t56 91.5t48 94t20 94.5v51q0 26 -16 42t-41 16q-23 0 -38 -16t-15 -42v-82h-86z" />
<glyph unicode="&#xb3;" horiz-adv-x="413" d="M66 989v72h86v-72q0 -26 15.5 -42.5t39.5 -16.5q25 0 40 16.5t15 42.5v137q0 26 -15 43t-40 17h-60v82h60q25 0 40 16.5t15 42.5v135q0 25 -15.5 41.5t-39.5 16.5q-23 0 -39 -16.5t-16 -41.5v-69h-86v69q0 64 39.5 102t101.5 38q63 0 102 -38t39 -102v-135q0 -32 -14 -61 t-35 -41q20 -9 34.5 -38t14.5 -61v-137q0 -65 -38.5 -103t-102.5 -38q-63 0 -102 38t-39 103z" />
<glyph unicode="&#xb4;" horiz-adv-x="368" d="M61 1233l127 221h119l-153 -221h-93z" />
<glyph unicode="&#xb5;" horiz-adv-x="671" d="M106 -397v1482h103v-878q0 -59 36.5 -96t90.5 -37q56 0 91.5 36t35.5 97v878h102v-878q0 -62 23 -91.5t84 -21.5v-94q-126 -18 -166 57q-23 -35 -70.5 -56t-99.5 -21q-36 0 -73 16.5t-54 42.5v-436h-103z" />
<glyph unicode="&#xb6;" horiz-adv-x="802" d="M57 1190q0 106 66.5 175t175.5 69h446v-88h-96v-1346h-92v1346h-164v-1346h-94v946q-109 0 -175.5 69t-66.5 175z" />
<glyph unicode="&#xb7;" horiz-adv-x="258" d="M61 578q0 31 18.5 49t49.5 18t49.5 -18t18.5 -49q0 -28 -19 -48t-49 -20t-49 20t-19 48z" />
<glyph unicode="&#xb8;" horiz-adv-x="360" d="M61 -250l31 60q40 -27 74 -27q16 0 29.5 13t13.5 34q0 24 -12.5 34.5t-30.5 10.5h-35l-25 25l27 110h80l-18 -73q104 -7 104 -109q0 -56 -42 -87.5t-93 -31.5q-47 0 -103 41z" />
<glyph unicode="&#xb9;" horiz-adv-x="346" d="M45 1382v86q46 17 88.5 53.5t54.5 67.5h72v-729h-86v592q-20 -23 -56 -43t-73 -27z" />
<glyph unicode="&#xba;" horiz-adv-x="434" d="M82 977v338q0 61 37.5 98t99.5 37q59 0 96 -37t37 -98v-338q0 -60 -36.5 -99.5t-92.5 -39.5q-63 0 -102 39t-39 100zM84 709v65h266v-65h-266zM152 977q0 -32 20 -52t51 -20q25 0 42.5 20t17.5 52v338q0 30 -18.5 48.5t-45.5 18.5q-28 0 -47.5 -18.5t-19.5 -48.5v-338z " />
<glyph unicode="&#xbb;" horiz-adv-x="731" d="M61 184l234 369l-234 369h109l233 -369l-233 -369h-109zM328 184l233 369l-233 369h108l234 -369l-234 -369h-108z" />
<glyph unicode="&#xbc;" horiz-adv-x="1015" d="M86 1227v86q46 17 88.5 53.5t54.5 67.5h72v-729h-86v591q-20 -23 -56 -42t-73 -27zM156 0l622 1434h94l-622 -1434h-94zM647 133v70q0 58 17.5 128t39 126t39 131t17.5 141h88q0 -68 -17.5 -145t-39 -133t-39 -122t-17.5 -114h109v197h86v-412h-86v133h-197z" />
<glyph unicode="&#xbd;" horiz-adv-x="1034" d="M86 1227v86q46 17 88.5 53.5t54.5 67.5h72v-729h-86v591q-20 -23 -56 -42t-73 -27zM156 0l622 1434h94l-622 -1434h-94zM666 520v82q0 64 38.5 101.5t100.5 37.5q63 0 103 -38t40 -101v-57q0 -58 -30 -125t-66 -117.5t-66 -112t-30 -108.5h190v-82h-276v53q0 57 20 114 t48 104t56 91.5t48 94t20 94.5v51q0 26 -16 41.5t-41 15.5q-24 0 -38.5 -15.5t-14.5 -41.5v-82h-86z" />
<glyph unicode="&#xbe;" horiz-adv-x="999" d="M86 829v72h86v-72q0 -26 15.5 -42.5t39.5 -16.5q25 0 40.5 16.5t15.5 42.5v138q0 26 -15.5 42.5t-40.5 16.5h-59v82h59q25 0 40.5 16.5t15.5 42.5v136q0 25 -15.5 41t-40.5 16q-23 0 -39 -16t-16 -41v-70h-86v70q0 64 39.5 101.5t101.5 37.5q64 0 103 -37.5t39 -101.5 v-136q0 -32 -14.5 -61t-35.5 -41q20 -9 35 -37.5t15 -60.5v-138q0 -65 -39 -103t-103 -38q-63 0 -102 38t-39 103zM180 0l623 1434h94l-623 -1434h-94zM631 133v70q0 72 28 162.5t56 185.5t28 178h88q0 -86 -28 -183.5t-56 -184t-28 -146.5h108v197h86v-412h-86v133h-196z " />
<glyph unicode="&#xbf;" horiz-adv-x="647" d="M61 -123v338q0 103 52 168t147 78v297h100v-385h-45q-72 0 -111.5 -42t-39.5 -116v-338q0 -69 40 -110t107 -41q66 0 107 41t41 110v123h102v-123q0 -113 -66.5 -179.5t-183.5 -66.5q-119 0 -184.5 66t-65.5 180zM246 1030q0 29 18.5 47.5t46.5 18.5t47 -18.5t19 -47.5 t-19 -47t-47 -18t-46.5 18t-18.5 47z" />
<glyph unicode="&#xc0;" d="M115 0v1208q0 111 70 178.5t180 67.5q111 0 180 -67t69 -179v-1208h-102v571h-295v-571h-102zM211 1741h121l125 -221h-92zM217 666h295v542q0 69 -40 110.5t-107 41.5q-66 0 -107 -41.5t-41 -110.5v-542z" />
<glyph unicode="&#xc1;" d="M115 0v1208q0 111 70 178.5t180 67.5q111 0 180 -67t69 -179v-1208h-102v571h-295v-571h-102zM217 666h295v542q0 69 -40 110.5t-107 41.5q-66 0 -107 -41.5t-41 -110.5v-542zM270 1520l127 221h119l-154 -221h-92z" />
<glyph unicode="&#xc2;" d="M115 0v1208q0 111 70 178.5t180 67.5q111 0 180 -67t69 -179v-1208h-102v571h-295v-571h-102zM186 1520l136 221h90l133 -221h-92l-88 135l-86 -135h-93zM217 666h295v542q0 69 -40 110.5t-107 41.5q-66 0 -107 -41.5t-41 -110.5v-542z" />
<glyph unicode="&#xc3;" d="M115 0v1208q0 111 70 178.5t180 67.5q111 0 180 -67t69 -179v-1208h-102v571h-295v-571h-102zM160 1569q0 77 35.5 118.5t91.5 41.5q34 0 79 -41t78 -41q52 0 52 73h75q0 -79 -34 -121.5t-93 -42.5q-36 0 -80 41t-77 41q-51 0 -51 -69h-76zM217 666h295v542 q0 69 -40 110.5t-107 41.5q-66 0 -107 -41.5t-41 -110.5v-542z" />
<glyph unicode="&#xc4;" d="M115 0v1208q0 111 70 178.5t180 67.5q111 0 180 -67t69 -179v-1208h-102v571h-295v-571h-102zM190 1649q0 31 18.5 49t49.5 18t49.5 -18t18.5 -49q0 -28 -19 -48t-49 -20t-49 20t-19 48zM217 666h295v542q0 69 -40 110.5t-107 41.5q-66 0 -107 -41.5t-41 -110.5v-542z M408 1649q0 31 18 49t49 18t49.5 -18t18.5 -49q0 -28 -19 -48t-49 -20t-48.5 19.5t-18.5 48.5z" />
<glyph unicode="&#xc5;" d="M115 0v1208q0 111 70 178.5t180 67.5q111 0 180 -67t69 -179v-1208h-102v571h-295v-571h-102zM217 666h295v542q0 69 -40 110.5t-107 41.5q-66 0 -107 -41.5t-41 -110.5v-542zM225 1638q0 63 40.5 100.5t99.5 37.5t99 -37.5t40 -100.5q0 -61 -40 -99t-99 -38 q-60 0 -100 38t-40 99zM299 1638q0 -30 19.5 -49.5t46.5 -19.5q28 0 46.5 19.5t18.5 49.5q0 32 -18.5 51t-46.5 19q-27 0 -46.5 -19.5t-19.5 -50.5z" />
<glyph unicode="&#xc6;" horiz-adv-x="1001" d="M115 0v1188q0 114 65.5 180t184.5 66h575v-95h-317v-569h278v-94h-278v-582h317v-94h-420v676h-303v-676h-102zM217 770h303v569h-155q-68 0 -108 -41t-40 -110v-418z" />
<glyph unicode="&#xc7;" horiz-adv-x="692" d="M115 229v979q0 112 69.5 179t180.5 67t180 -67t69 -179v-123h-102v123q0 69 -40 110.5t-107 41.5q-66 0 -107 -41.5t-41 -110.5v-979q0 -71 41 -113t107 -42q70 0 108.5 41t38.5 114v125h102v-125q0 -106 -59.5 -172t-159.5 -75l-10 -45q104 -7 104 -109q0 -56 -42 -87.5 t-93 -31.5q-46 0 -102 41l31 60q40 -27 73 -27q16 0 29.5 13t13.5 34q0 24 -12.5 34.5t-30.5 10.5h-34l-25 25l20 84q-93 12 -147.5 77.5t-54.5 167.5z" />
<glyph unicode="&#xc8;" horiz-adv-x="587" d="M115 0v1434h411v-95h-309v-571h279v-94h-279v-580h309v-94h-411zM166 1741h121l125 -221h-93z" />
<glyph unicode="&#xc9;" horiz-adv-x="587" d="M115 0v1434h411v-95h-309v-571h279v-94h-279v-580h309v-94h-411zM225 1520l127 221h119l-154 -221h-92z" />
<glyph unicode="&#xca;" horiz-adv-x="587" d="M115 0v1434h411v-95h-309v-571h279v-94h-279v-580h309v-94h-411zM141 1520l135 221h91l133 -221h-92l-89 135l-86 -135h-92z" />
<glyph unicode="&#xcb;" horiz-adv-x="587" d="M115 0v1434h411v-95h-309v-571h279v-94h-279v-580h309v-94h-411zM145 1649q0 31 18.5 49t49.5 18t49.5 -18t18.5 -49q0 -28 -19 -48t-49 -20t-49 20t-19 48zM362 1649q0 31 18.5 49t49.5 18t49.5 -18t18.5 -49q0 -28 -19 -48t-49 -20t-49 20t-19 48z" />
<glyph unicode="&#xcc;" horiz-adv-x="348" d="M20 1741h121l125 -221h-92zM123 0v1434h102v-1434h-102z" />
<glyph unicode="&#xcd;" horiz-adv-x="348" d="M80 1520l127 221h119l-154 -221h-92zM123 0v1434h102v-1434h-102z" />
<glyph unicode="&#xce;" horiz-adv-x="348" d="M-4 1520l135 221h90l133 -221h-92l-88 135l-86 -135h-92zM123 0v1434h102v-1434h-102z" />
<glyph unicode="&#xcf;" horiz-adv-x="348" d="M0 1649q0 31 18.5 49t49.5 18t49 -18t18 -49q0 -29 -18.5 -48.5t-48.5 -19.5t-49 20t-19 48zM123 0v1434h102v-1434h-102zM217 1649q0 31 18.5 49t49.5 18t49 -18t18 -49q0 -29 -18.5 -48.5t-48.5 -19.5t-49 20t-19 48z" />
<glyph unicode="&#xd0;" d="M41 670v94h74v670h250q119 0 184 -66t65 -180v-938q0 -116 -66 -183t-183 -67h-250v670h-74zM217 94h148q66 0 106.5 42t40.5 114v938q0 69 -40 110t-107 41h-148v-575h156v-94h-156v-576z" />
<glyph unicode="&#xd1;" d="M115 0v1208q0 112 69.5 179t180.5 67t180 -67t69 -179v-1208h-102v1208q0 69 -40 110.5t-107 41.5t-107.5 -41.5t-40.5 -110.5v-1208h-102zM160 1569q0 77 35.5 118.5t91.5 41.5q34 0 79 -41t78 -41q52 0 52 73h75q0 -79 -34 -121.5t-93 -42.5q-36 0 -80 41t-77 41 q-51 0 -51 -69h-76z" />
<glyph unicode="&#xd2;" d="M115 229v979q0 112 69.5 179t180.5 67t180 -67t69 -179v-979q0 -114 -68.5 -181.5t-180.5 -67.5t-181 67.5t-69 181.5zM211 1741h121l125 -221h-92zM217 229q0 -72 40 -113.5t108 -41.5t107.5 41.5t39.5 113.5v979q0 69 -40 110.5t-107 41.5q-66 0 -107 -41.5t-41 -110.5 v-979z" />
<glyph unicode="&#xd3;" d="M115 229v979q0 112 69.5 179t180.5 67t180 -67t69 -179v-979q0 -114 -68.5 -181.5t-180.5 -67.5t-181 67.5t-69 181.5zM217 229q0 -72 40 -113.5t108 -41.5t107.5 41.5t39.5 113.5v979q0 69 -40 110.5t-107 41.5q-66 0 -107 -41.5t-41 -110.5v-979zM270 1520l127 221h119 l-154 -221h-92z" />
<glyph unicode="&#xd4;" d="M115 229v979q0 112 69.5 179t180.5 67t180 -67t69 -179v-979q0 -114 -68.5 -181.5t-180.5 -67.5t-181 67.5t-69 181.5zM186 1520l136 221h90l133 -221h-92l-88 135l-86 -135h-93zM217 229q0 -72 40 -113.5t108 -41.5t107.5 41.5t39.5 113.5v979q0 69 -40 110.5t-107 41.5 q-66 0 -107 -41.5t-41 -110.5v-979z" />
<glyph unicode="&#xd5;" d="M115 229v979q0 112 69.5 179t180.5 67t180 -67t69 -179v-979q0 -114 -68.5 -181.5t-180.5 -67.5t-181 67.5t-69 181.5zM160 1569q0 77 35.5 118.5t91.5 41.5q34 0 79 -41t78 -41q52 0 52 73h75q0 -79 -34 -121.5t-93 -42.5q-36 0 -80 41t-77 41q-51 0 -51 -69h-76z M217 229q0 -72 40 -113.5t108 -41.5t107.5 41.5t39.5 113.5v979q0 69 -40 110.5t-107 41.5q-66 0 -107 -41.5t-41 -110.5v-979z" />
<glyph unicode="&#xd6;" d="M115 229v979q0 112 69.5 179t180.5 67t180 -67t69 -179v-979q0 -114 -68.5 -181.5t-180.5 -67.5t-181 67.5t-69 181.5zM190 1649q0 31 18.5 49t49.5 18t49.5 -18t18.5 -49q0 -28 -19 -48t-49 -20t-49 20t-19 48zM217 229q0 -72 40 -113.5t108 -41.5t107.5 41.5 t39.5 113.5v979q0 69 -40 110.5t-107 41.5q-66 0 -107 -41.5t-41 -110.5v-979zM408 1649q0 31 18 49t49 18t49.5 -18t18.5 -49q0 -28 -19 -48t-49 -20t-48.5 19.5t-18.5 48.5z" />
<glyph unicode="&#xd7;" d="M74 332l227 243l-227 244l67 64l224 -240l225 240l65 -64l-227 -244l227 -243l-65 -64l-225 240l-224 -240z" />
<glyph unicode="&#xd8;" d="M115 229v979q0 112 69.5 179t180.5 67q61 0 120 -27l19 86l69 -18l-24 -113q65 -68 65 -174v-979q0 -114 -68.5 -181.5t-180.5 -67.5q-61 0 -121 24l-19 -84l-69 19l24 112q-65 68 -65 178zM217 217l246 1110q-41 33 -98 33q-66 0 -107 -41.5t-41 -110.5v-979v-12z M266 106q35 -32 99 -32q68 0 107.5 41.5t39.5 113.5v979v9z" />
<glyph unicode="&#xd9;" d="M115 229v1205h102v-1205q0 -71 41 -113t107 -42q70 0 108.5 41t38.5 114v1205h102v-1205q0 -115 -68 -182t-181 -67q-112 0 -181 67.5t-69 181.5zM211 1741h121l125 -221h-92z" />
<glyph unicode="&#xda;" d="M115 229v1205h102v-1205q0 -71 41 -113t107 -42q70 0 108.5 41t38.5 114v1205h102v-1205q0 -115 -68 -182t-181 -67q-112 0 -181 67.5t-69 181.5zM270 1520l127 221h119l-154 -221h-92z" />
<glyph unicode="&#xdb;" d="M115 229v1205h102v-1205q0 -71 41 -113t107 -42q70 0 108.5 41t38.5 114v1205h102v-1205q0 -115 -68 -182t-181 -67q-112 0 -181 67.5t-69 181.5zM186 1520l136 221h90l133 -221h-92l-88 135l-86 -135h-93z" />
<glyph unicode="&#xdc;" d="M115 229v1205h102v-1205q0 -71 41 -113t107 -42q70 0 108.5 41t38.5 114v1205h102v-1205q0 -115 -68 -182t-181 -67q-112 0 -181 67.5t-69 181.5zM190 1649q0 31 18.5 49t49.5 18t49.5 -18t18.5 -49q0 -28 -19 -48t-49 -20t-49 20t-19 48zM408 1649q0 31 18 49t49 18 t49.5 -18t18.5 -49q0 -28 -19 -48t-49 -20t-48.5 19.5t-18.5 48.5z" />
<glyph unicode="&#xdd;" horiz-adv-x="696" d="M98 1028v406h103v-406q0 -94 38 -179t109 -187q36 55 56.5 88.5t45 83t35.5 97t11 97.5v406h102v-406q0 -64 -20.5 -132.5t-50 -123t-58.5 -101t-49.5 -81.5t-20.5 -51v-539h-102v539q0 19 -31 70t-68.5 108.5t-68.5 144t-31 166.5zM254 1520l127 221h119l-154 -221h-92z " />
<glyph unicode="&#xde;" horiz-adv-x="692" d="M106 0v1434h103v-306h147q119 0 184.5 -67t65.5 -182v-322q0 -118 -65.5 -185t-184.5 -67h-147v-305h-103zM209 399h147q70 0 109 42.5t39 115.5v322q0 71 -39 113t-109 42h-147v-635z" />
<glyph unicode="&#xdf;" d="M115 0v1208q0 111 70 178.5t180 67.5q111 0 180 -67t69 -179v-280q0 -67 -32 -126t-78 -79q46 -17 78 -75t32 -124v-274q0 -114 -69 -182t-180 -68h-46v94h46q70 0 108.5 41.5t38.5 114.5v274q0 67 -40.5 109.5t-111.5 42.5h-36v94h36q72 0 112 42t40 116v280 q0 69 -40 110.5t-107 41.5q-66 0 -107 -41.5t-41 -110.5v-1208h-102z" />
<glyph unicode="&#xe0;" horiz-adv-x="659" d="M94 203v155q0 155 146 222l211 98v205q0 59 -36 94t-91 35q-54 0 -90.5 -35.5t-36.5 -93.5v-99h-103v99q0 101 66.5 162t163.5 61q98 0 163.5 -60.5t65.5 -162.5v-680q0 -102 -65.5 -162.5t-163.5 -60.5q-97 0 -163.5 61t-66.5 162zM170 1454h121l125 -221h-92zM197 203 q0 -58 36.5 -93.5t90.5 -35.5q55 0 91 35t36 94v370l-168 -77q-38 -18 -62 -54.5t-24 -83.5v-155z" />
<glyph unicode="&#xe1;" horiz-adv-x="659" d="M94 203v155q0 155 146 222l211 98v205q0 59 -36 94t-91 35q-54 0 -90.5 -35.5t-36.5 -93.5v-99h-103v99q0 101 66.5 162t163.5 61q98 0 163.5 -60.5t65.5 -162.5v-680q0 -102 -65.5 -162.5t-163.5 -60.5q-97 0 -163.5 61t-66.5 162zM197 203q0 -58 36.5 -93.5t90.5 -35.5 q55 0 91 35t36 94v370l-168 -77q-38 -18 -62 -54.5t-24 -83.5v-155zM229 1233l127 221h119l-153 -221h-93z" />
<glyph unicode="&#xe2;" horiz-adv-x="659" d="M94 203v155q0 155 146 222l211 98v205q0 59 -36 94t-91 35q-54 0 -90.5 -35.5t-36.5 -93.5v-99h-103v99q0 101 66.5 162t163.5 61q98 0 163.5 -60.5t65.5 -162.5v-680q0 -102 -65.5 -162.5t-163.5 -60.5q-97 0 -163.5 61t-66.5 162zM145 1233l136 221h90l133 -221h-92 l-88 135l-86 -135h-93zM197 203q0 -58 36.5 -93.5t90.5 -35.5q55 0 91 35t36 94v370l-168 -77q-38 -18 -62 -54.5t-24 -83.5v-155z" />
<glyph unicode="&#xe3;" horiz-adv-x="659" d="M94 203v155q0 155 146 222l211 98v205q0 59 -36 94t-91 35q-54 0 -90.5 -35.5t-36.5 -93.5v-99h-103v99q0 101 66.5 162t163.5 61q98 0 163.5 -60.5t65.5 -162.5v-680q0 -102 -65.5 -162.5t-163.5 -60.5q-97 0 -163.5 61t-66.5 162zM115 1282q0 77 35.5 118.5t91.5 41.5 q34 0 79 -41t78 -41q52 0 52 74h75q0 -79 -34 -121.5t-93 -42.5q-29 0 -54.5 20.5t-50.5 41t-52 20.5q-22 0 -37 -17t-15 -53h-75zM197 203q0 -58 36.5 -93.5t90.5 -35.5q55 0 91 35t36 94v370l-168 -77q-38 -18 -62 -54.5t-24 -83.5v-155z" />
<glyph unicode="&#xe4;" horiz-adv-x="659" d="M94 203v155q0 155 146 222l211 98v205q0 59 -36 94t-91 35q-54 0 -90.5 -35.5t-36.5 -93.5v-99h-103v99q0 101 66.5 162t163.5 61q98 0 163.5 -60.5t65.5 -162.5v-680q0 -102 -65.5 -162.5t-163.5 -60.5q-97 0 -163.5 61t-66.5 162zM150 1362q0 31 18 49.5t49 18.5 t49.5 -18.5t18.5 -49.5q0 -28 -19 -48t-49 -20t-48.5 19.5t-18.5 48.5zM197 203q0 -58 36.5 -93.5t90.5 -35.5q55 0 91 35t36 94v370l-168 -77q-38 -18 -62 -54.5t-24 -83.5v-155zM367 1362q0 31 18 49.5t49 18.5t49.5 -18.5t18.5 -49.5q0 -28 -19 -48t-49 -20t-48.5 19.5 t-18.5 48.5z" />
<glyph unicode="&#xe5;" horiz-adv-x="659" d="M94 203v155q0 155 146 222l211 98v205q0 59 -36 94t-91 35q-54 0 -90.5 -35.5t-36.5 -93.5v-99h-103v99q0 101 66.5 162t163.5 61q98 0 163.5 -60.5t65.5 -162.5v-680q0 -102 -65.5 -162.5t-163.5 -60.5q-97 0 -163.5 61t-66.5 162zM184 1352q0 63 40.5 100t99.5 37 t99 -37t40 -100q0 -61 -40 -99.5t-99 -38.5t-99.5 38.5t-40.5 99.5zM197 203q0 -58 36.5 -93.5t90.5 -35.5q55 0 91 35t36 94v370l-168 -77q-38 -18 -62 -54.5t-24 -83.5v-155zM258 1352q0 -30 19.5 -50t46.5 -20q28 0 46.5 19.5t18.5 50.5q0 32 -18.5 50.5t-46.5 18.5 q-27 0 -46.5 -19t-19.5 -50z" />
<glyph unicode="&#xe6;" horiz-adv-x="987" d="M94 195v124q0 83 43.5 128.5t114.5 72.5l190 74v295q0 59 -34 90t-89 31q-58 0 -90 -30.5t-32 -90.5v-105h-103v105q0 103 61 160t164 57q57 0 105 -26.5t70 -69.5q19 43 66.5 69.5t107.5 26.5q99 0 162 -57.5t63 -157.5v-115q0 -108 -111 -153l-237 -95v-331 q0 -60 32.5 -91.5t90.5 -31.5q55 0 89 32t34 91v118h102v-118q0 -102 -62.5 -159.5t-162.5 -57.5q-57 0 -104 26t-68 66q-22 -39 -71 -65.5t-103 -26.5q-103 0 -165.5 57t-62.5 158zM197 195q0 -59 33.5 -90t91.5 -31q54 0 87 31t33 92v295l-151 -60q-94 -36 -94 -113v-124z M545 631l207 80q39 12 39 65v115q0 58 -34 88.5t-89 30.5q-58 0 -90.5 -30.5t-32.5 -90.5v-258z" />
<glyph unicode="&#xe7;" horiz-adv-x="630" d="M106 203v680q0 101 66.5 162t163.5 61q98 0 163.5 -60.5t65.5 -162.5v-99h-102v99q0 59 -36 94t-91 35q-54 0 -90.5 -35.5t-36.5 -93.5v-680q0 -58 36.5 -93.5t90.5 -35.5q55 0 91 35t36 94v112h102v-112q0 -94 -56 -153t-144 -68l-11 -45q105 -7 105 -109 q0 -56 -42 -87.5t-93 -31.5q-47 0 -103 41l31 60q40 -27 74 -27q16 0 29.5 13t13.5 34q0 24 -12.5 34.5t-30.5 10.5h-35l-25 25l21 84q-79 14 -130 72.5t-51 146.5z" />
<glyph unicode="&#xe8;" horiz-adv-x="659" d="M106 203v680q0 102 66 162.5t164 60.5t163.5 -60.5t65.5 -162.5v-176q0 -53 -22.5 -84t-69.5 -54l-264 -133v-233q0 -58 36.5 -93.5t90.5 -35.5q55 0 91 35t36 94v112h102v-112q0 -102 -65.5 -162.5t-163.5 -60.5t-164 60.5t-66 162.5zM182 1454h121l125 -221h-92z M209 549l225 110q29 15 29 48v176q0 59 -36 94t-91 35q-54 0 -90.5 -35.5t-36.5 -93.5v-334z" />
<glyph unicode="&#xe9;" horiz-adv-x="659" d="M106 203v680q0 102 66 162.5t164 60.5t163.5 -60.5t65.5 -162.5v-176q0 -53 -22.5 -84t-69.5 -54l-264 -133v-233q0 -58 36.5 -93.5t90.5 -35.5q55 0 91 35t36 94v112h102v-112q0 -102 -65.5 -162.5t-163.5 -60.5t-164 60.5t-66 162.5zM209 549l225 110q29 15 29 48v176 q0 59 -36 94t-91 35q-54 0 -90.5 -35.5t-36.5 -93.5v-334zM242 1233l127 221h118l-153 -221h-92z" />
<glyph unicode="&#xea;" horiz-adv-x="659" d="M106 203v680q0 102 66 162.5t164 60.5t163.5 -60.5t65.5 -162.5v-176q0 -53 -22.5 -84t-69.5 -54l-264 -133v-233q0 -58 36.5 -93.5t90.5 -35.5q55 0 91 35t36 94v112h102v-112q0 -102 -65.5 -162.5t-163.5 -60.5t-164 60.5t-66 162.5zM158 1233l135 221h90l133 -221h-92 l-88 135l-86 -135h-92zM209 549l225 110q29 15 29 48v176q0 59 -36 94t-91 35q-54 0 -90.5 -35.5t-36.5 -93.5v-334z" />
<glyph unicode="&#xeb;" horiz-adv-x="659" d="M106 203v680q0 102 66 162.5t164 60.5t163.5 -60.5t65.5 -162.5v-176q0 -53 -22.5 -84t-69.5 -54l-264 -133v-233q0 -58 36.5 -93.5t90.5 -35.5q55 0 91 35t36 94v112h102v-112q0 -102 -65.5 -162.5t-163.5 -60.5t-164 60.5t-66 162.5zM162 1362q0 31 18 49.5t49 18.5 t49.5 -18.5t18.5 -49.5q0 -28 -19 -48t-49 -20t-48.5 19.5t-18.5 48.5zM209 549l225 110q29 15 29 48v176q0 59 -36 94t-91 35q-54 0 -90.5 -35.5t-36.5 -93.5v-334zM379 1362q0 31 18 49.5t49 18.5t49.5 -18.5t18.5 -49.5q0 -28 -19 -48t-49 -20t-48.5 19.5t-18.5 48.5z " />
<glyph unicode="&#xec;" horiz-adv-x="348" d="M20 1454h121l125 -221h-92zM123 0v1085h102v-1085h-102z" />
<glyph unicode="&#xed;" horiz-adv-x="348" d="M80 1233l127 221h119l-154 -221h-92zM123 0v1085h102v-1085h-102z" />
<glyph unicode="&#xee;" horiz-adv-x="348" d="M-4 1233l135 221h90l133 -221h-92l-88 135l-86 -135h-92zM123 0v1085h102v-1085h-102z" />
<glyph unicode="&#xef;" horiz-adv-x="348" d="M0 1362q0 31 18.5 49.5t49.5 18.5t49 -18.5t18 -49.5q0 -29 -18.5 -48.5t-48.5 -19.5t-49 20t-19 48zM123 0v1085h102v-1085h-102zM217 1362q0 31 18.5 49.5t49.5 18.5t49 -18.5t18 -49.5q0 -29 -18.5 -48.5t-48.5 -19.5t-49 20t-19 48z" />
<glyph unicode="&#xf0;" horiz-adv-x="671" d="M106 203v680q0 101 66.5 162t163.5 61q70 0 127 -64v80q0 72 -21 133l-114 -61l-33 61l111 62q-40 43 -107 43q-49 0 -96 -12v92q46 14 94 14q124 0 197 -88l102 55l31 -63l-97 -53q35 -75 35 -183v-919q0 -102 -65.5 -162.5t-163.5 -60.5q-97 0 -163.5 61t-66.5 162z M209 203q0 -58 36.5 -93.5t90.5 -35.5q55 0 91 35t36 94v680q0 59 -36 94t-91 35q-54 0 -90.5 -35.5t-36.5 -93.5v-680z" />
<glyph unicode="&#xf1;" horiz-adv-x="671" d="M106 0v883q0 102 66 162.5t164 60.5t163.5 -60.5t65.5 -162.5v-883h-102v883q0 58 -36.5 93.5t-90.5 35.5t-90.5 -35.5t-36.5 -93.5v-883h-103zM127 1282q0 77 35.5 118.5t91.5 41.5q34 0 79.5 -41t78.5 -41q51 0 51 74h76q0 -79 -34 -121.5t-93 -42.5q-23 0 -44.5 13 t-36 28t-35 28t-42.5 13t-36.5 -17t-14.5 -53h-76z" />
<glyph unicode="&#xf2;" horiz-adv-x="671" d="M106 203v680q0 102 66 162.5t164 60.5t163.5 -60.5t65.5 -162.5v-680q0 -102 -65.5 -162.5t-163.5 -60.5t-164 60.5t-66 162.5zM182 1454h121l125 -221h-92zM209 203q0 -59 36 -94t91 -35t91 35t36 94v680q0 59 -36 94t-91 35t-91 -35t-36 -94v-680z" />
<glyph unicode="&#xf3;" horiz-adv-x="671" d="M106 203v680q0 102 66 162.5t164 60.5t163.5 -60.5t65.5 -162.5v-680q0 -102 -65.5 -162.5t-163.5 -60.5t-164 60.5t-66 162.5zM209 203q0 -59 36 -94t91 -35t91 35t36 94v680q0 59 -36 94t-91 35t-91 -35t-36 -94v-680zM242 1233l127 221h118l-153 -221h-92z" />
<glyph unicode="&#xf4;" horiz-adv-x="671" d="M106 203v680q0 102 66 162.5t164 60.5t163.5 -60.5t65.5 -162.5v-680q0 -102 -65.5 -162.5t-163.5 -60.5t-164 60.5t-66 162.5zM158 1233l135 221h90l133 -221h-92l-88 135l-86 -135h-92zM209 203q0 -59 36 -94t91 -35t91 35t36 94v680q0 59 -36 94t-91 35t-91 -35 t-36 -94v-680z" />
<glyph unicode="&#xf5;" horiz-adv-x="671" d="M106 203v680q0 102 66 162.5t164 60.5t163.5 -60.5t65.5 -162.5v-680q0 -102 -65.5 -162.5t-163.5 -60.5t-164 60.5t-66 162.5zM127 1282q0 77 35.5 118.5t91.5 41.5q34 0 79.5 -41t78.5 -41q51 0 51 74h76q0 -79 -34 -121.5t-93 -42.5q-23 0 -44.5 13t-36 28t-35 28 t-42.5 13t-36.5 -17t-14.5 -53h-76zM209 203q0 -59 36 -94t91 -35t91 35t36 94v680q0 59 -36 94t-91 35t-91 -35t-36 -94v-680z" />
<glyph unicode="&#xf6;" horiz-adv-x="671" d="M106 203v680q0 102 66 162.5t164 60.5t163.5 -60.5t65.5 -162.5v-680q0 -102 -65.5 -162.5t-163.5 -60.5t-164 60.5t-66 162.5zM162 1362q0 31 18 49.5t49 18.5t49.5 -18.5t18.5 -49.5q0 -28 -19 -48t-49 -20t-48.5 19.5t-18.5 48.5zM209 203q0 -59 36 -94t91 -35t91 35 t36 94v680q0 59 -36 94t-91 35t-91 -35t-36 -94v-680zM379 1362q0 31 18 49.5t49 18.5t49.5 -18.5t18.5 -49.5q0 -28 -19 -48t-49 -20t-48.5 19.5t-18.5 48.5z" />
<glyph unicode="&#xf7;" d="M74 520v90h581v-90h-581zM319 246v110h95v-110h-95zM319 795v110h95v-110h-95z" />
<glyph unicode="&#xf8;" horiz-adv-x="671" d="M106 203v680q0 102 66 162.5t164 60.5q44 0 98 -21l21 82l69 -20l-26 -100q67 -64 67 -164v-680q0 -102 -65.5 -162.5t-163.5 -60.5q-50 0 -98 20l-21 -82l-70 21l25 100q-66 63 -66 164zM209 186l201 803q-33 23 -74 23q-55 0 -91 -35t-36 -94v-680v-17zM260 94 q29 -20 76 -20q55 0 91 35t36 94v680q0 10 -2 16z" />
<glyph unicode="&#xf9;" horiz-adv-x="671" d="M106 203v882h103v-882q0 -58 36.5 -93.5t90.5 -35.5q55 0 91 35t36 94v882h102v-882q0 -102 -65.5 -162.5t-163.5 -60.5q-97 0 -163.5 61t-66.5 162zM182 1454h121l125 -221h-92z" />
<glyph unicode="&#xfa;" horiz-adv-x="671" d="M106 203v882h103v-882q0 -58 36.5 -93.5t90.5 -35.5q55 0 91 35t36 94v882h102v-882q0 -102 -65.5 -162.5t-163.5 -60.5q-97 0 -163.5 61t-66.5 162zM242 1233l127 221h118l-153 -221h-92z" />
<glyph unicode="&#xfb;" horiz-adv-x="671" d="M106 203v882h103v-882q0 -58 36.5 -93.5t90.5 -35.5q55 0 91 35t36 94v882h102v-882q0 -102 -65.5 -162.5t-163.5 -60.5q-97 0 -163.5 61t-66.5 162zM158 1233l135 221h90l133 -221h-92l-88 135l-86 -135h-92z" />
<glyph unicode="&#xfc;" horiz-adv-x="671" d="M106 203v882h103v-882q0 -58 36.5 -93.5t90.5 -35.5q55 0 91 35t36 94v882h102v-882q0 -102 -65.5 -162.5t-163.5 -60.5q-97 0 -163.5 61t-66.5 162zM162 1362q0 31 18 49.5t49 18.5t49.5 -18.5t18.5 -49.5q0 -28 -19 -48t-49 -20t-48.5 19.5t-18.5 48.5zM379 1362 q0 31 18 49.5t49 18.5t49.5 -18.5t18.5 -49.5q0 -28 -19 -48t-49 -20t-48.5 19.5t-18.5 48.5z" />
<glyph unicode="&#xfd;" horiz-adv-x="671" d="M106 203v882h103v-882q0 -58 36.5 -93.5t90.5 -35.5q55 0 91 35t36 94v882h102v-1273q0 -101 -64 -161.5t-163 -60.5q-105 0 -166 59t-61 163q0 31 10.5 62.5t21.5 47.5l11 15l88 -39q-31 -45 -31 -86q0 -60 35.5 -93.5t91.5 -33.5t90.5 34t34.5 93v229q-45 -61 -127 -61 q-97 0 -163.5 61t-66.5 162zM242 1233l127 221h118l-153 -221h-92z" />
<glyph unicode="&#xfe;" horiz-adv-x="671" d="M106 -397v1913h103v-472q46 62 127 62q97 0 163 -61t66 -162v-680q0 -101 -66 -162t-163 -61q-91 0 -127 61v-438h-103zM209 203q0 -59 36 -94t91 -35q54 0 90.5 35.5t36.5 93.5v680q0 58 -36.5 93.5t-90.5 35.5q-55 0 -91 -35t-36 -94v-680z" />
<glyph unicode="&#xff;" horiz-adv-x="671" d="M106 203v882h103v-882q0 -58 36.5 -93.5t90.5 -35.5q55 0 91 35t36 94v882h102v-1273q0 -101 -64 -161.5t-163 -60.5q-105 0 -166 59t-61 163q0 31 10.5 62.5t21.5 47.5l11 15l88 -39q-31 -45 -31 -86q0 -60 35.5 -93.5t91.5 -33.5t90.5 34t34.5 93v229q-45 -61 -127 -61 q-97 0 -163.5 61t-66.5 162zM162 1362q0 31 18 49.5t49 18.5t49.5 -18.5t18.5 -49.5q0 -28 -19 -48t-49 -20t-48.5 19.5t-18.5 48.5zM379 1362q0 31 18 49.5t49 18.5t49.5 -18.5t18.5 -49.5q0 -28 -19 -48t-49 -20t-48.5 19.5t-18.5 48.5z" />
<glyph unicode="&#x152;" horiz-adv-x="991" d="M115 250v938q0 114 65.5 180t184.5 66h565v-95h-318v-569h279v-94h-279v-582h318v-94h-565q-117 0 -183.5 67t-66.5 183zM217 250q0 -71 40.5 -113.5t107.5 -42.5h145v1245h-145q-68 0 -108 -41t-40 -110v-938z" />
<glyph unicode="&#x153;" horiz-adv-x="1015" d="M106 203v680q0 102 66 162.5t164 60.5q55 0 103.5 -24t74.5 -66q26 42 74.5 66t103.5 24q98 0 164 -60.5t66 -162.5v-176q0 -53 -23 -84t-70 -54l-264 -133v-233q0 -58 37 -93.5t90 -35.5q55 0 91 35t36 94v112h103v-112q0 -102 -66 -162.5t-164 -60.5q-54 0 -105.5 25 t-74.5 63q-23 -38 -72.5 -63t-103.5 -25q-98 0 -164 60.5t-66 162.5zM209 203q0 -59 36 -94t91 -35t91 35t36 94v680q0 59 -36 94t-91 35t-91 -35t-36 -94v-680zM565 549l226 110q28 14 28 48v176q0 59 -36 94t-91 35q-54 0 -90.5 -35.5t-36.5 -93.5v-334z" />
<glyph unicode="&#x178;" horiz-adv-x="696" d="M98 1028v406h103v-406q0 -94 38 -179t109 -187q36 55 56.5 88.5t45 83t35.5 97t11 97.5v406h102v-406q0 -64 -20.5 -132.5t-50 -123t-58.5 -101t-49.5 -81.5t-20.5 -51v-539h-102v539q0 19 -31 70t-68.5 108.5t-68.5 144t-31 166.5zM174 1649q0 31 18.5 49t49.5 18 t49 -18t18 -49q0 -29 -18.5 -48.5t-48.5 -19.5t-49 20t-19 48zM391 1649q0 31 18.5 49t49.5 18t49 -18t18 -49q0 -29 -18.5 -48.5t-48.5 -19.5t-49 20t-19 48z" />
<glyph unicode="&#x2c6;" horiz-adv-x="481" d="M61 1233l136 221h90l133 -221h-92l-88 135l-86 -135h-93z" />
<glyph unicode="&#x2dc;" horiz-adv-x="534" d="M61 1282q0 77 35.5 118.5t91.5 41.5q34 0 79.5 -41t78.5 -41q51 0 51 74h76q0 -79 -34 -121.5t-93 -42.5q-23 0 -44.5 13t-36 28t-35 28t-42.5 13t-36.5 -17t-14.5 -53h-76z" />
<glyph unicode="&#x2000;" horiz-adv-x="888" />
<glyph unicode="&#x2001;" horiz-adv-x="1776" />
<glyph unicode="&#x2002;" horiz-adv-x="888" />
<glyph unicode="&#x2003;" horiz-adv-x="1776" />
<glyph unicode="&#x2004;" horiz-adv-x="592" />
<glyph unicode="&#x2005;" horiz-adv-x="444" />
<glyph unicode="&#x2006;" horiz-adv-x="296" />
<glyph unicode="&#x2007;" horiz-adv-x="296" />
<glyph unicode="&#x2008;" horiz-adv-x="222" />
<glyph unicode="&#x2009;" horiz-adv-x="355" />
<glyph unicode="&#x200a;" horiz-adv-x="98" />
<glyph unicode="&#x2010;" horiz-adv-x="456" d="M61 518v94h334v-94h-334z" />
<glyph unicode="&#x2011;" horiz-adv-x="456" d="M61 518v94h334v-94h-334z" />
<glyph unicode="&#x2012;" horiz-adv-x="456" d="M61 518v94h334v-94h-334z" />
<glyph unicode="&#x2013;" horiz-adv-x="1024" d="M41 518v90h942v-90h-942z" />
<glyph unicode="&#x2014;" horiz-adv-x="2048" d="M41 518v90h1966v-90h-1966z" />
<glyph unicode="&#x2018;" horiz-adv-x="256" d="M66 1274q0 135 90 252l75 -17q-65 -98 -65 -227q0 -42 10 -90l-100 -10q-10 55 -10 92z" />
<glyph unicode="&#x2019;" horiz-adv-x="256" d="M25 1194q65 103 65 225q0 40 -10 92l100 11q8 -44 8 -92q0 -138 -88 -252z" />
<glyph unicode="&#x201a;" horiz-adv-x="256" d="M25 -188q65 103 65 225q0 40 -10 92l100 10q8 -44 8 -92q0 -138 -88 -252z" />
<glyph unicode="&#x201c;" horiz-adv-x="460" d="M66 1274q0 135 90 252l75 -17q-65 -98 -65 -227q0 -42 10 -90l-100 -10q-10 55 -10 92zM270 1274q0 135 90 252l76 -17q-65 -98 -65 -227q0 -42 10 -90l-100 -10q-11 61 -11 92z" />
<glyph unicode="&#x201d;" horiz-adv-x="460" d="M25 1194q65 103 65 225q0 40 -10 92l100 11q8 -44 8 -92q0 -138 -88 -252zM229 1194q66 104 66 225q0 40 -10 92l100 11q8 -44 8 -92q0 -138 -88 -252z" />
<glyph unicode="&#x201e;" horiz-adv-x="460" d="M25 -188q65 103 65 225q0 40 -10 92l100 10q8 -44 8 -92q0 -138 -88 -252zM229 -188q66 104 66 225q0 40 -10 92l100 10q8 -44 8 -92q0 -138 -88 -252z" />
<glyph unicode="&#x2022;" horiz-adv-x="499" d="M82 561q0 71 48.5 120.5t119.5 49.5q70 0 119 -49.5t49 -120.5q0 -69 -49 -117.5t-119 -48.5q-72 0 -120 48.5t-48 117.5z" />
<glyph unicode="&#x2026;" horiz-adv-x="704" d="M61 55q0 29 19 47.5t47 18.5t47 -18.5t19 -47.5t-19 -47t-47 -18t-47 18t-19 47zM287 55q0 29 18.5 47.5t46.5 18.5t47 -18.5t19 -47.5t-19 -47t-47 -18t-46.5 18t-18.5 47zM512 55q0 29 19 47.5t47 18.5t46.5 -18.5t18.5 -47.5t-18.5 -47t-46.5 -18t-47 18t-19 47z" />
<glyph unicode="&#x202f;" horiz-adv-x="355" />
<glyph unicode="&#x2039;" horiz-adv-x="464" d="M61 553l234 369h108l-233 -369l233 -369h-108z" />
<glyph unicode="&#x203a;" horiz-adv-x="464" d="M61 184l234 369l-234 369h109l233 -369l-233 -369h-109z" />
<glyph unicode="&#x205f;" horiz-adv-x="444" />
<glyph unicode="&#x20ac;" d="M61 778v94h123v336q0 112 69.5 179t180.5 67t180.5 -67t69.5 -179v-123h-102v123q0 69 -40.5 110.5t-107.5 41.5q-66 0 -106.5 -41.5t-40.5 -110.5v-336h266v-94h-266v-133h268v-94h-268v-322q0 -71 41 -113t106 -42q70 0 109 41.5t39 113.5v125h102v-125 q0 -114 -69 -181.5t-181 -67.5t-181 67.5t-69 181.5v322h-121v94h121v133h-123z" />
<glyph unicode="&#x2122;" horiz-adv-x="679" d="M25 1372v62h227v-62h-80v-360h-66v360h-81zM283 1012v323q0 51 28 79t74 28q45 0 68 -29q23 29 65 29q44 0 72 -28t28 -79v-323h-65v323q0 20 -10 32.5t-25 12.5t-25 -12.5t-10 -32.5v-323h-65v323q0 20 -10 32.5t-25 12.5t-25 -12.5t-10 -32.5v-323h-65z" />
<glyph unicode="&#x25fc;" horiz-adv-x="1085" d="M0 0v1085h1085v-1085h-1085z" />
</font>
</defs>
</svg>
