<?xml version="1.0" standalone="no"?>
<!DOCTYPE svg PUBLIC "-//W3C//DTD SVG 1.1//EN" "http://www.w3.org/Graphics/SVG/1.1/DTD/svg11.dtd" >
<svg xmlns="http://www.w3.org/2000/svg">
<metadata></metadata>
<defs>
<font id="andosemibold" horiz-adv-x="737" >
<font-face units-per-em="2048" ascent="1577" descent="-471" />
<missing-glyph horiz-adv-x="335" />
<glyph unicode="&#xfb01;" horiz-adv-x="763" d="M29 958v127h121v215q0 110 71.5 173t177.5 63t178 -63t72 -173v-69h-135v69q0 50 -32.5 80.5t-82.5 30.5q-48 0 -81 -30.5t-33 -80.5v-215h364v-1085h-135v958h-229v-958h-135v958h-121z" />
<glyph unicode="&#xfb02;" horiz-adv-x="800" d="M29 958v127h121v193q0 106 69.5 172t171.5 66h295v-1516h-135v1393h-160q-48 0 -77 -31t-29 -84v-193h164v-127h-164v-958h-135v958h-121z" />
<glyph unicode="&#xfb03;" horiz-adv-x="1146" d="M29 958v127h121v162q0 106 60.5 167t156.5 61q82 0 143 -41q-13 -42 -39 -109q-52 27 -104 27q-37 0 -59.5 -28t-22.5 -77v-162h247v215q0 110 72 173t178 63t178 -63t72 -173v-69h-135v69q0 50 -32.5 80.5t-82.5 30.5q-48 0 -81 -30.5t-33 -80.5v-215h364v-1085h-135 v958h-229v-958h-136v958h-247v-958h-135v958h-121z" />
<glyph unicode="&#xfb04;" horiz-adv-x="1175" d="M29 958v127h121v162q0 106 60.5 167t156.5 61q82 0 143 -41q-13 -42 -39 -109q-52 27 -104 27q-37 0 -59.5 -28t-22.5 -77v-162h247v193q0 106 70 172t172 66h287v-1516h-135v1393h-152q-48 0 -77 -31t-29 -84v-193h163v-127h-163v-958h-136v958h-247v-958h-135v958h-121 z" />
<glyph horiz-adv-x="0" />
<glyph horiz-adv-x="682" />
<glyph unicode=" "  horiz-adv-x="335" />
<glyph unicode="&#x09;" horiz-adv-x="335" />
<glyph unicode="&#xa0;" horiz-adv-x="335" />
<glyph unicode="!" horiz-adv-x="364" d="M100 68q0 36 23 59t59 23q34 0 58 -23t24 -59q0 -35 -24 -58.5t-58 -23.5q-35 0 -58.5 23.5t-23.5 58.5zM115 340v1094h135v-1094h-135z" />
<glyph unicode="&#x22;" horiz-adv-x="555" d="M98 1085v431h121v-431h-121zM336 1085v431h121v-431h-121z" />
<glyph unicode="#" d="M25 418v121h118l39 338h-125v120h140l49 437h125l-49 -437h155l49 437h125l-49 -437h107v-120h-121l-39 -338h127v-121h-141l-48 -418h-125l48 418h-154l-47 -418h-125l47 418h-106zM268 539h156l39 338h-156z" />
<glyph unicode="$" d="M106 283v131h138v-131q0 -64 33 -101t92 -37q58 0 91.5 37.5t33.5 100.5v151q0 62 -21.5 109.5t-55.5 78.5t-75.5 58t-83 56t-75.5 64t-55.5 90.5t-21.5 127.5v133q0 104 52.5 171.5t144.5 86.5v150h131v-150q91 -21 144 -88.5t53 -169.5v-129h-137v129q0 64 -34 100.5 t-91 36.5t-91 -36.5t-34 -100.5v-133q0 -55 21.5 -97t55.5 -70t75.5 -54t82.5 -56t75 -68t55.5 -99t21.5 -140v-151q0 -103 -53.5 -171t-143.5 -85v-150h-131v148q-92 19 -144.5 86.5t-52.5 171.5z" />
<glyph unicode="%" horiz-adv-x="1050" d="M78 969v307q0 85 47.5 131.5t132.5 46.5q86 0 134 -46.5t48 -131.5v-307q0 -84 -47.5 -130t-134.5 -46q-85 0 -132.5 46t-47.5 130zM156 0l626 1434h111l-627 -1434h-110zM188 969q0 -32 20 -51t50 -19q31 0 51.5 19t20.5 51v307q0 32 -20.5 52t-51.5 20q-30 0 -50 -20 t-20 -52v-307zM610 156v307q0 84 48 131t133 47q86 0 134 -46.5t48 -131.5v-307q0 -84 -47.5 -130t-134.5 -46q-85 0 -133 46t-48 130zM721 156q0 -32 20 -51t50 -19q31 0 51 19t20 51v307q0 32 -20 52t-51 20q-30 0 -50 -20t-20 -52v-307z" />
<glyph unicode="&#x26;" horiz-adv-x="804" d="M106 240v325q0 65 31.5 119.5t77.5 73.5q-48 23 -78.5 75.5t-30.5 122.5v240q0 119 71 188.5t192 69.5t191.5 -69.5t70.5 -188.5v-131h-137v131q0 55 -36 93t-89 38q-57 0 -91 -35.5t-34 -95.5v-240q0 -58 36 -96.5t89 -38.5h401v-127h-139v-454q0 -131 139 -131v-123 q-70 0 -128.5 24.5t-78.5 63.5q-24 -40 -78.5 -67t-115.5 -27q-120 0 -191.5 70t-71.5 190zM244 240q0 -62 33.5 -98t91.5 -36q56 0 90.5 36.5t34.5 97.5v454h-123q-57 0 -92 -35.5t-35 -93.5v-325z" />
<glyph unicode="'" horiz-adv-x="317" d="M98 1085v431h121v-431h-121z" />
<glyph unicode="(" horiz-adv-x="440" d="M98 602q0 313 62 551t145 344h123q-76 -101 -134 -350.5t-58 -544.5t58 -543.5t134 -351.5h-123q-84 108 -145.5 344.5t-61.5 550.5z" />
<glyph unicode=")" horiz-adv-x="440" d="M12 -293q77 103 135 352t58 543q0 295 -58.5 544t-134.5 351h123q83 -106 145 -344t62 -551q0 -314 -61.5 -550.5t-145.5 -344.5h-123z" />
<glyph unicode="*" horiz-adv-x="389" d="M37 1323l102 39l-102 41l37 70l94 -66l-12 115h77l-12 -115l94 66l37 -70l-100 -39l100 -43l-37 -70l-92 68l10 -115h-77l12 115l-94 -68z" />
<glyph unicode="+" d="M70 504v123h233v282h129v-282h236v-123h-236v-285h-129v285h-233z" />
<glyph unicode="," horiz-adv-x="272" d="M18 -217q64 106 64 231q0 46 -8 95l127 18q12 -43 12 -107q0 -138 -100 -262z" />
<glyph unicode="-" horiz-adv-x="454" d="M57 506v127h340v-127h-340z" />
<glyph unicode="." horiz-adv-x="278" d="M57 68q0 36 23 59t59 23q34 0 58 -23t24 -59q0 -35 -24 -58.5t-58 -23.5q-35 0 -58.5 23.5t-23.5 58.5z" />
<glyph unicode="/" horiz-adv-x="675" d="M37 0l467 1434h135l-467 -1434h-135z" />
<glyph unicode="0" d="M106 240v956q0 118 73 188t190 70q116 0 189 -70t73 -188v-956q0 -120 -73 -190t-189 -70q-117 0 -190 70t-73 190zM244 240q0 -61 34 -97.5t91 -36.5t91 36.5t34 97.5v956q0 60 -34 95.5t-91 35.5t-91 -35.5t-34 -95.5v-956z" />
<glyph unicode="1" horiz-adv-x="593" d="M61 1073v127q88 28 155.5 96t100.5 138h117v-1434h-137v1219q-100 -129 -236 -146z" />
<glyph unicode="2" horiz-adv-x="688" d="M70 0v41q0 108 28.5 214t71.5 187.5t93.5 169.5t93.5 161t71.5 160.5t28.5 170.5v90q0 59 -35 96t-90 37q-56 0 -90.5 -36t-34.5 -97v-129h-137v129q0 120 73 190t189 70t189 -70t73 -190v-94q0 -99 -37 -204.5t-91 -197.5t-109 -182.5t-97 -192.5t-49 -196h383v-127 h-524z" />
<glyph unicode="3" horiz-adv-x="700" d="M70 240v135h137v-135q0 -61 34.5 -97.5t90.5 -36.5q58 0 91.5 36t33.5 98v286q0 57 -34 93t-89 36h-117v127h117q55 0 89 38t34 98v278q0 60 -34 95.5t-91 35.5t-91 -35.5t-34 -95.5v-131h-137v131q0 118 72 188t190 70t190 -70t72 -188v-278q0 -68 -27.5 -120t-74.5 -79 q46 -23 74 -76t28 -117v-286q0 -119 -72 -189.5t-190 -70.5t-190 70.5t-72 189.5z" />
<glyph unicode="4" horiz-adv-x="706" d="M80 276v91q0 87 22 191.5t54 206t63.5 207t53.5 227.5t22 235h137q0 -140 -32 -296.5t-70.5 -271t-73 -245t-37.5 -222.5h246v385h137v-784h-137v276h-385z" />
<glyph unicode="5" d="M106 238v137h138v-137q0 -57 35 -94.5t90 -37.5q57 0 91 36t34 96v366q0 56 -35.5 94.5t-87.5 38.5q-100 0 -127 -73h-133v770h512v-127h-375v-492q49 49 123 49q117 0 188.5 -70.5t71.5 -189.5v-366q0 -119 -72.5 -188.5t-189.5 -69.5t-190 70t-73 188z" />
<glyph unicode="6" d="M106 238v956q0 120 73 190t190 70t189.5 -70t72.5 -190v-133h-137v133q0 58 -36 95.5t-89 37.5q-58 0 -91.5 -35.5t-33.5 -97.5v-385q51 55 125 55q118 0 190 -70t72 -190v-366q0 -118 -73 -188t-189 -70t-189.5 70t-73.5 188zM244 238q0 -60 34 -96t91 -36t91 36t34 96 v366q0 61 -34.5 97t-90.5 36q-58 0 -91.5 -35.5t-33.5 -97.5v-366z" />
<glyph unicode="7" horiz-adv-x="626" d="M37 1305v129h506q10 -31 10 -74q0 -149 -28.5 -292.5t-69.5 -261t-81.5 -236t-69 -266.5t-28.5 -304h-137q0 134 20.5 262t50.5 224.5t66 201.5t67 193.5t52.5 200.5t22.5 223h-381z" />
<glyph unicode="8" d="M106 238v239q0 83 41.5 140t116.5 110q-75 51 -116.5 108.5t-41.5 143.5v215q0 119 72.5 189.5t190.5 70.5t190 -70.5t72 -189.5v-215q0 -85 -42.5 -143t-117.5 -109q75 -51 117.5 -109t42.5 -141v-239q0 -118 -72 -188t-190 -70t-190.5 70t-72.5 188zM244 238 q0 -60 34.5 -96t90.5 -36q58 0 91.5 36t33.5 96v239q0 56 -33 97.5t-94 82.5q-59 -41 -91 -82.5t-32 -97.5v-239zM244 979q0 -58 32 -99.5t93 -84.5q61 44 93 85.5t32 98.5v215q0 61 -34 97t-91 36t-91 -36t-34 -97v-215z" />
<glyph unicode="9" d="M106 240v135h138v-135q0 -61 35 -97.5t90 -36.5q58 0 91.5 36t33.5 98v383q-56 -52 -125 -52q-116 0 -189.5 70.5t-73.5 189.5v365q0 118 73 188t190 70t189.5 -69.5t72.5 -188.5v-956q0 -120 -73 -190t-189 -70t-189.5 70.5t-73.5 189.5zM244 831q0 -61 34.5 -97 t90.5 -36q58 0 91.5 35.5t33.5 97.5v365q0 60 -34 95.5t-91 35.5t-91 -35.5t-34 -95.5v-365z" />
<glyph unicode=":" horiz-adv-x="278" d="M57 244q0 36 23 59t59 23q34 0 58 -23t24 -59q0 -35 -24 -58.5t-58 -23.5q-35 0 -58.5 23.5t-23.5 58.5zM57 858q0 36 23 59t59 23q34 0 58 -23t24 -59q0 -35 -24 -58.5t-58 -23.5q-35 0 -58.5 23.5t-23.5 58.5z" />
<glyph unicode=";" horiz-adv-x="278" d="M18 -217q64 106 64 231q0 46 -8 95l127 18q12 -43 12 -107q0 -138 -100 -262zM57 858q0 36 23 59t59 23q34 0 58 -23t24 -59q0 -35 -24 -58.5t-58 -23.5q-35 0 -58.5 23.5t-23.5 58.5z" />
<glyph unicode="&#x3c;" d="M80 514v94l575 361v-146l-428 -262l428 -264v-145z" />
<glyph unicode="=" d="M70 356v123h598v-123h-598zM70 651v123h598v-123h-598z" />
<glyph unicode="&#x3e;" d="M80 152v145l428 262l-428 264v146l575 -363v-94z" />
<glyph unicode="?" horiz-adv-x="655" d="M70 1065v133q0 118 69 187t191 69q123 0 191.5 -69t68.5 -187v-338q0 -104 -50.5 -169.5t-142.5 -82.5v-270h-135v385h66q60 0 93.5 36t33.5 101v338q0 60 -34 95.5t-91 35.5t-91 -35.5t-34 -95.5v-133h-135zM248 68q0 36 24 59t58 23q36 0 59 -23t23 -59 q0 -35 -23.5 -58.5t-58.5 -23.5q-34 0 -58 23.5t-24 58.5z" />
<glyph unicode="@" horiz-adv-x="972" d="M106 80v1007q0 162 109 264.5t270 102.5q166 0 273.5 -101t107.5 -266v-866q0 -111 -69.5 -176t-175.5 -65q-107 0 -176.5 65t-69.5 178v537q0 113 69.5 178.5t176.5 65.5q37 0 63 -13v-121q-25 11 -63 11q-52 0 -83.5 -32.5t-31.5 -88.5v-537q0 -56 31.5 -88.5 t83.5 -32.5q50 0 82 33t32 86v866q0 111 -71 177.5t-179 66.5q-105 0 -176 -66.5t-71 -177.5v-1007q0 -70 25.5 -127t67.5 -92t93 -53.5t104 -18.5q115 0 197 57l45 -114q-107 -66 -242 -66q-83 0 -158 26.5t-134.5 76.5t-94.5 130.5t-35 180.5z" />
<glyph unicode="A" d="M106 0v1196q0 118 73.5 188t189.5 70t189 -70t73 -188v-1196h-137v557h-250v-557h-138zM244 684h250v512q0 60 -34 95.5t-91 35.5t-91 -35.5t-34 -95.5v-512z" />
<glyph unicode="B" horiz-adv-x="729" d="M106 0v1434h263q118 0 190 -70t72 -188v-261q0 -68 -30.5 -121.5t-78.5 -74.5q46 -20 77.5 -76t31.5 -119v-264q0 -119 -72 -189.5t-190 -70.5h-263zM244 127h125q56 0 90.5 36t34.5 97v264q0 58 -33 94.5t-86 36.5h-131v-528zM244 782h131q54 0 86.5 36.5t32.5 96.5v261 q0 58 -35.5 94.5t-89.5 36.5h-125v-525z" />
<glyph unicode="C" horiz-adv-x="700" d="M106 240v956q0 118 73 188t190 70q116 0 189 -70t73 -188v-131h-137v131q0 60 -34 95.5t-91 35.5t-91 -35.5t-34 -95.5v-956q0 -61 34.5 -97.5t90.5 -36.5q58 0 91.5 36t33.5 98v135h137v-135q0 -120 -73 -190t-189 -70q-117 0 -190 70t-73 190z" />
<glyph unicode="D" d="M106 0v1434h263q119 0 190.5 -69.5t71.5 -188.5v-916q0 -121 -71.5 -190.5t-190.5 -69.5h-263zM244 127h125q56 0 90.5 36t34.5 97v916q0 60 -34 95.5t-91 35.5h-125v-1180z" />
<glyph unicode="E" horiz-adv-x="591" d="M106 0v1434h429v-127h-291v-525h260v-127h-260v-528h291v-127h-429z" />
<glyph unicode="F" horiz-adv-x="579" d="M106 0v1434h429v-127h-291v-525h260v-127h-260v-655h-138z" />
<glyph unicode="G" d="M106 240v956q0 118 73 188t190 70q116 0 189 -70t73 -188v-131h-137v131q0 60 -34.5 95.5t-90.5 35.5q-57 0 -91 -35.5t-34 -95.5v-956q0 -61 34.5 -97.5t90.5 -36.5q58 0 91.5 36t33.5 98v415h-125v127h262v-542q0 -120 -73 -190t-189 -70t-189.5 70.5t-73.5 189.5z" />
<glyph unicode="H" d="M106 0v1434h138v-652h250v652h137v-1434h-137v655h-250v-655h-138z" />
<glyph unicode="I" horiz-adv-x="366" d="M115 0v1434h137v-1434h-137z" />
<glyph unicode="J" horiz-adv-x="641" d="M53 215v170h137v-170q0 -50 30 -79.5t75 -29.5q44 0 73 29.5t29 79.5v1090h-293v129h431v-1219q0 -107 -69 -171t-171 -64q-104 0 -173 64t-69 171z" />
<glyph unicode="K" horiz-adv-x="731" d="M106 0v1434h138v-701q106 108 154.5 170t73 129.5t24.5 157.5v244h137v-244q0 -145 -46 -241t-149 -199q66 -66 104.5 -119t64.5 -132.5t26 -176.5v-322h-137v322q0 106 -36.5 182t-111.5 155l-104 -102v-557h-138z" />
<glyph unicode="L" horiz-adv-x="552" d="M106 0v1434h138v-1307h280v-127h-418z" />
<glyph unicode="M" horiz-adv-x="1058" d="M106 0v1217q0 107 71 172t175 65q52 0 100.5 -21.5t77.5 -60.5q29 35 79.5 58.5t97.5 23.5q102 0 173.5 -65t71.5 -172v-1217h-137v1217q0 50 -31 80t-77 30t-77.5 -30t-31.5 -80v-1217h-137v1217q0 50 -31.5 80t-77.5 30t-77 -30t-31 -80v-1217h-138z" />
<glyph unicode="N" d="M106 0v1196q0 118 73 188t190 70q116 0 189 -70t73 -188v-1196h-137v1196q0 60 -34 95.5t-91 35.5t-91 -35.5t-34 -95.5v-1196h-138z" />
<glyph unicode="O" d="M106 240v956q0 118 73 188t190 70q116 0 189 -70t73 -188v-956q0 -120 -73 -190t-189 -70q-117 0 -190 70t-73 190zM244 240q0 -61 34 -97.5t91 -36.5t91 36.5t34 97.5v956q0 60 -34 95.5t-91 35.5t-91 -35.5t-34 -95.5v-956z" />
<glyph unicode="P" horiz-adv-x="708" d="M106 0v1434h263q119 0 190.5 -70t71.5 -188v-359q0 -122 -71 -192t-189 -70h-127v-555h-138zM244 682h127q56 0 89.5 36t33.5 99v359q0 60 -34 95.5t-91 35.5h-125v-625z" />
<glyph unicode="Q" d="M106 240v956q0 118 73 188t190 70q116 0 189 -70t73 -188v-956q0 -101 -53.5 -167.5t-141.5 -84.5v-244h-135v244q-90 17 -142.5 83.5t-52.5 168.5zM244 240q0 -61 34 -97.5t91 -36.5t91 36.5t34 97.5v956q0 60 -34 95.5t-91 35.5t-91 -35.5t-34 -95.5v-956z" />
<glyph unicode="R" horiz-adv-x="729" d="M106 0v1434h263q119 0 190.5 -70t71.5 -188v-261q0 -69 -31 -122t-80 -74q48 -20 79.5 -75t31.5 -120v-524h-137v524q0 58 -34.5 94.5t-90.5 36.5h-127v-655h-136zM242 782h127q55 0 90 37t35 96v261q0 60 -34 95.5t-91 35.5h-127v-525z" />
<glyph unicode="S" horiz-adv-x="696" d="M86 244v131h137v-131q0 -64 32.5 -101t92.5 -37q58 0 91.5 37.5t33.5 100.5v174q0 62 -21.5 112t-55.5 83.5t-75 63.5t-82.5 62t-75.5 69.5t-55.5 95t-21.5 130.5v156q0 122 71.5 193t190.5 71q117 0 189.5 -71.5t72.5 -192.5v-125h-137v125q0 60 -36.5 98.5t-88.5 38.5 q-58 0 -91.5 -37t-33.5 -100v-156q0 -56 21.5 -100.5t55.5 -75.5t75.5 -60t82.5 -62.5t75 -74t55.5 -102.5t21.5 -141v-174q0 -121 -72.5 -192.5t-189.5 -71.5q-120 0 -191 70.5t-71 193.5z" />
<glyph unicode="T" horiz-adv-x="591" d="M33 1307v127h526v-127h-194v-1307h-138v1307h-194z" />
<glyph unicode="U" d="M106 240v1194h138v-1194q0 -61 34.5 -97.5t90.5 -36.5q58 0 91.5 36t33.5 98v1194h137v-1194q0 -120 -72.5 -190t-189.5 -70t-190 70t-73 190z" />
<glyph unicode="V" d="M106 479v955h138v-955q0 -87 50.5 -210.5t74.5 -123.5t74.5 123.5t50.5 210.5v955h137v-955q0 -83 -45 -202.5t-108 -208t-109 -88.5t-109 88t-108.5 207.5t-45.5 203.5z" />
<glyph unicode="W" horiz-adv-x="1058" d="M106 434v1000h138v-1000q0 -84 37 -188.5t63 -104.5q15 0 42.5 48t51 119.5t23.5 125.5v979h137v-979q0 -83 45.5 -188t73.5 -105q25 0 61.5 104.5t36.5 188.5v1000h137v-1000q0 -92 -33 -197.5t-88.5 -181t-113.5 -75.5q-43 0 -97 73.5t-92 165.5q-31 -89 -86 -164 t-98 -75q-54 0 -110 71t-92 178t-36 205z" />
<glyph unicode="X" horiz-adv-x="720" d="M98 0v270q0 131 48 237t137 230q-45 65 -70 104.5t-56 99.5t-45 118.5t-14 120.5v254h135v-254q0 -86 32.5 -164t92.5 -166q60 86 93.5 165t33.5 165v254h138v-254q0 -62 -14.5 -121t-45.5 -118.5t-56 -99t-69 -102.5q44 -63 69.5 -104.5t56 -104t45 -126.5t14.5 -134 v-270h-138v270q0 166 -127 355q-125 -191 -125 -355v-270h-135z" />
<glyph unicode="Y" horiz-adv-x="704" d="M90 1018v416h137v-416q0 -84 32.5 -161t92.5 -165q62 95 93.5 168.5t31.5 157.5v416h137v-416q0 -77 -30.5 -161t-66.5 -141t-66.5 -108.5t-30.5 -70.5v-537h-137v537q0 16 -20 51t-48.5 80.5t-56.5 98.5t-48 120t-20 131z" />
<glyph unicode="Z" horiz-adv-x="612" d="M74 74q0 124 16.5 233.5t44 191.5t60.5 158t67 147.5t63 144t50 164t26 192.5h-327v129h458q7 -37 7 -84q0 -105 -17 -199t-45 -168.5t-61.5 -146.5t-68 -147t-64 -154.5t-50 -184.5t-24.5 -223h330v-127h-459q-6 35 -6 74z" />
<glyph unicode="[" horiz-adv-x="434" d="M115 -295v1798h262v-123h-133v-1552h133v-123h-262z" />
<glyph unicode="\" horiz-adv-x="675" d="M37 1434h135l467 -1434h-135z" />
<glyph unicode="]" horiz-adv-x="434" d="M57 -172h133v1552h-133v123h262v-1798h-262v123z" />
<glyph unicode="^" d="M41 764l270 670h115l268 -670h-127l-198 518l-201 -518h-127z" />
<glyph unicode="_" horiz-adv-x="1024" d="M37 -20h950v-123h-950v123z" />
<glyph unicode="`" horiz-adv-x="389" d="M61 1454h150l117 -221h-115z" />
<glyph unicode="a" horiz-adv-x="669" d="M86 213v152q0 82 42.5 139.5t109.5 87.5l198 90v188q0 50 -30.5 80.5t-77.5 30.5q-45 0 -76 -30.5t-31 -80.5v-106h-135v106q0 110 69.5 173t172.5 63t173 -63t70 -173v-657q0 -109 -70 -171t-173 -62t-172.5 61.5t-69.5 171.5zM221 213q0 -48 31 -78.5t76 -30.5 q47 0 77.5 30t30.5 79v330l-141 -66q-74 -32 -74 -112v-152z" />
<glyph unicode="b" horiz-adv-x="681" d="M98 213v1303h135v-457q44 47 107 47q103 0 173.5 -63t70.5 -173v-657q0 -109 -70.5 -171t-173.5 -62t-172.5 61.5t-69.5 171.5zM233 213q0 -48 31 -78.5t76 -30.5q46 0 77.5 30.5t31.5 78.5v657q0 50 -31.5 80.5t-77.5 30.5q-45 0 -76 -30.5t-31 -80.5v-657z" />
<glyph unicode="c" horiz-adv-x="641" d="M98 213v657q0 110 70 173t172 63q104 0 174 -63t70 -173v-106h-135v106q0 50 -31 80.5t-78 30.5q-45 0 -76 -30.5t-31 -80.5v-657q0 -48 31 -78.5t76 -30.5q47 0 78 30t31 79v121h135v-121q0 -110 -69.5 -171.5t-174.5 -61.5q-102 0 -172 62t-70 171z" />
<glyph unicode="d" horiz-adv-x="681" d="M98 213v657q0 110 70 173t172 63q65 0 109 -47v457h135v-1303q0 -110 -69.5 -171.5t-174.5 -61.5q-102 0 -172 62t-70 171zM233 213q0 -48 31 -78.5t76 -30.5q47 0 78 30t31 79v657q0 50 -31 80.5t-78 30.5q-45 0 -76 -30.5t-31 -80.5v-657z" />
<glyph unicode="e" horiz-adv-x="669" d="M98 213v657q0 110 69.5 173t172.5 63q104 0 174 -63t70 -173v-163q0 -62 -22 -92t-79 -58l-250 -125v-219q0 -45 32 -77t75 -32q47 0 78 30t31 79v121h135v-121q0 -110 -69.5 -171.5t-174.5 -61.5q-103 0 -172.5 61.5t-69.5 171.5zM233 578l193 92q23 12 23 37v163 q0 50 -31 80.5t-78 30.5q-45 0 -76 -30.5t-31 -80.5v-292z" />
<glyph unicode="f" horiz-adv-x="464" d="M29 961v124h121v203q0 106 61.5 167t155.5 61q55 0 114 -27q-16 -78 -26 -115q-38 17 -88 17q-37 0 -59.5 -27t-22.5 -76v-203h164v-124h-164v-961h-135v961h-121z" />
<glyph unicode="g" horiz-adv-x="681" d="M98 -178q0 106 121 184q-56 27 -88.5 80t-32.5 127v657q0 110 70 173t172 63q104 0 174 -63t70 -173v-1048q0 -109 -71.5 -170.5t-174.5 -61.5q-102 0 -171 62t-69 170zM233 -178q0 -47 28.5 -77t78.5 -30q44 0 76.5 29t32.5 78v207q-19 0 -53.5 -14.5t-71.5 -40 t-64 -66.5t-27 -86zM233 213q0 -48 31 -78.5t76 -30.5q47 0 78 30t31 79v657q0 50 -31 80.5t-78 30.5q-45 0 -76 -30.5t-31 -80.5v-657z" />
<glyph unicode="h" horiz-adv-x="681" d="M98 0v1516h135v-457q44 47 107 47q103 0 173.5 -63t70.5 -173v-870h-135v870q0 50 -31.5 80.5t-77.5 30.5q-45 0 -76 -30.5t-31 -80.5v-870h-135z" />
<glyph unicode="i" horiz-adv-x="364" d="M98 1360q0 37 23.5 60.5t60.5 23.5t60.5 -23.5t23.5 -60.5t-23.5 -60.5t-60.5 -23.5t-60.5 23.5t-23.5 60.5zM115 0v1085h135v-1085h-135z" />
<glyph unicode="j" horiz-adv-x="364" d="M-68 -369l35 115q39 -22 78 -22q70 0 70 104v1257h135v-1257q0 -107 -51.5 -170.5t-153.5 -63.5q-63 0 -113 37zM98 1360q0 37 23.5 60.5t60.5 23.5t60.5 -23.5t23.5 -60.5t-23.5 -60.5t-60.5 -23.5t-60.5 23.5t-23.5 60.5z" />
<glyph unicode="k" horiz-adv-x="673" d="M98 0v1516h135v-941q114 107 165 189.5t51 163.5q0 59 -62 59l25 113h20q152 0 152 -168q0 -82 -35.5 -161.5t-122.5 -176.5q83 -69 120.5 -156.5t37.5 -242.5v-195h-135v195q0 116 -26.5 183.5t-88.5 119.5q-46 -45 -101 -95v-403h-135z" />
<glyph unicode="l" horiz-adv-x="364" d="M115 0v1516h135v-1516h-135z" />
<glyph unicode="m" horiz-adv-x="1003" d="M98 0v870q0 107 66.5 171.5t169.5 64.5q115 0 168 -80q60 80 168 80q102 0 168.5 -64.5t66.5 -171.5v-870h-135v870q0 50 -28 80.5t-72 30.5t-72.5 -30.5t-28.5 -80.5v-870h-135v870q0 49 -29.5 80t-70.5 31q-45 0 -73 -30.5t-28 -80.5v-870h-135z" />
<glyph unicode="n" horiz-adv-x="681" d="M98 0v870q0 110 69.5 173t172.5 63t173.5 -63t70.5 -173v-870h-135v870q0 50 -31.5 80.5t-77.5 30.5q-45 0 -76 -30.5t-31 -80.5v-870h-135z" />
<glyph unicode="o" horiz-adv-x="681" d="M98 213v657q0 110 69.5 173t172.5 63t173.5 -63t70.5 -173v-657q0 -109 -70.5 -171t-173.5 -62t-172.5 61.5t-69.5 171.5zM233 213q0 -48 31 -78.5t76 -30.5q47 0 78 30t31 79v657q0 50 -31 80.5t-78 30.5q-45 0 -76 -30.5t-31 -80.5v-657z" />
<glyph unicode="p" horiz-adv-x="681" d="M98 -397v1267q0 110 69.5 173t172.5 63t173.5 -63t70.5 -173v-657q0 -109 -70.5 -171t-173.5 -62q-63 0 -107 47v-424h-135zM233 213q0 -48 31 -78.5t76 -30.5q46 0 77.5 30.5t31.5 78.5v657q0 50 -31.5 80.5t-77.5 30.5q-45 0 -76 -30.5t-31 -80.5v-657z" />
<glyph unicode="q" horiz-adv-x="681" d="M98 213v657q0 110 70 173t172 63q104 0 174 -63t70 -173v-1267h-135v424q-47 -47 -109 -47q-102 0 -172 62t-70 171zM233 213q0 -48 31 -78.5t76 -30.5q47 0 78 30t31 79v657q0 50 -31 80.5t-78 30.5q-45 0 -76 -30.5t-31 -80.5v-657z" />
<glyph unicode="r" horiz-adv-x="587" d="M98 0v870q0 108 61.5 171t162.5 63q102 0 163.5 -63.5t61.5 -170.5v-104h-135v104q0 53 -26 81t-64 28q-37 0 -63 -28.5t-26 -80.5v-870h-135z" />
<glyph unicode="s" horiz-adv-x="649" d="M82 213v121h135v-121q0 -49 31 -79t76 -30q46 0 77 29.5t31 79.5v121q0 37 -19.5 67.5t-50 52.5t-68 43t-75 46t-68 54.5t-50 74t-19.5 100.5v98q0 110 69.5 173t172.5 63q104 0 173.5 -63t69.5 -173v-106h-135v106q0 49 -32 80t-76 31t-75.5 -31t-31.5 -80v-98 q0 -42 26 -75.5t65 -54.5t84 -49t84 -57.5t65 -82t26 -119.5v-121q0 -106 -70 -169.5t-173 -63.5q-102 0 -172 63.5t-70 169.5z" />
<glyph unicode="t" horiz-adv-x="471" d="M20 961v124h117v271h135v-271h179v-124h-179v-750q0 -105 80 -105q22 0 57 3.5t40 3.5v-113q-48 -16 -97 -16q-103 0 -159 59t-56 168v750h-117z" />
<glyph unicode="u" horiz-adv-x="681" d="M98 213v872h135v-872q0 -48 31 -78.5t76 -30.5q47 0 78 30t31 79v872h135v-872q0 -109 -70.5 -171t-173.5 -62t-172.5 61.5t-69.5 171.5z" />
<glyph unicode="v" horiz-adv-x="681" d="M98 342v743h135v-743q0 -37 20.5 -86.5t46 -84t40.5 -34.5q25 0 67 74.5t42 130.5v532q0 89 -62 89h-10v122q14 2 41 2q89 0 127.5 -50t38.5 -163v-532q0 -64 -41.5 -150.5t-100 -149t-102.5 -62.5q-45 0 -103 62.5t-98.5 148.5t-40.5 151z" />
<glyph unicode="w" horiz-adv-x="1003" d="M98 342v743h135v-743q0 -69 37 -142t60 -73q15 0 39.5 32.5t44.5 83.5t20 95v747h135v-747q0 -44 19.5 -95t43.5 -83.5t40 -32.5q24 0 61 72.5t37 142.5v743h135v-743q0 -85 -37.5 -170.5t-92 -138.5t-103.5 -53q-39 0 -89.5 55.5t-80.5 122.5q-32 -71 -80.5 -124.5 t-91.5 -53.5q-48 0 -102.5 53t-92 139t-37.5 170z" />
<glyph unicode="x" horiz-adv-x="665" d="M90 0v197q0 81 25 152t55.5 113.5t81.5 98.5q-78 87 -120 170t-42 201v153h135v-153q0 -83 28 -148t79 -129q52 65 80 129.5t28 147.5v153h135v-153q0 -119 -42 -201t-121 -170q79 -86 121 -167t42 -197v-197h-135v197q0 83 -28 146t-80 128q-52 -65 -79.5 -128 t-27.5 -146v-197h-135z" />
<glyph unicode="y" horiz-adv-x="681" d="M98 -178q0 106 121 184q-56 27 -88.5 80t-32.5 127v872h135v-872q0 -48 31 -78.5t76 -30.5q47 0 78 30t31 79v872h135v-1263q0 -109 -71.5 -170.5t-174.5 -61.5q-102 0 -171 62t-69 170zM233 -178q0 -47 28.5 -77t78.5 -30q44 0 76.5 29t32.5 78v207q-14 0 -48 -15 t-72 -39.5t-67 -66t-29 -86.5z" />
<glyph unicode="z" horiz-adv-x="555" d="M57 59q0 96 16.5 183.5t43.5 153t59.5 125.5t65 113t59.5 103.5t44 107.5t17 116h-301v124h428q9 -24 9 -53q0 -115 -31.5 -218t-76 -181t-89.5 -153.5t-76.5 -166.5t-31.5 -188h305v-125h-432q-9 28 -9 59z" />
<glyph unicode="{" horiz-adv-x="444" d="M57 541v125q40 0 69.5 25.5t29.5 68.5v524q0 101 58 158t173 57v-121q-46 0 -74 -26.5t-28 -67.5v-524q0 -55 -22.5 -97t-51.5 -59q29 -16 51.5 -60t22.5 -98v-520q0 -41 28 -68.5t74 -27.5v-121q-117 0 -174 58t-57 159v520q0 43 -30 69t-69 26z" />
<glyph unicode="|" horiz-adv-x="358" d="M115 -397v1913h129v-1913h-129z" />
<glyph unicode="}" horiz-adv-x="444" d="M57 -170q46 0 74.5 27.5t28.5 68.5v520q0 54 22 98t51 60q-29 17 -51 59t-22 97v524q0 41 -28.5 67.5t-74.5 26.5v121q116 0 174 -57t58 -158v-524q0 -43 29.5 -68.5t68.5 -25.5v-125q-39 0 -68.5 -25.5t-29.5 -69.5v-520q0 -101 -57.5 -159t-174.5 -58v121z" />
<glyph unicode="~" d="M51 500q0 88 51.5 136t130.5 48q42 0 94.5 -26.5t99 -53t75.5 -26.5q34 0 51.5 22t17.5 57q0 4 -1 11.5t-1 11.5h111q6 -23 6 -62q-4 -75 -56 -119t-128 -44q-45 0 -135.5 54t-133.5 54q-28 0 -47.5 -25.5t-19.5 -56.5q0 -2 1 -7t1 -7h-113q-4 24 -4 33z" />
<glyph unicode="&#xa1;" horiz-adv-x="364" d="M100 1016q0 36 23 59t59 23q34 0 58 -23t24 -59q0 -35 -24 -58.5t-58 -23.5q-35 0 -58.5 23.5t-23.5 58.5zM115 -348v1093h135v-1093h-135z" />
<glyph unicode="&#xa2;" d="M125 389v655q0 90 49.5 150t128.5 78v182h131v-182q79 -18 127.5 -77t48.5 -151v-106h-135v106q0 47 -31.5 79t-74.5 32q-46 0 -77.5 -30.5t-31.5 -80.5v-655q0 -47 32 -78.5t77 -31.5t75.5 30t30.5 80v119h135v-119q0 -92 -49 -151.5t-127 -77.5v-180h-131v180 q-79 18 -128.5 77.5t-49.5 151.5z" />
<glyph unicode="&#xa3;" d="M61 0v127h123v518h-102v127h102v442q0 106 68.5 173t171.5 67q107 0 172.5 -64.5t65.5 -172.5v-152h-138v152q0 49 -29.5 79.5t-70.5 30.5q-46 0 -74 -30.5t-28 -82.5v-442h229v-127h-229v-518h352v-127h-613z" />
<glyph unicode="&#xa4;" d="M45 436l113 117q-33 56 -33 137q0 80 33 139l-113 119l86 84l111 -117q53 35 125 35q74 0 127 -35l110 117l84 -84l-113 -119q35 -62 35 -139q0 -81 -32 -135l110 -119l-84 -84l-112 115q-54 -31 -125 -31q-69 0 -123 31l-113 -115zM244 690q0 -60 34.5 -96.5t88.5 -36.5 q55 0 88.5 36.5t33.5 96.5q0 64 -33 101.5t-89 37.5q-55 0 -89 -37.5t-34 -101.5z" />
<glyph unicode="&#xa5;" d="M106 1020v414h138v-414q0 -84 32.5 -160t92.5 -164q41 63 63.5 103.5t42 101t19.5 119.5v414h137v-414q0 -77 -30.5 -161.5t-67 -142t-67 -107.5t-30.5 -66v-15h164v-120h-164v-97h164v-121h-164v-190h-137v190h-162v121h162v97h-162v120h162v15q0 14 -30 63.5t-66.5 107 t-66.5 143t-30 163.5z" />
<glyph unicode="&#xa6;" horiz-adv-x="358" d="M115 371h129v-768h-129v768zM115 788v768h129v-768h-129z" />
<glyph unicode="&#xa7;" horiz-adv-x="657" d="M86 -10v125h135v-125q0 -46 32 -76.5t75 -30.5q44 0 76 29.5t32 77.5v116q0 38 -19.5 67.5t-50 50t-68 40t-75 43.5t-68 53.5t-50 77t-19.5 107.5v119q0 47 15 85.5t38.5 63.5t42 38.5t37.5 22.5q-62 41 -97.5 94t-35.5 134v119q0 105 69 169t173 64t173.5 -63.5 t69.5 -169.5v-125h-135v125q0 44 -32.5 75t-75.5 31q-44 0 -75.5 -29t-31.5 -77v-119q0 -38 19.5 -67.5t50 -50t68 -40t75 -43t68 -53t50 -77t19.5 -107.5v-119q0 -45 -15 -83.5t-39 -64t-43 -39.5t-38 -24q63 -41 99 -93.5t36 -134.5v-116q0 -106 -70.5 -170t-172.5 -64 t-172 64t-70 170zM221 545q0 -48 26 -81t75 -63q13 4 29 13t37 25.5t34.5 44.5t13.5 61v119q0 48 -26 80t-76 65q-13 -4 -28.5 -13t-36.5 -25.5t-34.5 -44.5t-13.5 -62v-119z" />
<glyph unicode="&#xa8;" horiz-adv-x="520" d="M61 1360q0 37 22.5 60.5t59.5 23.5t59.5 -23.5t22.5 -60.5t-22.5 -60.5t-59.5 -23.5t-59.5 23.5t-22.5 60.5zM295 1360q0 37 22.5 60.5t59.5 23.5t59.5 -23.5t22.5 -60.5t-22.5 -60.5t-59.5 -23.5t-59.5 23.5t-22.5 60.5z" />
<glyph unicode="&#xa9;" horiz-adv-x="1482" d="M57 715q0 159 50.5 296t140 234.5t217.5 153t278 55.5q199 0 354.5 -95t241.5 -263.5t86 -380.5q0 -210 -86 -377.5t-242 -262.5t-354 -95q-200 0 -357 95t-243 262.5t-86 377.5zM182 715q0 -269 158 -444t403 -175q161 0 288 79.5t198 221t71 318.5q0 272 -156 447 t-401 175q-163 0 -291 -79.5t-199 -221.5t-71 -321zM510 444v547q0 109 68 170.5t170 61.5q100 0 164.5 -61.5t64.5 -170.5v-114h-127v114q0 53 -28 82t-74 29q-48 0 -79.5 -29.5t-31.5 -81.5v-547q0 -52 29 -82t77 -30q46 0 76.5 30.5t30.5 81.5v125h127v-125 q0 -107 -67 -169t-167 -62q-101 0 -167 62t-66 169z" />
<glyph unicode="&#xaa;" horiz-adv-x="436" d="M74 977v57q0 102 90 137l110 46v92q0 26 -15.5 41.5t-39.5 15.5q-25 0 -41 -15.5t-16 -41.5v-62h-88v62q0 64 40 103.5t105 39.5q62 0 102.5 -39.5t40.5 -103.5v-332q0 -63 -40.5 -105.5t-100.5 -42.5q-64 0 -105.5 42.5t-41.5 105.5zM80 692v80h274v-80h-274zM162 977 q0 -28 16.5 -45t42.5 -17q22 0 37.5 17.5t15.5 44.5v149l-73 -30q-39 -14 -39 -62v-57z" />
<glyph unicode="&#xab;" horiz-adv-x="796" d="M57 553l236 373h149l-237 -373l237 -375h-149zM354 553l236 373h149l-237 -373l237 -375h-149z" />
<glyph unicode="&#xac;" d="M70 504v123h598v-402h-129v279h-469z" />
<glyph unicode="&#xad;" horiz-adv-x="454" d="M57 506v127h340v-127h-340z" />
<glyph unicode="&#xae;" horiz-adv-x="1484" d="M57 715q0 159 51 296t140.5 234.5t218 153t278.5 55.5q199 0 354.5 -95t241.5 -263.5t86 -380.5q0 -210 -86 -377.5t-242 -262.5t-354 -95q-200 0 -357.5 95t-244 262.5t-86.5 377.5zM182 715q0 -177 72 -318.5t200.5 -221t290.5 -79.5q161 0 288.5 79.5t198.5 221 t71 318.5q0 272 -156.5 447t-401.5 175q-247 0 -405 -175t-158 -447zM524 219v1004h203q125 0 195.5 -62t70.5 -172v-135q0 -54 -23.5 -99.5t-62.5 -72.5q86 -62 86 -172v-281h-123v281q0 50 -36.5 81.5t-94.5 31.5h-88v-404h-127zM651 743h88q58 0 94.5 30.5t36.5 80.5v135 q0 52 -39 82.5t-104 30.5h-76v-359z" />
<glyph unicode="&#xaf;" horiz-adv-x="489" d="M61 1280v106h367v-106h-367z" />
<glyph unicode="&#xb0;" horiz-adv-x="466" d="M57 1272q0 80 47.5 131t128.5 51q79 0 128 -51.5t49 -130.5q0 -76 -49 -126t-128 -50q-81 0 -128.5 49.5t-47.5 126.5zM150 1272q0 -35 23 -60.5t60 -25.5q35 0 59.5 26t24.5 60q0 37 -24.5 64.5t-59.5 27.5q-37 0 -60 -27t-23 -65z" />
<glyph unicode="&#xb1;" d="M70 0v123h598v-123h-598zM70 526v123h233v283h129v-283h236v-123h-236v-284h-129v284h-233z" />
<glyph unicode="&#xb2;" horiz-adv-x="417" d="M59 1378v78q0 66 42 106t106 40q66 0 108.5 -40t42.5 -106v-47q0 -58 -29 -122.5t-64 -112.5t-64 -107t-29 -106h184v-101h-295v49q0 63 20 123.5t48.5 107.5t56.5 91t48 91t20 91v43q0 20 -13.5 32.5t-33.5 12.5q-19 0 -31 -12.5t-12 -32.5v-78h-105z" />
<glyph unicode="&#xb3;" horiz-adv-x="417" d="M59 995v74h105v-74q0 -20 13 -33.5t32 -13.5t32 13.5t13 33.5v135q0 20 -12 33t-31 13h-61v100h61q19 0 31 13t12 34v131q0 22 -12.5 34.5t-32.5 12.5t-32.5 -12.5t-12.5 -34.5v-72h-105v72q0 67 41.5 107.5t108.5 40.5q66 0 107.5 -40.5t41.5 -107.5v-131 q0 -35 -14.5 -61t-36.5 -37q21 -9 36 -35.5t15 -59.5v-135q0 -65 -42 -106t-107 -41q-67 0 -108.5 40.5t-41.5 106.5z" />
<glyph unicode="&#xb4;" horiz-adv-x="389" d="M61 1233l119 221h148l-152 -221h-115z" />
<glyph unicode="&#xb5;" horiz-adv-x="681" d="M98 -397v1482h135v-868q0 -50 32 -81.5t77 -31.5q46 0 76.5 30.5t30.5 82.5v868h135v-868q0 -49 20 -71t72 -19v-123q-20 -8 -45 -8q-92 0 -121 57q-23 -33 -69.5 -53t-98.5 -20q-30 0 -62 12.5t-47 32.5v-422h-135z" />
<glyph unicode="&#xb6;" horiz-adv-x="839" d="M49 1167q0 116 67 191.5t173 75.5h502v-123h-93v-1311h-131v1311h-147v-1311h-131v901q-107 0 -173.5 75t-66.5 191z" />
<glyph unicode="&#xb7;" horiz-adv-x="280" d="M57 575q0 37 23.5 60.5t60.5 23.5t60.5 -23.5t23.5 -60.5t-23.5 -60t-60.5 -23t-60.5 23t-23.5 60z" />
<glyph unicode="&#xb8;" horiz-adv-x="372" d="M61 -258l29 70q42 -23 76 -23q16 0 28.5 12t12.5 31q0 20 -12.5 31.5t-28.5 11.5h-43l-21 21l21 112h88l-8 -71q47 -2 77.5 -27.5t30.5 -81.5q0 -61 -40.5 -94t-96.5 -33q-60 0 -113 41z" />
<glyph unicode="&#xb9;" horiz-adv-x="348" d="M41 1366v100q45 14 84 50.5t55 72.5h90v-729h-104v572q-56 -56 -125 -66z" />
<glyph unicode="&#xba;" horiz-adv-x="436" d="M74 977v332q0 64 40 103.5t105 39.5q62 0 102.5 -39.5t40.5 -103.5v-332q0 -63 -40.5 -105.5t-100.5 -42.5q-64 0 -105.5 42.5t-41.5 105.5zM80 692v80h274v-80h-274zM162 977q0 -28 16.5 -45t42.5 -17q22 0 37.5 17.5t15.5 44.5v332q0 26 -15.5 41.5t-39.5 15.5 q-25 0 -41 -15.5t-16 -41.5v-332z" />
<glyph unicode="&#xbb;" horiz-adv-x="796" d="M57 178l238 375l-238 373h150l235 -373l-235 -375h-150zM354 178l238 375l-238 373h150l235 -373l-235 -375h-150z" />
<glyph unicode="&#xbc;" horiz-adv-x="1013" d="M78 1210v101q45 14 84 50.5t55 72.5h90v-729h-104v571q-56 -56 -125 -66zM139 0l627 1434h111l-627 -1434h-111zM637 127v70q0 85 52 259t52 273h105q0 -69 -16.5 -142.5t-36 -126t-36 -116.5t-16.5 -115h90v170h105v-399h-105v127h-194z" />
<glyph unicode="&#xbd;" horiz-adv-x="1026" d="M78 1210v101q45 14 84 50.5t55 72.5h90v-729h-104v571q-56 -56 -125 -66zM139 0l627 1434h111l-627 -1434h-111zM649 518v78q0 66 42 105.5t106 39.5q66 0 108.5 -39.5t42.5 -105.5v-47q0 -58 -29 -122.5t-64 -113t-64 -107.5t-29 -106h184v-100h-295v49q0 63 20 123.5 t48.5 107.5t56.5 91t48 91t20 91v43q0 20 -13.5 32.5t-33.5 12.5q-19 0 -31 -12.5t-12 -32.5v-78h-105z" />
<glyph unicode="&#xbe;" horiz-adv-x="1007" d="M78 836v73h104v-73q0 -20 13 -34t32 -14t32 14t13 34v135q0 20 -12 32.5t-31 12.5h-61v100h61q19 0 31 13t12 34v131q0 22 -12.5 34.5t-32.5 12.5t-32.5 -12.5t-12.5 -34.5v-71h-104v71q0 67 41.5 107.5t107.5 40.5q67 0 108.5 -40.5t41.5 -107.5v-131q0 -35 -14.5 -61 t-36.5 -37q21 -9 36 -35t15 -59v-135q0 -65 -42.5 -106.5t-107.5 -41.5q-67 0 -108 41t-41 107zM170 0l627 1434h110l-626 -1434h-111zM631 127v70q0 85 52 259t52 273h105q0 -69 -16.5 -142.5t-36 -126t-36 -116.5t-16.5 -115h90v170h105v-399h-105v127h-194z" />
<glyph unicode="&#xbf;" horiz-adv-x="655" d="M66 -115v340q0 103 50 168t142 84v268h135v-385h-65q-60 0 -93.5 -36t-33.5 -99v-340q0 -60 34 -95.5t91 -35.5t91 35.5t34 95.5v135h135v-135q0 -117 -69 -185.5t-191 -68.5q-123 0 -191.5 68.5t-68.5 185.5zM244 1016q0 36 23 59t59 23q34 0 58 -23t24 -59 q0 -35 -24 -58.5t-58 -23.5q-35 0 -58.5 23.5t-23.5 58.5z" />
<glyph unicode="&#xc0;" d="M106 0v1196q0 118 73.5 188t189.5 70t189 -70t73 -188v-1196h-137v557h-250v-557h-138zM197 1741h149l117 -221h-115zM244 684h250v512q0 60 -34 95.5t-91 35.5t-91 -35.5t-34 -95.5v-512z" />
<glyph unicode="&#xc1;" d="M106 0v1196q0 118 73.5 188t189.5 70t189 -70t73 -188v-1196h-137v557h-250v-557h-138zM244 684h250v512q0 60 -34 95.5t-91 35.5t-91 -35.5t-34 -95.5v-512zM274 1520l119 221h148l-152 -221h-115z" />
<glyph unicode="&#xc2;" d="M106 0v1196q0 118 73.5 188t189.5 70t189 -70t73 -188v-1196h-137v557h-250v-557h-138zM180 1520l135 221h111l133 -221h-108l-80 118l-82 -118h-109zM244 684h250v512q0 60 -34 95.5t-91 35.5t-91 -35.5t-34 -95.5v-512z" />
<glyph unicode="&#xc3;" d="M106 0v1196q0 118 73.5 188t189.5 70t189 -70t73 -188v-1196h-137v557h-250v-557h-138zM156 1548q0 81 37 127.5t96 46.5q33 0 81 -37.5t79 -37.5q49 0 49 67h84q0 -83 -36 -129.5t-97 -46.5q-35 0 -82 37t-78 37q-21 0 -35 -17t-14 -47h-84zM244 684h250v512 q0 60 -34 95.5t-91 35.5t-91 -35.5t-34 -95.5v-512z" />
<glyph unicode="&#xc4;" d="M106 0v1196q0 118 73.5 188t189.5 70t189 -70t73 -188v-1196h-137v557h-250v-557h-138zM170 1647q0 37 22.5 60.5t59.5 23.5t59.5 -23.5t22.5 -60.5t-22.5 -60.5t-59.5 -23.5t-59.5 23.5t-22.5 60.5zM244 684h250v512q0 60 -34 95.5t-91 35.5t-91 -35.5t-34 -95.5v-512z M403 1647q0 37 22.5 60.5t59.5 23.5t59.5 -23.5t22.5 -60.5t-22.5 -60.5t-59.5 -23.5t-59.5 23.5t-22.5 60.5z" />
<glyph unicode="&#xc5;" d="M106 0v1196q0 118 73.5 188t189.5 70t189 -70t73 -188v-1196h-137v557h-250v-557h-138zM225 1638q0 64 41.5 103t102.5 39q62 0 103.5 -39t41.5 -103t-41.5 -103.5t-103.5 -39.5q-61 0 -102.5 40t-41.5 103zM244 684h250v512q0 60 -34 95.5t-91 35.5t-91 -35.5t-34 -95.5 v-512zM309 1638q0 -27 18 -45t42 -18q26 0 42.5 17.5t16.5 45.5q0 29 -16.5 46.5t-42.5 17.5q-24 0 -42 -18t-18 -46z" />
<glyph unicode="&#xc6;" horiz-adv-x="991" d="M106 0v1176q0 120 69 189t194 69h565v-127h-295v-525h262v-127h-262v-528h295v-127h-432v655h-258v-655h-138zM244 782h258v525h-133q-57 0 -91 -35t-34 -96v-394z" />
<glyph unicode="&#xc7;" horiz-adv-x="700" d="M106 240v956q0 118 73 188t190 70q116 0 189 -70t73 -188v-131h-137v131q0 60 -34 95.5t-91 35.5t-91 -35.5t-34 -95.5v-956q0 -61 34.5 -97.5t90.5 -36.5q58 0 91.5 36t33.5 98v135h137v-135q0 -113 -67 -182.5t-175 -75.5l-4 -45q47 -2 78 -28t31 -81q0 -61 -41 -94 t-97 -33q-59 0 -112 41l28 70q42 -23 76 -23q16 0 28.5 12t12.5 31q0 20 -12.5 31.5t-28.5 11.5h-43l-20 21l16 90q-89 19 -142 86t-53 168z" />
<glyph unicode="&#xc8;" horiz-adv-x="591" d="M106 0v1434h429v-127h-291v-525h260v-127h-260v-528h291v-127h-429zM154 1741h149l117 -221h-115z" />
<glyph unicode="&#xc9;" horiz-adv-x="591" d="M106 0v1434h429v-127h-291v-525h260v-127h-260v-528h291v-127h-429zM231 1520l119 221h148l-152 -221h-115z" />
<glyph unicode="&#xca;" horiz-adv-x="591" d="M106 0v1434h429v-127h-291v-525h260v-127h-260v-528h291v-127h-429zM137 1520l135 221h111l133 -221h-108l-80 118l-82 -118h-109z" />
<glyph unicode="&#xcb;" horiz-adv-x="591" d="M106 0v1434h429v-127h-291v-525h260v-127h-260v-528h291v-127h-429zM127 1647q0 37 22.5 60.5t59.5 23.5t59.5 -23.5t22.5 -60.5t-22.5 -60.5t-59.5 -23.5t-59.5 23.5t-22.5 60.5zM360 1647q0 37 22.5 60.5t59.5 23.5t59.5 -23.5t22.5 -60.5t-22.5 -60.5t-59.5 -23.5 t-59.5 23.5t-22.5 60.5z" />
<glyph unicode="&#xcc;" horiz-adv-x="366" d="M12 1741h150l117 -221h-115zM115 0v1434h137v-1434h-137z" />
<glyph unicode="&#xcd;" horiz-adv-x="366" d="M90 1520l119 221h147l-151 -221h-115zM115 0v1434h137v-1434h-137z" />
<glyph unicode="&#xce;" horiz-adv-x="366" d="M-4 1520l135 221h111l133 -221h-109l-80 118l-82 -118h-108zM115 0v1434h137v-1434h-137z" />
<glyph unicode="&#xcf;" horiz-adv-x="366" d="M-14 1647q0 37 22.5 60.5t59.5 23.5t59.5 -23.5t22.5 -60.5t-22.5 -60.5t-59.5 -23.5t-59.5 23.5t-22.5 60.5zM115 0v1434h137v-1434h-137zM219 1647q0 37 22.5 60.5t59.5 23.5t59.5 -23.5t22.5 -60.5t-22.5 -60.5t-59.5 -23.5t-59.5 23.5t-22.5 60.5z" />
<glyph unicode="&#xd0;" d="M37 653v127h69v654h263q119 0 190.5 -69.5t71.5 -188.5v-916q0 -121 -71.5 -190.5t-190.5 -69.5h-263v653h-69zM244 127h125q56 0 90.5 36t34.5 97v916q0 60 -34 95.5t-91 35.5h-125v-527h135v-127h-135v-526z" />
<glyph unicode="&#xd1;" d="M106 0v1196q0 118 73 188t190 70q116 0 189 -70t73 -188v-1196h-137v1196q0 60 -34 95.5t-91 35.5t-91 -35.5t-34 -95.5v-1196h-138zM156 1548q0 81 37 127.5t96 46.5q33 0 81 -37.5t79 -37.5q49 0 49 67h84q0 -83 -36 -129.5t-97 -46.5q-35 0 -82 37t-78 37 q-21 0 -35 -17t-14 -47h-84z" />
<glyph unicode="&#xd2;" d="M106 240v956q0 118 73 188t190 70q116 0 189 -70t73 -188v-956q0 -120 -73 -190t-189 -70q-117 0 -190 70t-73 190zM197 1741h149l117 -221h-115zM244 240q0 -61 34 -97.5t91 -36.5t91 36.5t34 97.5v956q0 60 -34 95.5t-91 35.5t-91 -35.5t-34 -95.5v-956z" />
<glyph unicode="&#xd3;" d="M106 240v956q0 118 73 188t190 70q116 0 189 -70t73 -188v-956q0 -120 -73 -190t-189 -70q-117 0 -190 70t-73 190zM244 240q0 -61 34 -97.5t91 -36.5t91 36.5t34 97.5v956q0 60 -34 95.5t-91 35.5t-91 -35.5t-34 -95.5v-956zM274 1520l119 221h148l-152 -221h-115z" />
<glyph unicode="&#xd4;" d="M106 240v956q0 118 73 188t190 70q116 0 189 -70t73 -188v-956q0 -120 -73 -190t-189 -70q-117 0 -190 70t-73 190zM180 1520l135 221h111l133 -221h-108l-80 118l-82 -118h-109zM244 240q0 -61 34 -97.5t91 -36.5t91 36.5t34 97.5v956q0 60 -34 95.5t-91 35.5t-91 -35.5 t-34 -95.5v-956z" />
<glyph unicode="&#xd5;" d="M106 240v956q0 118 73 188t190 70q116 0 189 -70t73 -188v-956q0 -120 -73 -190t-189 -70q-117 0 -190 70t-73 190zM156 1548q0 81 37 127.5t96 46.5q33 0 81 -37.5t79 -37.5q49 0 49 67h84q0 -83 -36 -129.5t-97 -46.5q-35 0 -82 37t-78 37q-21 0 -35 -17t-14 -47h-84z M244 240q0 -61 34 -97.5t91 -36.5t91 36.5t34 97.5v956q0 60 -34 95.5t-91 35.5t-91 -35.5t-34 -95.5v-956z" />
<glyph unicode="&#xd6;" d="M106 240v956q0 118 73 188t190 70q116 0 189 -70t73 -188v-956q0 -120 -73 -190t-189 -70q-117 0 -190 70t-73 190zM170 1647q0 37 22.5 60.5t59.5 23.5t59.5 -23.5t22.5 -60.5t-22.5 -60.5t-59.5 -23.5t-59.5 23.5t-22.5 60.5zM244 240q0 -61 34 -97.5t91 -36.5t91 36.5 t34 97.5v956q0 60 -34 95.5t-91 35.5t-91 -35.5t-34 -95.5v-956zM403 1647q0 37 22.5 60.5t59.5 23.5t59.5 -23.5t22.5 -60.5t-22.5 -60.5t-59.5 -23.5t-59.5 23.5t-22.5 60.5z" />
<glyph unicode="&#xd7;" d="M63 334l222 237l-222 238l91 84l215 -231l215 231l90 -84l-221 -238l221 -237l-90 -84l-215 231l-215 -231z" />
<glyph unicode="&#xd8;" d="M106 240v956q0 118 73 188t190 70q74 0 131 -31l22 90l78 -20l-31 -123q62 -68 62 -174v-956q0 -120 -73 -190t-189 -70q-75 0 -133 28l-23 -92l-76 21l31 124q-62 68 -62 179zM244 371l221 913q-32 43 -96 43q-57 0 -91 -35.5t-34 -95.5v-825zM270 150q30 -44 99 -44 q57 0 91 36.5t34 97.5v819z" />
<glyph unicode="&#xd9;" d="M106 240v1194h138v-1194q0 -61 34.5 -97.5t90.5 -36.5q58 0 91.5 36t33.5 98v1194h137v-1194q0 -120 -72.5 -190t-189.5 -70t-190 70t-73 190zM197 1741h149l117 -221h-115z" />
<glyph unicode="&#xda;" d="M106 240v1194h138v-1194q0 -61 34.5 -97.5t90.5 -36.5q58 0 91.5 36t33.5 98v1194h137v-1194q0 -120 -72.5 -190t-189.5 -70t-190 70t-73 190zM274 1520l119 221h148l-152 -221h-115z" />
<glyph unicode="&#xdb;" d="M106 240v1194h138v-1194q0 -61 34.5 -97.5t90.5 -36.5q58 0 91.5 36t33.5 98v1194h137v-1194q0 -120 -72.5 -190t-189.5 -70t-190 70t-73 190zM180 1520l135 221h111l133 -221h-108l-80 118l-82 -118h-109z" />
<glyph unicode="&#xdc;" d="M106 240v1194h138v-1194q0 -61 34.5 -97.5t90.5 -36.5q58 0 91.5 36t33.5 98v1194h137v-1194q0 -120 -72.5 -190t-189.5 -70t-190 70t-73 190zM170 1647q0 37 22.5 60.5t59.5 23.5t59.5 -23.5t22.5 -60.5t-22.5 -60.5t-59.5 -23.5t-59.5 23.5t-22.5 60.5zM403 1647 q0 37 22.5 60.5t59.5 23.5t59.5 -23.5t22.5 -60.5t-22.5 -60.5t-59.5 -23.5t-59.5 23.5t-22.5 60.5z" />
<glyph unicode="&#xdd;" horiz-adv-x="704" d="M90 1018v416h137v-416q0 -84 32.5 -161t92.5 -165q62 95 93.5 168.5t31.5 157.5v416h137v-416q0 -77 -30.5 -161t-66.5 -141t-66.5 -108.5t-30.5 -70.5v-537h-137v537q0 16 -20 51t-48.5 80.5t-56.5 98.5t-48 120t-20 131zM258 1520l119 221h147l-151 -221h-115z" />
<glyph unicode="&#xde;" horiz-adv-x="704" d="M102 0v1434h138v-299h125q124 0 193 -70.5t69 -190.5v-313q0 -124 -68.5 -194t-193.5 -70h-125v-297h-138zM240 424h125q60 0 92 36t32 101v313q0 62 -32.5 98t-91.5 36h-125v-584z" />
<glyph unicode="&#xdf;" horiz-adv-x="733" d="M106 0v1198q0 116 74 186t189 70q117 0 189.5 -70t72.5 -186v-280q0 -63 -34 -121.5t-79 -77.5q46 -19 79.5 -74t33.5 -119v-268q0 -118 -72 -188t-190 -70h-47v125h47q59 0 92 35.5t33 97.5v268q0 53 -36 91t-91 38h-39v127h39q61 0 94 36t33 100v280q0 56 -36 92.5 t-89 36.5q-57 0 -91 -34.5t-34 -94.5v-1198h-138z" />
<glyph unicode="&#xe0;" horiz-adv-x="669" d="M86 213v152q0 82 42.5 139.5t109.5 87.5l198 90v188q0 50 -30.5 80.5t-77.5 30.5q-45 0 -76 -30.5t-31 -80.5v-106h-135v106q0 110 69.5 173t172.5 63t173 -63t70 -173v-657q0 -109 -70 -171t-173 -62t-172.5 61.5t-69.5 171.5zM156 1454h149l117 -221h-115zM221 213 q0 -48 31 -78.5t76 -30.5q47 0 77.5 30t30.5 79v330l-141 -66q-74 -32 -74 -112v-152z" />
<glyph unicode="&#xe1;" horiz-adv-x="669" d="M86 213v152q0 82 42.5 139.5t109.5 87.5l198 90v188q0 50 -30.5 80.5t-77.5 30.5q-45 0 -76 -30.5t-31 -80.5v-106h-135v106q0 110 69.5 173t172.5 63t173 -63t70 -173v-657q0 -109 -70 -171t-173 -62t-172.5 61.5t-69.5 171.5zM221 213q0 -48 31 -78.5t76 -30.5 q47 0 77.5 30t30.5 79v330l-141 -66q-74 -32 -74 -112v-152zM233 1233l119 221h148l-152 -221h-115z" />
<glyph unicode="&#xe2;" horiz-adv-x="669" d="M86 213v152q0 82 42.5 139.5t109.5 87.5l198 90v188q0 50 -30.5 80.5t-77.5 30.5q-45 0 -76 -30.5t-31 -80.5v-106h-135v106q0 110 69.5 173t172.5 63t173 -63t70 -173v-657q0 -109 -70 -171t-173 -62t-172.5 61.5t-69.5 171.5zM139 1233l135 221h111l133 -221h-108 l-80 119l-82 -119h-109zM221 213q0 -48 31 -78.5t76 -30.5q47 0 77.5 30t30.5 79v330l-141 -66q-74 -32 -74 -112v-152z" />
<glyph unicode="&#xe3;" horiz-adv-x="669" d="M86 213v152q0 82 42.5 139.5t109.5 87.5l198 90v188q0 50 -30.5 80.5t-77.5 30.5q-45 0 -76 -30.5t-31 -80.5v-106h-135v106q0 110 69.5 173t172.5 63t173 -63t70 -173v-657q0 -109 -70 -171t-173 -62t-172.5 61.5t-69.5 171.5zM115 1262q0 81 37 127.5t96 46.5 q33 0 81 -38t79 -38q49 0 49 67h84q0 -83 -36 -129.5t-97 -46.5q-35 0 -82 37t-78 37q-21 0 -35 -16.5t-14 -46.5h-84zM221 213q0 -48 31 -78.5t76 -30.5q47 0 77.5 30t30.5 79v330l-141 -66q-74 -32 -74 -112v-152z" />
<glyph unicode="&#xe4;" horiz-adv-x="669" d="M86 213v152q0 82 42.5 139.5t109.5 87.5l198 90v188q0 50 -30.5 80.5t-77.5 30.5q-45 0 -76 -30.5t-31 -80.5v-106h-135v106q0 110 69.5 173t172.5 63t173 -63t70 -173v-657q0 -109 -70 -171t-173 -62t-172.5 61.5t-69.5 171.5zM129 1360q0 37 22.5 60.5t59.5 23.5 t59.5 -23.5t22.5 -60.5t-22.5 -60.5t-59.5 -23.5t-59.5 23.5t-22.5 60.5zM221 213q0 -48 31 -78.5t76 -30.5q47 0 77.5 30t30.5 79v330l-141 -66q-74 -32 -74 -112v-152zM362 1360q0 37 22.5 60.5t59.5 23.5t59.5 -23.5t22.5 -60.5t-22.5 -60.5t-59.5 -23.5t-59.5 23.5 t-22.5 60.5z" />
<glyph unicode="&#xe5;" horiz-adv-x="669" d="M86 213v152q0 82 42.5 139.5t109.5 87.5l198 90v188q0 50 -30.5 80.5t-77.5 30.5q-45 0 -76 -30.5t-31 -80.5v-106h-135v106q0 110 69.5 173t172.5 63t173 -63t70 -173v-657q0 -109 -70 -171t-173 -62t-172.5 61.5t-69.5 171.5zM184 1352q0 64 41.5 102.5t102.5 38.5 q62 0 103.5 -38.5t41.5 -102.5t-41.5 -104t-103.5 -40q-61 0 -102.5 40.5t-41.5 103.5zM221 213q0 -48 31 -78.5t76 -30.5q47 0 77.5 30t30.5 79v330l-141 -66q-74 -32 -74 -112v-152zM268 1352q0 -27 18 -45.5t42 -18.5q26 0 42.5 18t16.5 46q0 29 -16 46t-43 17 q-24 0 -42 -17.5t-18 -45.5z" />
<glyph unicode="&#xe6;" horiz-adv-x="999" d="M86 209v110q0 162 158 220l188 67v268q0 50 -30 78.5t-76 28.5q-47 0 -76 -28.5t-29 -78.5v-110h-135v110q0 110 67.5 171t172.5 61q54 0 102.5 -24.5t71.5 -63.5q22 38 70 63t102 25q104 0 172.5 -61t68.5 -171v-108q0 -65 -25 -101.5t-83 -58.5l-238 -88v-307 q0 -50 29 -78.5t76 -28.5q46 0 76 28.5t30 78.5v123h135v-123q0 -110 -68 -170.5t-173 -60.5q-54 0 -102 25t-70 61q-22 -36 -70.5 -61t-101.5 -25q-107 0 -174.5 60t-67.5 169zM221 209q0 -49 29.5 -77t77.5 -28q45 0 74.5 28t29.5 79v262l-133 -49q-34 -13 -56 -39.5 t-22 -65.5v-110zM567 651l183 68q28 11 28 47v108q0 50 -30 78.5t-76 28.5q-47 0 -76 -28.5t-29 -78.5v-223z" />
<glyph unicode="&#xe7;" horiz-adv-x="641" d="M98 213v657q0 110 70 173t172 63q104 0 174 -63t70 -173v-106h-135v106q0 50 -31 80.5t-78 30.5q-45 0 -76 -30.5t-31 -80.5v-657q0 -48 31 -78.5t76 -30.5q47 0 78 30t31 79v121h135v-121q0 -103 -62.5 -164t-159.5 -67l-4 -45q47 -2 78 -28t31 -81q0 -61 -40.5 -94 t-96.5 -33q-60 0 -113 41l29 70q42 -23 76 -23q16 0 28 12t12 31q0 20 -12 31.5t-28 11.5h-43l-21 21l16 92q-79 18 -127.5 76.5t-48.5 148.5z" />
<glyph unicode="&#xe8;" horiz-adv-x="669" d="M98 213v657q0 110 69.5 173t172.5 63q104 0 174 -63t70 -173v-163q0 -62 -22 -92t-79 -58l-250 -125v-219q0 -45 32 -77t75 -32q47 0 78 30t31 79v121h135v-121q0 -110 -69.5 -171.5t-174.5 -61.5q-103 0 -172.5 61.5t-69.5 171.5zM168 1454h149l117 -221h-115zM233 578 l193 92q23 12 23 37v163q0 50 -31 80.5t-78 30.5q-45 0 -76 -30.5t-31 -80.5v-292z" />
<glyph unicode="&#xe9;" horiz-adv-x="669" d="M98 213v657q0 110 69.5 173t172.5 63q104 0 174 -63t70 -173v-163q0 -62 -22 -92t-79 -58l-250 -125v-219q0 -45 32 -77t75 -32q47 0 78 30t31 79v121h135v-121q0 -110 -69.5 -171.5t-174.5 -61.5q-103 0 -172.5 61.5t-69.5 171.5zM233 578l193 92q23 12 23 37v163 q0 50 -31 80.5t-78 30.5q-45 0 -76 -30.5t-31 -80.5v-292zM246 1233l119 221h147l-152 -221h-114z" />
<glyph unicode="&#xea;" horiz-adv-x="669" d="M98 213v657q0 110 69.5 173t172.5 63q104 0 174 -63t70 -173v-163q0 -62 -22 -92t-79 -58l-250 -125v-219q0 -45 32 -77t75 -32q47 0 78 30t31 79v121h135v-121q0 -110 -69.5 -171.5t-174.5 -61.5q-103 0 -172.5 61.5t-69.5 171.5zM152 1233l135 221h110l133 -221h-108 l-80 119l-82 -119h-108zM233 578l193 92q23 12 23 37v163q0 50 -31 80.5t-78 30.5q-45 0 -76 -30.5t-31 -80.5v-292z" />
<glyph unicode="&#xeb;" horiz-adv-x="669" d="M98 213v657q0 110 69.5 173t172.5 63q104 0 174 -63t70 -173v-163q0 -62 -22 -92t-79 -58l-250 -125v-219q0 -45 32 -77t75 -32q47 0 78 30t31 79v121h135v-121q0 -110 -69.5 -171.5t-174.5 -61.5q-103 0 -172.5 61.5t-69.5 171.5zM141 1360q0 37 22.5 60.5t59.5 23.5 t59.5 -23.5t22.5 -60.5t-22.5 -60.5t-59.5 -23.5t-59.5 23.5t-22.5 60.5zM233 578l193 92q23 12 23 37v163q0 50 -31 80.5t-78 30.5q-45 0 -76 -30.5t-31 -80.5v-292zM375 1360q0 37 22.5 60.5t59.5 23.5t59.5 -23.5t22.5 -60.5t-22.5 -60.5t-59.5 -23.5t-59.5 23.5 t-22.5 60.5z" />
<glyph unicode="&#xec;" horiz-adv-x="364" d="M10 1454h150l116 -221h-114zM115 0v1085h135v-1085h-135z" />
<glyph unicode="&#xed;" horiz-adv-x="364" d="M88 1233l119 221h147l-151 -221h-115zM115 0v1085h135v-1085h-135z" />
<glyph unicode="&#xee;" horiz-adv-x="364" d="M-6 1233l135 221h111l133 -221h-109l-80 119l-82 -119h-108zM115 0v1085h135v-1085h-135z" />
<glyph unicode="&#xef;" horiz-adv-x="364" d="M-16 1360q0 37 22.5 60.5t59.5 23.5q36 0 58.5 -23.5t22.5 -60.5t-22.5 -60.5t-58.5 -23.5q-37 0 -59.5 23.5t-22.5 60.5zM115 0v1085h135v-1085h-135zM217 1360q0 37 22.5 60.5t59.5 23.5t59.5 -23.5t22.5 -60.5t-22.5 -60.5t-59.5 -23.5t-59.5 23.5t-22.5 60.5z" />
<glyph unicode="&#xf0;" horiz-adv-x="681" d="M98 213v657q0 110 70 173t172 63q60 0 109 -49v59q0 61 -23 115l-107 -60q-2 5 -14.5 29.5t-19.5 36.5l100 55q-40 37 -92 37q-33 0 -98 -10v121q49 14 98 14q130 0 211 -94l100 53l33 -67l-92 -50q39 -80 39 -180v-903q0 -108 -71 -170.5t-173 -62.5t-172 62t-70 171z M233 213q0 -48 31 -78.5t76 -30.5q47 0 78 30t31 79v657q0 50 -31 80.5t-78 30.5q-45 0 -76 -30.5t-31 -80.5v-657z" />
<glyph unicode="&#xf1;" horiz-adv-x="681" d="M98 0v870q0 110 69.5 173t172.5 63t173.5 -63t70.5 -173v-870h-135v870q0 50 -31.5 80.5t-77.5 30.5q-45 0 -76 -30.5t-31 -80.5v-870h-135zM127 1262q0 81 37 127.5t96 46.5q33 0 81 -38t79 -38q49 0 49 67h84q0 -83 -36 -129.5t-97 -46.5q-35 0 -82 37t-78 37 q-21 0 -35 -16.5t-14 -46.5h-84z" />
<glyph unicode="&#xf2;" horiz-adv-x="681" d="M98 213v657q0 110 69.5 173t172.5 63t173.5 -63t70.5 -173v-657q0 -109 -70.5 -171t-173.5 -62t-172.5 61.5t-69.5 171.5zM168 1454h149l117 -221h-115zM233 213q0 -48 31 -78.5t76 -30.5q47 0 78 30t31 79v657q0 50 -31 80.5t-78 30.5q-45 0 -76 -30.5t-31 -80.5v-657z " />
<glyph unicode="&#xf3;" horiz-adv-x="681" d="M98 213v657q0 110 69.5 173t172.5 63t173.5 -63t70.5 -173v-657q0 -109 -70.5 -171t-173.5 -62t-172.5 61.5t-69.5 171.5zM233 213q0 -48 31 -78.5t76 -30.5q47 0 78 30t31 79v657q0 50 -31 80.5t-78 30.5q-45 0 -76 -30.5t-31 -80.5v-657zM246 1233l119 221h147 l-152 -221h-114z" />
<glyph unicode="&#xf4;" horiz-adv-x="681" d="M98 213v657q0 110 69.5 173t172.5 63t173.5 -63t70.5 -173v-657q0 -109 -70.5 -171t-173.5 -62t-172.5 61.5t-69.5 171.5zM152 1233l135 221h110l133 -221h-108l-80 119l-82 -119h-108zM233 213q0 -48 31 -78.5t76 -30.5q47 0 78 30t31 79v657q0 50 -31 80.5t-78 30.5 q-45 0 -76 -30.5t-31 -80.5v-657z" />
<glyph unicode="&#xf5;" horiz-adv-x="681" d="M98 213v657q0 110 69.5 173t172.5 63t173.5 -63t70.5 -173v-657q0 -109 -70.5 -171t-173.5 -62t-172.5 61.5t-69.5 171.5zM127 1262q0 81 37 127.5t96 46.5q33 0 81 -38t79 -38q49 0 49 67h84q0 -83 -36 -129.5t-97 -46.5q-35 0 -82 37t-78 37q-21 0 -35 -16.5t-14 -46.5 h-84zM233 213q0 -48 31 -78.5t76 -30.5q47 0 78 30t31 79v657q0 50 -31 80.5t-78 30.5q-45 0 -76 -30.5t-31 -80.5v-657z" />
<glyph unicode="&#xf6;" horiz-adv-x="681" d="M98 213v657q0 110 69.5 173t172.5 63t173.5 -63t70.5 -173v-657q0 -109 -70.5 -171t-173.5 -62t-172.5 61.5t-69.5 171.5zM141 1360q0 37 22.5 60.5t59.5 23.5t59.5 -23.5t22.5 -60.5t-22.5 -60.5t-59.5 -23.5t-59.5 23.5t-22.5 60.5zM233 213q0 -48 31 -78.5t76 -30.5 q47 0 78 30t31 79v657q0 50 -31 80.5t-78 30.5q-45 0 -76 -30.5t-31 -80.5v-657zM375 1360q0 37 22.5 60.5t59.5 23.5t59.5 -23.5t22.5 -60.5t-22.5 -60.5t-59.5 -23.5t-59.5 23.5t-22.5 60.5z" />
<glyph unicode="&#xf7;" d="M70 504v123h598v-123h-598zM305 213v139h129v-139h-129zM305 788v140h129v-140h-129z" />
<glyph unicode="&#xf8;" horiz-adv-x="681" d="M98 213v657q0 110 69.5 173t172.5 63q54 0 104 -21l23 84l76 -24l-29 -105q70 -63 70 -170v-657q0 -109 -70.5 -171t-173.5 -62q-49 0 -104 20l-21 -84l-76 23l27 102q-68 65 -68 172zM233 291l177 665q-28 25 -70 25q-45 0 -76 -30.5t-31 -80.5v-579zM270 127 q30 -23 70 -23q47 0 78 30t31 79v578z" />
<glyph unicode="&#xf9;" horiz-adv-x="681" d="M98 213v872h135v-872q0 -48 31 -78.5t76 -30.5q47 0 78 30t31 79v872h135v-872q0 -109 -70.5 -171t-173.5 -62t-172.5 61.5t-69.5 171.5zM168 1454h149l117 -221h-115z" />
<glyph unicode="&#xfa;" horiz-adv-x="681" d="M98 213v872h135v-872q0 -48 31 -78.5t76 -30.5q47 0 78 30t31 79v872h135v-872q0 -109 -70.5 -171t-173.5 -62t-172.5 61.5t-69.5 171.5zM246 1233l119 221h147l-152 -221h-114z" />
<glyph unicode="&#xfb;" horiz-adv-x="681" d="M98 213v872h135v-872q0 -48 31 -78.5t76 -30.5q47 0 78 30t31 79v872h135v-872q0 -109 -70.5 -171t-173.5 -62t-172.5 61.5t-69.5 171.5zM152 1233l135 221h110l133 -221h-108l-80 119l-82 -119h-108z" />
<glyph unicode="&#xfc;" horiz-adv-x="681" d="M98 213v872h135v-872q0 -48 31 -78.5t76 -30.5q47 0 78 30t31 79v872h135v-872q0 -109 -70.5 -171t-173.5 -62t-172.5 61.5t-69.5 171.5zM141 1360q0 37 22.5 60.5t59.5 23.5t59.5 -23.5t22.5 -60.5t-22.5 -60.5t-59.5 -23.5t-59.5 23.5t-22.5 60.5zM375 1360 q0 37 22.5 60.5t59.5 23.5t59.5 -23.5t22.5 -60.5t-22.5 -60.5t-59.5 -23.5t-59.5 23.5t-22.5 60.5z" />
<glyph unicode="&#xfd;" horiz-adv-x="681" d="M98 -178q0 106 121 184q-56 27 -88.5 80t-32.5 127v872h135v-872q0 -48 31 -78.5t76 -30.5q47 0 78 30t31 79v872h135v-1263q0 -109 -71.5 -170.5t-174.5 -61.5q-102 0 -171 62t-69 170zM233 -178q0 -47 28.5 -77t78.5 -30q44 0 76.5 29t32.5 78v207q-14 0 -48 -15 t-72 -39.5t-67 -66t-29 -86.5zM246 1233l119 221h147l-152 -221h-114z" />
<glyph unicode="&#xfe;" horiz-adv-x="673" d="M98 -397v1913h135v-457q41 47 103 47q102 0 170.5 -63t68.5 -173v-657q0 -110 -68 -171.5t-171 -61.5q-65 0 -103 45v-422h-135zM233 213q0 -49 29 -79t74 -30t74.5 30t29.5 79v657q0 50 -29.5 80.5t-74.5 30.5t-74 -30.5t-29 -80.5v-657z" />
<glyph unicode="&#xff;" horiz-adv-x="681" d="M98 -178q0 106 121 184q-56 27 -88.5 80t-32.5 127v872h135v-872q0 -48 31 -78.5t76 -30.5q47 0 78 30t31 79v872h135v-1263q0 -109 -71.5 -170.5t-174.5 -61.5q-102 0 -171 62t-69 170zM141 1360q0 37 22.5 60.5t59.5 23.5t59.5 -23.5t22.5 -60.5t-22.5 -60.5 t-59.5 -23.5t-59.5 23.5t-22.5 60.5zM233 -178q0 -47 28.5 -77t78.5 -30q44 0 76.5 29t32.5 78v207q-14 0 -48 -15t-72 -39.5t-67 -66t-29 -86.5zM375 1360q0 37 22.5 60.5t59.5 23.5t59.5 -23.5t22.5 -60.5t-22.5 -60.5t-59.5 -23.5t-59.5 23.5t-22.5 60.5z" />
<glyph unicode="&#x152;" horiz-adv-x="980" d="M106 260v916q0 120 69 189t194 69h555v-127h-295v-525h262v-127h-262v-528h295v-127h-555q-123 0 -193 70t-70 190zM244 260q0 -62 33.5 -97.5t91.5 -35.5h123v1180h-123q-57 0 -91 -35t-34 -96v-916z" />
<glyph unicode="&#x153;" horiz-adv-x="1019" d="M98 213v657q0 110 69.5 173t172.5 63q52 0 101 -25t75 -61q26 36 75 61t101 25q103 0 172.5 -63t69.5 -173v-163q0 -62 -22 -93t-76 -57q-42 -22 -126 -63t-126 -62v-219q0 -44 32 -76.5t76 -32.5q45 0 76 30.5t31 78.5v121h135v-121q0 -110 -69.5 -171.5t-172.5 -61.5 q-52 0 -103 24.5t-75 58.5q-22 -33 -72.5 -58t-101.5 -25q-103 0 -172.5 61.5t-69.5 171.5zM233 213q0 -48 31 -78.5t76 -30.5q47 0 78 30t31 79v657q0 50 -31 80.5t-78 30.5q-45 0 -76 -30.5t-31 -80.5v-657zM584 578l192 92q23 10 23 37v163q0 50 -31 80.5t-76 30.5 q-46 0 -77 -30.5t-31 -80.5v-292z" />
<glyph unicode="&#x178;" horiz-adv-x="704" d="M90 1018v416h137v-416q0 -84 32.5 -161t92.5 -165q62 95 93.5 168.5t31.5 157.5v416h137v-416q0 -77 -30.5 -161t-66.5 -141t-66.5 -108.5t-30.5 -70.5v-537h-137v537q0 16 -20 51t-48.5 80.5t-56.5 98.5t-48 120t-20 131zM154 1647q0 37 22.5 60.5t59.5 23.5 q36 0 58.5 -23.5t22.5 -60.5t-22.5 -60.5t-58.5 -23.5q-37 0 -59.5 23.5t-22.5 60.5zM387 1647q0 37 22.5 60.5t59.5 23.5t59.5 -23.5t22.5 -60.5t-22.5 -60.5t-59.5 -23.5t-59.5 23.5t-22.5 60.5z" />
<glyph unicode="&#x2c6;" horiz-adv-x="501" d="M61 1233l136 221h110l133 -221h-108l-80 119l-82 -119h-109z" />
<glyph unicode="&#x2dc;" horiz-adv-x="548" d="M61 1262q0 80 37 127t97 47q33 0 80.5 -38t78.5 -38q49 0 49 67h84q0 -83 -36 -129.5t-97 -46.5q-35 0 -81.5 37t-77.5 37q-21 0 -35.5 -16.5t-14.5 -46.5h-84z" />
<glyph unicode="&#x2000;" horiz-adv-x="890" />
<glyph unicode="&#x2001;" horiz-adv-x="1780" />
<glyph unicode="&#x2002;" horiz-adv-x="890" />
<glyph unicode="&#x2003;" horiz-adv-x="1780" />
<glyph unicode="&#x2004;" horiz-adv-x="593" />
<glyph unicode="&#x2005;" horiz-adv-x="445" />
<glyph unicode="&#x2006;" horiz-adv-x="296" />
<glyph unicode="&#x2007;" horiz-adv-x="296" />
<glyph unicode="&#x2008;" horiz-adv-x="222" />
<glyph unicode="&#x2009;" horiz-adv-x="356" />
<glyph unicode="&#x200a;" horiz-adv-x="98" />
<glyph unicode="&#x2010;" horiz-adv-x="454" d="M57 506v127h340v-127h-340z" />
<glyph unicode="&#x2011;" horiz-adv-x="454" d="M57 506v127h340v-127h-340z" />
<glyph unicode="&#x2012;" horiz-adv-x="454" d="M57 506v127h340v-127h-340z" />
<glyph unicode="&#x2013;" horiz-adv-x="1024" d="M37 502v123h950v-123h-950z" />
<glyph unicode="&#x2014;" horiz-adv-x="2048" d="M37 502v123h1974v-123h-1974z" />
<glyph unicode="&#x2018;" horiz-adv-x="272" d="M57 1272q0 131 101 262l96 -25q-66 -105 -66 -231q0 -26 11 -94l-129 -19q-13 47 -13 107z" />
<glyph unicode="&#x2019;" horiz-adv-x="272" d="M18 1186q64 106 64 231q0 44 -8 96l127 19q12 -47 12 -109q0 -139 -100 -260z" />
<glyph unicode="&#x201a;" horiz-adv-x="272" d="M18 -203q64 106 64 232q0 44 -8 96l127 18q12 -46 12 -108q0 -139 -100 -260z" />
<glyph unicode="&#x201c;" horiz-adv-x="499" d="M57 1274q0 131 101 262l96 -25q-66 -105 -66 -231q0 -26 11 -94l-129 -19q-13 47 -13 107zM285 1274q0 132 100 262l96 -25q-65 -103 -65 -231q0 -32 10 -94l-129 -19q-12 43 -12 107z" />
<glyph unicode="&#x201d;" horiz-adv-x="499" d="M18 1188q64 106 64 231q0 45 -8 97l127 18q12 -46 12 -109q0 -139 -100 -260zM246 1188q63 105 63 231q0 45 -8 97l127 18q12 -46 12 -109q0 -139 -100 -260z" />
<glyph unicode="&#x201e;" horiz-adv-x="499" d="M18 -203q64 106 64 232q0 44 -8 96l127 18q12 -46 12 -108q0 -139 -100 -260zM246 -203q63 105 63 232q0 44 -8 96l127 18q12 -47 12 -108q0 -139 -100 -260z" />
<glyph unicode="&#x2022;" horiz-adv-x="514" d="M78 561q0 76 51 128t127 52t128 -52.5t52 -127.5q0 -74 -52 -127t-128 -53t-127 53t-51 127z" />
<glyph unicode="&#x2026;" horiz-adv-x="770" d="M57 68q0 36 23 59t59 23q34 0 58 -23t24 -59q0 -35 -24 -58.5t-58 -23.5q-35 0 -58.5 23.5t-23.5 58.5zM303 68q0 36 23 59t59 23q34 0 58 -23t24 -59q0 -35 -24 -58.5t-58 -23.5q-35 0 -58.5 23.5t-23.5 58.5zM549 68q0 36 23 59t59 23q34 0 58 -23t24 -59 q0 -35 -24 -58.5t-58 -23.5q-35 0 -58.5 23.5t-23.5 58.5z" />
<glyph unicode="&#x202f;" horiz-adv-x="356" />
<glyph unicode="&#x2039;" horiz-adv-x="499" d="M57 553l236 373h149l-237 -373l237 -375h-149z" />
<glyph unicode="&#x203a;" horiz-adv-x="499" d="M57 178l238 375l-238 373h150l235 -373l-235 -375h-150z" />
<glyph unicode="&#x205f;" horiz-adv-x="445" />
<glyph unicode="&#x20ac;" d="M55 772v121h109v303q0 118 73 188t189 70q117 0 189.5 -69.5t72.5 -188.5v-131h-137v131q0 60 -34 95.5t-91 35.5q-56 0 -90.5 -35.5t-34.5 -95.5v-303h246v-121h-246v-125h248v-121h-248v-286q0 -61 34.5 -97.5t90.5 -36.5q58 0 91.5 36t33.5 98v135h137v-135 q0 -120 -72.5 -190t-189.5 -70q-116 0 -189 70t-73 190v286h-107v121h107v125h-109z" />
<glyph unicode="&#x2122;" horiz-adv-x="700" d="M20 1360v74h236v-74h-78v-348h-78v348h-80zM291 1012v319q0 54 29.5 82.5t78.5 28.5q42 0 68 -29q26 29 68 29q48 0 78 -28.5t30 -82.5v-319h-78v319q0 17 -9 27t-21 10t-20.5 -10t-8.5 -27v-319h-78v319q0 17 -9 27t-22 10q-12 0 -20 -10t-8 -27v-319h-78z" />
<glyph unicode="&#x25fc;" horiz-adv-x="1085" d="M0 0v1085h1085v-1085h-1085z" />
</font>
</defs>
</svg>
