<?xml version="1.0" standalone="no"?>
<!DOCTYPE svg PUBLIC "-//W3C//DTD SVG 1.1//EN" "http://www.w3.org/Graphics/SVG/1.1/DTD/svg11.dtd" >
<svg xmlns="http://www.w3.org/2000/svg">
<metadata></metadata>
<defs>
<font id="andolight" horiz-adv-x="720" >
<font-face units-per-em="2048" ascent="1577" descent="-471" />
<missing-glyph horiz-adv-x="352" />
<glyph unicode="&#xfb01;" horiz-adv-x="739" d="M37 1026v59h139v230q0 93 63 153t154 60q93 0 154 -59t61 -152v-55h-63v55q0 65 -44.5 108t-107.5 43q-65 0 -109 -41.5t-44 -111.5v-230h368v-1085h-63v1026h-305v-1026h-64v1026h-139z" />
<glyph unicode="&#xfb02;" horiz-adv-x="735" d="M37 1026v59h123v226q0 93 62 149t157 56h225v-1516h-63v1456h-162q-65 0 -110.5 -41t-45.5 -104v-226h191v-59h-191v-1026h-63v1026h-123z" />
<glyph unicode="&#xfb03;" horiz-adv-x="1097" d="M37 1026v59h139v189q0 96 56.5 153.5t146.5 57.5q77 0 139 -51q-6 -8 -16 -25.5t-13 -22.5q-49 39 -110 39q-63 0 -101 -40t-38 -111v-189h295v230q0 93 63 153t154 60q93 0 154 -59t61 -152v-55h-64v55q0 65 -44 108t-107 43q-65 0 -109.5 -41.5t-44.5 -111.5v-230h369 v-1085h-64v1026h-305v-1026h-63v1026h-295v-1026h-64v1026h-139z" />
<glyph unicode="&#xfb04;" horiz-adv-x="1110" d="M37 1026v59h139v189q0 96 56.5 153.5t146.5 57.5q77 0 139 -51q-6 -8 -16 -25.5t-13 -22.5q-49 39 -110 39q-63 0 -101 -40t-38 -111v-189h295v226q0 93 62 149t157 56h225v-1516h-64v1456h-161q-65 0 -110.5 -41t-45.5 -104v-226h190v-59h-190v-1026h-63v1026h-295 v-1026h-64v1026h-139z" />
<glyph horiz-adv-x="0" />
<glyph horiz-adv-x="682" />
<glyph unicode=" "  horiz-adv-x="352" />
<glyph unicode="&#x09;" horiz-adv-x="352" />
<glyph unicode="&#xa0;" horiz-adv-x="352" />
<glyph unicode="!" horiz-adv-x="325" d="M117 35q0 22 12.5 34.5t32.5 12.5q22 0 34.5 -12.5t12.5 -34.5q0 -20 -12.5 -32.5t-34.5 -12.5q-20 0 -32.5 12.5t-12.5 32.5zM131 330v1104h64v-1104h-64z" />
<glyph unicode="&#x22;" horiz-adv-x="493" d="M115 1085v431h59v-431h-59zM319 1085v431h60v-431h-60z" />
<glyph unicode="#" d="M27 446v58h135l45 407h-141v58h147l51 465h62l-52 -465h226l53 465h61l-53 -465h129v-58h-135l-43 -407h141v-58h-147l-49 -446h-62l47 446h-225l-47 -446h-61l47 446h-129zM223 504h226l45 407h-226z" />
<glyph unicode="$" d="M123 260v107h63v-107q0 -84 47.5 -132t126.5 -48q82 0 128.5 47.5t46.5 132.5v162q0 49 -14 90.5t-38 71.5t-55 57t-65 50.5t-68 47.5t-65 53t-55 62t-38 78.5t-14 99.5v144q0 102 55 164t152 73v146h61v-146q96 -11 151.5 -73t55.5 -164v-109h-63v109q0 84 -46 132 t-129 48t-128.5 -48t-45.5 -132v-144q0 -48 14 -88.5t38 -70t55 -56t65 -49.5t68 -47t65 -53t55 -63t38 -80.5t14 -102.5v-162q0 -104 -55.5 -166.5t-151.5 -70.5v-146h-61v146q-97 8 -152 70.5t-55 166.5z" />
<glyph unicode="%" horiz-adv-x="995" d="M94 973v325q0 72 43.5 114t118.5 42t117.5 -42t42.5 -114v-325q0 -75 -42.5 -117.5t-117.5 -42.5t-118.5 42.5t-43.5 117.5zM150 973q0 -48 30.5 -77.5t75.5 -29.5q46 0 75 29t29 78v325q0 47 -29 75t-75 28q-45 0 -75.5 -28.5t-30.5 -74.5v-325zM156 0l630 1434h60 l-631 -1434h-59zM580 139v326q0 72 43 114t118 42t117.5 -42t42.5 -114v-326q0 -75 -42.5 -117t-117.5 -42t-118 42t-43 117zM635 139q0 -48 30 -77t76 -29q47 0 76 28.5t29 77.5v326q0 47 -29.5 74.5t-75.5 27.5q-45 0 -75.5 -28t-30.5 -74v-326z" />
<glyph unicode="&#x26;" horiz-adv-x="790" d="M123 217v344q0 74 33.5 128.5t89.5 76.5q-57 24 -90 78.5t-33 130.5v244q0 109 62.5 172t174.5 63t175 -63t63 -172v-119h-63v119q0 81 -47.5 128.5t-127.5 47.5t-127 -47.5t-47 -128.5v-244q0 -80 47 -129t125 -49h408v-60h-168v-518q0 -83 44 -128.5t124 -45.5v-57 q-76 2 -129.5 31.5t-71.5 84.5q-23 -59 -76.5 -91.5t-128.5 -32.5q-112 0 -174.5 63t-62.5 174zM186 217q0 -83 47 -130.5t127 -47.5q79 0 127 48t48 130v520h-177q-78 0 -125 -49t-47 -127v-344z" />
<glyph unicode="'" horiz-adv-x="288" d="M115 1085v431h59v-431h-59z" />
<glyph unicode="(" horiz-adv-x="387" d="M115 604q0 303 58.5 542t137.5 353h56q-73 -113 -131 -360t-58 -535q0 -289 58.5 -537.5t130.5 -357.5h-56q-79 114 -137.5 352.5t-58.5 542.5z" />
<glyph unicode=")" horiz-adv-x="387" d="M20 -291q73 109 131 357t58 538q0 288 -58 536t-131 359h56q79 -114 137.5 -353t58.5 -542t-58.5 -542t-137.5 -353h-56z" />
<glyph unicode="*" horiz-adv-x="360" d="M45 1323l109 51l-109 51l21 39l100 -67l-6 123h41l-6 -123l100 67l20 -39l-108 -51l108 -51l-20 -39l-100 68l6 -123h-41l6 123l-100 -68z" />
<glyph unicode="+" d="M78 541v57h254v307h57v-307h254v-57h-254v-308h-57v308h-254z" />
<glyph unicode="," horiz-adv-x="219" d="M27 -213q63 110 63 223q0 44 -10 86l61 6q11 -49 11 -90q0 -117 -78 -235z" />
<glyph unicode="-" horiz-adv-x="452" d="M66 541v59h321v-59h-321z" />
<glyph unicode="." horiz-adv-x="223" d="M66 39q0 20 12.5 32.5t32.5 12.5q22 0 34.5 -12.5t12.5 -32.5q0 -22 -12.5 -34.5t-34.5 -12.5q-20 0 -32.5 12.5t-12.5 34.5z" />
<glyph unicode="/" horiz-adv-x="620" d="M45 0l469 1434h61l-469 -1434h-61z" />
<glyph unicode="0" d="M123 217v1002q0 107 64 171t173 64q108 0 173 -64t65 -171v-1002q0 -110 -64.5 -173.5t-173.5 -63.5t-173 63.5t-64 173.5zM186 217q0 -82 47.5 -130t126.5 -48t127 48t48 130v1002q0 81 -48.5 128.5t-126.5 47.5t-126 -47.5t-48 -128.5v-1002z" />
<glyph unicode="1" horiz-adv-x="573" d="M78 1133v61q83 31 156 102t108 138h55v-1434h-63v1327q-118 -153 -256 -194z" />
<glyph unicode="2" horiz-adv-x="671" d="M86 0v39q0 115 42.5 235.5t103 222.5t121 201t103 204t42.5 198v117q0 83 -47 130.5t-127 47.5q-79 0 -126.5 -48t-47.5 -130v-117h-64v117q0 109 65 173t173 64t172.5 -63.5t64.5 -173.5v-117q0 -80 -30 -170t-75 -168.5t-98 -169t-98.5 -171.5t-77 -177.5t-32.5 -184.5 h411v-59h-475z" />
<glyph unicode="3" horiz-adv-x="684" d="M86 217v123h64v-123q0 -82 47.5 -130t126.5 -48q80 0 127 47.5t47 130.5v297q0 76 -49 127t-123 51h-101v60h101q78 0 125 49t47 129v289q0 79 -49 127.5t-125 48.5q-80 0 -127 -47.5t-47 -128.5v-119h-64v119q0 108 65 171.5t173 63.5t172.5 -63.5t64.5 -171.5v-289 q0 -75 -36 -132.5t-95 -76.5q58 -19 94.5 -76t36.5 -131v-297q0 -110 -64.5 -173.5t-172.5 -63.5t-173 64t-65 173z" />
<glyph unicode="4" horiz-adv-x="702" d="M96 295v57q0 91 39 228t85 261t85 289t39 304h64q0 -142 -39 -309t-85 -291t-85 -259t-39 -221h358v410h64v-764h-64v295h-422z" />
<glyph unicode="5" d="M123 215v125h63v-125q0 -81 47.5 -128.5t126.5 -47.5t127 47.5t48 128.5v385q0 79 -48 128.5t-125 49.5q-117 0 -176 -80h-59v736h465v-60h-402v-610q35 35 73 54.5t99 19.5q108 0 172 -65.5t64 -172.5v-385q0 -108 -64.5 -171.5t-173.5 -63.5t-173 63t-64 172z" />
<glyph unicode="6" d="M123 215v1002q0 109 64 173t173 64t173.5 -64t64.5 -173v-117h-63v117q0 82 -48 130t-127 48q-80 0 -127 -47.5t-47 -130.5v-476q24 43 70 69t104 26q110 0 174 -64.5t64 -173.5v-383q0 -108 -65 -171.5t-173 -63.5t-172.5 63.5t-64.5 171.5zM186 215q0 -81 48 -129.5 t126 -48.5q79 0 127 48.5t48 129.5v383q0 82 -48 130t-127 48q-80 0 -127 -47.5t-47 -130.5v-383z" />
<glyph unicode="7" horiz-adv-x="620" d="M53 1374v60h473q4 -16 4 -39q0 -152 -31 -298.5t-75 -267t-88.5 -242t-75.5 -274t-31 -313.5h-63q0 122 16.5 237.5t43.5 209t59 183.5t64.5 177t59 173t42.5 188t16 206h-414z" />
<glyph unicode="8" d="M123 217v244q0 91 47.5 149.5t136.5 114.5q-42 25 -70.5 47t-56.5 53.5t-42.5 73t-14.5 92.5v226q0 110 64 173.5t173 63.5q108 0 173 -64t65 -173v-226q0 -50 -14.5 -91.5t-44.5 -73.5t-57 -53t-70 -48q88 -55 137 -114t49 -150v-244q0 -110 -64.5 -173.5t-173.5 -63.5 t-173 63.5t-64 173.5zM186 217q0 -82 48 -130t126 -48q80 0 127.5 47.5t47.5 130.5v244q0 43 -13.5 77.5t-42 63t-54 47t-67.5 43.5q-41 -25 -66 -43.5t-52.5 -47t-40.5 -63t-13 -77.5v-244zM186 991q0 -79 44 -129.5t130 -103.5q42 26 67 45t53 48t41.5 63.5t13.5 76.5v226 q0 82 -48.5 130t-126.5 48t-126 -48t-48 -130v-226z" />
<glyph unicode="9" d="M123 217v123h63v-123q0 -82 48 -130t126 -48q79 0 127 48t48 130v473q-58 -88 -175 -88q-109 0 -173 64t-64 174v379q0 109 64 172t173 63t173.5 -63.5t64.5 -171.5v-1002q0 -109 -65 -173t-173 -64t-172.5 63.5t-64.5 173.5zM186 840q0 -83 47 -130.5t127 -47.5 q79 0 127 48t48 130v379q0 81 -48.5 128.5t-126.5 47.5q-80 0 -127 -47.5t-47 -128.5v-379z" />
<glyph unicode=":" horiz-adv-x="223" d="M66 238q0 20 12.5 32.5t32.5 12.5q22 0 34.5 -12.5t12.5 -32.5q0 -22 -12.5 -35t-34.5 -13q-20 0 -32.5 13t-12.5 35zM66 848q0 20 12.5 32.5t32.5 12.5q22 0 34.5 -12.5t12.5 -32.5q0 -22 -12.5 -34.5t-34.5 -12.5q-20 0 -32.5 12.5t-12.5 34.5z" />
<glyph unicode=";" horiz-adv-x="223" d="M27 -213q63 110 63 223q0 44 -10 86l61 6q11 -49 11 -90q0 -117 -78 -235zM66 848q0 20 12.5 32.5t32.5 12.5q22 0 34.5 -12.5t12.5 -32.5q0 -22 -12.5 -34.5t-34.5 -12.5q-20 0 -32.5 12.5t-12.5 34.5z" />
<glyph unicode="&#x3c;" d="M80 539v47l538 348v-66l-477 -307l477 -307v-66z" />
<glyph unicode="=" d="M76 406v57h565v-57h-565zM76 686v57h565v-57h-565z" />
<glyph unicode="&#x3e;" d="M90 188v66l477 307l-477 307v66l539 -348v-47z" />
<glyph unicode="?" horiz-adv-x="628" d="M74 1100v119q0 110 62 172.5t175 62.5q112 0 174 -62.5t62 -172.5v-342q0 -105 -56 -164t-159 -70v-313h-64v370h41q86 0 130 52t44 125v342q0 79 -47.5 127.5t-124.5 48.5q-79 0 -126.5 -47.5t-47.5 -128.5v-119h-63zM254 35q0 22 12.5 34.5t34.5 12.5q45 0 45 -47 q0 -21 -12 -33t-33 -12q-22 0 -34.5 12.5t-12.5 32.5z" />
<glyph unicode="@" horiz-adv-x="935" d="M123 43v1069q0 155 96 248.5t248 93.5q158 0 252 -92.5t94 -249.5v-913q0 -100 -64 -159.5t-161 -59.5q-98 0 -160.5 59t-62.5 162v567q0 102 64 164.5t161 62.5q59 0 106 -30v-60q-46 31 -106 31q-70 0 -117 -46t-47 -122v-567q0 -76 45.5 -120t116.5 -44q70 0 117 44.5 t47 117.5v913q0 129 -78.5 207t-206.5 78q-124 0 -203.5 -78.5t-79.5 -206.5v-1069q0 -149 96.5 -235.5t229.5 -86.5q59 0 116 16.5t93 41.5l20 -53q-105 -62 -229 -62q-104 0 -190.5 41.5t-141.5 129.5t-55 208z" />
<glyph unicode="A" d="M123 0v1217q0 110 64.5 173.5t172.5 63.5q109 0 173.5 -63.5t64.5 -173.5v-1217h-63v586h-349v-586h-63zM186 645h349v572q0 77 -49.5 127.5t-125.5 50.5q-78 0 -126 -48t-48 -130v-572z" />
<glyph unicode="B" horiz-adv-x="712" d="M123 0v1434h237q109 0 173.5 -63.5t64.5 -172.5v-268q0 -73 -38.5 -134.5t-98.5 -74.5q62 -13 99.5 -72.5t37.5 -134.5v-276q0 -110 -64.5 -174t-173.5 -64h-237zM186 57h174q78 0 126.5 50t48.5 131v276q0 80 -47 129t-123 49h-179v-635zM186 752h179q77 0 123.5 48.5 t46.5 129.5v266q0 83 -47.5 130.5t-127.5 47.5h-174v-622z" />
<glyph unicode="C" horiz-adv-x="684" d="M123 217v1002q0 107 64 171t173 64t173.5 -64t64.5 -171v-119h-63v119q0 77 -49.5 126.5t-125.5 49.5q-78 0 -126 -47.5t-48 -128.5v-1002q0 -80 50 -129t124 -49q82 0 128.5 47.5t46.5 130.5v123h63v-123q0 -110 -64.5 -173.5t-173.5 -63.5t-173 63.5t-64 173.5z" />
<glyph unicode="D" d="M123 0v1434h237q111 0 174.5 -64t63.5 -172v-960q0 -110 -64 -174t-174 -64h-237zM186 59h174q77 0 126 49t49 130v960q0 81 -48 128.5t-127 47.5h-174v-1315z" />
<glyph unicode="E" horiz-adv-x="581" d="M123 0v1434h393v-60h-330v-622h297v-60h-297v-633h330v-59h-393z" />
<glyph unicode="F" horiz-adv-x="569" d="M123 0v1434h393v-60h-330v-622h297v-60h-297v-692h-63z" />
<glyph unicode="G" d="M123 217v1002q0 107 64 171t173 64t173.5 -64t64.5 -171v-117h-63v117q0 81 -48.5 128.5t-126.5 47.5t-126 -47.5t-48 -128.5v-1002q0 -82 48 -130t126 -48q82 0 128.5 47.5t46.5 130.5v475h-166v60h229v-535q0 -110 -64.5 -173.5t-173.5 -63.5q-108 0 -172.5 63.5 t-64.5 173.5z" />
<glyph unicode="H" d="M123 0v1434h63v-682h349v682h63v-1434h-63v692h-349v-692h-63z" />
<glyph unicode="I" horiz-adv-x="325" d="M131 0v1434h64v-1434h-64z" />
<glyph unicode="J" horiz-adv-x="624" d="M70 199v145h63v-145q0 -72 41.5 -117t110.5 -45t111 45t42 117v1175h-332v60h396v-1235q0 -99 -60 -159t-157 -60q-96 0 -155.5 60t-59.5 159z" />
<glyph unicode="K" horiz-adv-x="714" d="M123 0v1434h63v-779l162 158q102 100 145.5 188t43.5 213v220h63v-220q0 -129 -42 -222.5t-124 -178.5l-55 -57q112 -100 166.5 -203t54.5 -254v-299h-63v299q0 70 -14.5 130t-45 111t-62 89t-79.5 86l-150 -140v-575h-63z" />
<glyph unicode="L" horiz-adv-x="538" d="M123 0v1434h63v-1375h316v-59h-379z" />
<glyph unicode="M" horiz-adv-x="1050" d="M123 0v1239q0 99 61.5 157t155.5 58q61 0 112 -30.5t72 -82.5q23 51 75 82t112 31q92 0 154.5 -58.5t62.5 -156.5v-1239h-64v1239q0 72 -43.5 114t-109.5 42t-110 -42t-44 -114v-1239h-63v1239q0 71 -44.5 113.5t-109.5 42.5q-66 0 -110 -42t-44 -114v-1239h-63z" />
<glyph unicode="N" d="M123 0v1217q0 110 64 173.5t173 63.5t173.5 -63.5t64.5 -173.5v-1217h-63v1217q0 82 -48 130t-127 48t-126.5 -48t-47.5 -130v-1217h-63z" />
<glyph unicode="O" d="M123 217v1002q0 107 64 171t173 64q108 0 173 -64t65 -171v-1002q0 -110 -64.5 -173.5t-173.5 -63.5t-173 63.5t-64 173.5zM186 217q0 -82 47.5 -130t126.5 -48t127 48t48 130v1002q0 81 -48.5 128.5t-126.5 47.5t-126 -47.5t-48 -128.5v-1002z" />
<glyph unicode="P" horiz-adv-x="692" d="M123 0v1434h237q108 0 173 -65t65 -171v-375q0 -110 -64.5 -174.5t-173.5 -64.5h-174v-584h-63zM186 643h174q78 0 126.5 49t48.5 131v375q0 78 -50 127t-125 49h-174v-731z" />
<glyph unicode="Q" d="M123 217v1002q0 107 64 171t173 64q108 0 173 -64t65 -171v-1002q0 -102 -55.5 -164t-151.5 -71v-240h-63v240q-96 9 -150.5 71t-54.5 164zM186 217q0 -82 47.5 -130t126.5 -48t127 48t48 130v1002q0 81 -48.5 128.5t-126.5 47.5t-126 -47.5t-48 -128.5v-1002z" />
<glyph unicode="R" horiz-adv-x="712" d="M123 0v1434h237q109 0 173.5 -63.5t64.5 -172.5v-268q0 -73 -38.5 -134.5t-98.5 -74.5q62 -13 99.5 -72.5t37.5 -134.5v-514h-63v514q0 80 -47 129t-123 49h-179v-692h-63zM186 752h179q77 0 123.5 48.5t46.5 129.5v266q0 83 -47.5 130.5t-127.5 47.5h-174v-622z" />
<glyph unicode="S" horiz-adv-x="679" d="M102 219v119h64v-119q0 -84 47 -132t127 -48q82 0 128 47.5t46 132.5v180q0 70 -22.5 125t-59 92t-80.5 69.5t-88 66t-80.5 73t-59 100t-22.5 136.5v153q0 112 64.5 176t173.5 64t173.5 -64t64.5 -176v-116h-64v116q0 83 -48 132t-126 49q-80 0 -127 -49t-47 -132v-153 q0 -53 14 -97.5t38 -76.5t55 -60t65 -53t68 -50.5t65 -56.5t55 -67.5t38 -87.5t14 -113v-180q0 -112 -64 -175.5t-174 -63.5t-174 63.5t-64 175.5z" />
<glyph unicode="T" horiz-adv-x="575" d="M41 1374v60h494v-60h-216v-1374h-63v1374h-215z" />
<glyph unicode="U" d="M123 217v1217h63v-1217q0 -82 48 -130t126 -48q82 0 128.5 47.5t46.5 130.5v1217h63v-1217q0 -110 -64.5 -173.5t-173.5 -63.5t-173 63.5t-64 173.5z" />
<glyph unicode="V" d="M123 465v969h63v-969q0 -63 34.5 -164t76.5 -175.5t63 -74.5q22 0 64 74t76.5 174.5t34.5 165.5v969h63v-969q0 -76 -40 -191.5t-97.5 -204.5t-100.5 -89t-100 88.5t-97 204.5t-40 192z" />
<glyph unicode="W" horiz-adv-x="1034" d="M123 387v1047h63v-1047q0 -63 26.5 -144.5t60 -137.5t53.5 -56q19 0 57 54.5t70 137t32 146.5v1016h64v-1016q0 -65 31 -147t69 -136.5t60 -54.5q19 0 52.5 56t60 138t26.5 144v1047h63v-1047q0 -80 -32.5 -176.5t-80.5 -163.5t-89 -67q-45 0 -103.5 85t-87.5 183 q-30 -97 -89.5 -182.5t-102.5 -85.5q-40 0 -88 65t-81.5 162t-33.5 180z" />
<glyph unicode="X" horiz-adv-x="704" d="M115 0v256q0 73 15.5 140.5t47.5 130.5t61.5 108.5t75.5 107.5q-49 66 -77 108t-60.5 103.5t-47.5 122.5t-15 127v230h63v-230q0 -77 27 -154t58.5 -127.5t88.5 -129.5q43 60 66.5 96.5t52.5 91t42 109.5t13 114v230h64v-230q0 -66 -15 -127t-49 -123.5t-61 -103 t-76 -107.5q48 -65 75.5 -108t61 -107t49 -131.5t15.5 -140.5v-256h-64v256q0 84 -27 166.5t-60 138.5t-87 131q-83 -113 -128.5 -214t-45.5 -222v-256h-63z" />
<glyph unicode="Y" horiz-adv-x="688" d="M106 1010v424h64v-424q0 -66 31 -135.5t78 -145t63 -115.5q16 41 63.5 115t80 144t32.5 137v424h64v-424q0 -70 -32.5 -148t-71 -133.5t-71 -112t-32.5 -88.5v-528h-64v528q0 32 -32 88.5t-70.5 111.5t-70.5 133t-32 149z" />
<glyph unicode="Z" horiz-adv-x="606" d="M90 39q0 134 19.5 252.5t51.5 207t70 170.5t76.5 159.5t70.5 156.5t53 179t22 210h-363v60h422q4 -19 4 -39q0 -134 -26.5 -254t-66 -205.5t-86.5 -184.5t-87 -189.5t-68 -222t-30 -280.5h364v-59h-422q-4 19 -4 39z" />
<glyph unicode="[" horiz-adv-x="397" d="M131 -289v1788h201v-57h-139v-1673h139v-58h-201z" />
<glyph unicode="\" horiz-adv-x="620" d="M45 1434h61l469 -1434h-61z" />
<glyph unicode="]" horiz-adv-x="397" d="M66 -231h139v1673h-139v57h200v-1788h-200v58z" />
<glyph unicode="^" d="M45 768l291 668h45l289 -668h-60l-252 594l-254 -594h-59z" />
<glyph unicode="_" horiz-adv-x="1024" d="M41 -20h942v-58h-942v58z" />
<glyph unicode="`" horiz-adv-x="327" d="M61 1454h74l131 -221h-59z" />
<glyph unicode="a" horiz-adv-x="649" d="M102 193v157q0 148 138 211l231 109v223q0 68 -45 111t-109 43q-65 0 -108 -42t-43 -112v-92h-64v92q0 97 60.5 155t154.5 58q95 0 156.5 -58t61.5 -155v-700q0 -97 -61 -155t-155 -58q-93 0 -155 58.5t-62 154.5zM166 193q0 -70 44 -112t109 -42q66 0 109 42t43 112v411 l-209 -98q-96 -45 -96 -156v-157z" />
<glyph unicode="b" horiz-adv-x="661" d="M115 193v1323h63v-490q23 38 63.5 59t88.5 21q93 0 155 -58t62 -155v-700q0 -98 -61.5 -155.5t-155.5 -57.5t-154.5 57t-60.5 156zM178 193q0 -71 43.5 -112.5t108.5 -41.5t109 41.5t44 112.5v700q0 70 -43.5 112t-109.5 42t-109 -42t-43 -112v-700z" />
<glyph unicode="c" horiz-adv-x="620" d="M115 193v700q0 97 61.5 155t153.5 58q93 0 155 -58t62 -155v-92h-64v92q0 70 -43.5 112t-109.5 42q-65 0 -108.5 -42t-43.5 -112v-700q0 -71 43.5 -112.5t108.5 -41.5q67 0 110 41t43 113v104h64v-104q0 -98 -61.5 -155.5t-155.5 -57.5q-92 0 -153.5 57.5t-61.5 155.5z " />
<glyph unicode="d" horiz-adv-x="661" d="M115 193v700q0 97 61.5 155t153.5 58q101 0 153 -80v490h64v-1323q0 -98 -61.5 -155.5t-155.5 -57.5q-92 0 -153.5 57.5t-61.5 155.5zM178 193q0 -71 43.5 -112.5t108.5 -41.5q67 0 110 41t43 113v700q0 70 -43.5 112t-109.5 42q-65 0 -108.5 -42t-43.5 -112v-700z" />
<glyph unicode="e" horiz-adv-x="649" d="M115 193v700q0 96 61 154.5t154 58.5q94 0 155.5 -58.5t61.5 -154.5v-174q0 -50 -20.5 -79.5t-63.5 -51.5l-285 -142v-253q0 -68 44 -111t108 -43q66 0 109.5 42t43.5 112v104h64v-104q0 -98 -61 -155.5t-156 -57.5q-94 0 -154.5 57.5t-60.5 155.5zM178 516l264 129 q18 9 29.5 29.5t11.5 44.5v174q0 69 -44 111.5t-109 42.5q-63 0 -107.5 -42.5t-44.5 -111.5v-377z" />
<glyph unicode="f" horiz-adv-x="450" d="M37 1026v59h139v226q0 95 50.5 151t138.5 56q47 0 104 -31l-20 -49q-38 20 -84 20q-59 0 -92 -38t-33 -109v-226h194v-59h-194v-1026h-64v1026h-139z" />
<glyph unicode="g" horiz-adv-x="661" d="M115 193v700q0 97 61.5 155t153.5 58q93 0 155 -58t62 -155v-1094q0 -95 -61 -152t-154 -57q-100 0 -157.5 55.5t-57.5 153.5q0 27 10.5 56t19.5 43t13 18l55 -25q-37 -49 -37 -92q0 -68 45 -108.5t109 -40.5q66 0 108.5 40t42.5 109v258q-52 -77 -153 -77 q-92 0 -153.5 57.5t-61.5 155.5zM178 193q0 -71 43.5 -112.5t108.5 -41.5q67 0 110 41t43 113v700q0 70 -43.5 112t-109.5 42q-65 0 -108.5 -42t-43.5 -112v-700z" />
<glyph unicode="h" horiz-adv-x="661" d="M115 0v1516h63v-490q23 38 63.5 59t88.5 21q93 0 155 -58t62 -155v-893h-64v893q0 70 -43.5 112t-109.5 42t-109 -42t-43 -112v-893h-63z" />
<glyph unicode="i" horiz-adv-x="325" d="M115 1372q0 22 12.5 34.5t34.5 12.5q23 0 36 -12.5t13 -34.5q0 -21 -13 -35t-36 -14q-21 0 -34 14t-13 35zM131 0v1085h64v-1085h-64z" />
<glyph unicode="j" horiz-adv-x="325" d="M-68 -381l21 55q31 -22 72 -22q54 0 80 41.5t26 113.5v1278h64v-1278q0 -100 -41 -157.5t-129 -57.5q-56 0 -93 27zM115 1372q0 22 12.5 34.5t34.5 12.5q23 0 36 -12.5t13 -34.5q0 -21 -13 -35t-36 -14q-21 0 -34 14t-13 35z" />
<glyph unicode="k" horiz-adv-x="651" d="M115 0v1516h63v-1033q86 81 136 134.5t91.5 113t58.5 115.5t17 121q0 41 -18.5 59.5t-54.5 15.5l8 58q9 1 16 1q51 0 80 -28q33 -32 33 -104q0 -108 -40 -195.5t-132 -185.5q39 -29 66 -56t53 -66t39.5 -90t13.5 -114v-262h-64v262q0 169 -151 281q-5 -4 -40 -36.5 t-68.5 -62.5t-43.5 -38v-406h-63z" />
<glyph unicode="l" horiz-adv-x="325" d="M131 0v1516h64v-1516h-64z" />
<glyph unicode="m" horiz-adv-x="1001" d="M115 0v893q0 98 58.5 155.5t150.5 57.5q61 0 108.5 -30t67.5 -83q20 52 68 82.5t110 30.5q91 0 150 -57.5t59 -155.5v-893h-64v893q0 71 -40.5 112.5t-104.5 41.5t-105 -41.5t-41 -112.5v-893h-63v893q0 70 -41 112t-104 42q-65 0 -105.5 -41.5t-40.5 -112.5v-893h-63z " />
<glyph unicode="n" horiz-adv-x="661" d="M115 0v893q0 97 61 155t154 58t155 -58t62 -155v-893h-64v893q0 70 -43.5 112t-109.5 42q-65 0 -108.5 -42t-43.5 -112v-893h-63z" />
<glyph unicode="o" horiz-adv-x="661" d="M115 193v700q0 97 61 155t154 58t155 -58t62 -155v-700q0 -98 -61.5 -155.5t-155.5 -57.5t-154.5 57t-60.5 156zM178 193q0 -71 43.5 -112.5t108.5 -41.5q67 0 110 41t43 113v700q0 70 -43.5 112t-109.5 42t-109 -42t-43 -112v-700z" />
<glyph unicode="p" horiz-adv-x="661" d="M115 -397v1290q0 97 61 155t154 58t155 -58t62 -155v-700q0 -98 -61.5 -155.5t-155.5 -57.5q-48 0 -88.5 20.5t-63.5 56.5v-454h-63zM178 193q0 -71 43.5 -112.5t108.5 -41.5t109 41.5t44 112.5v700q0 70 -43.5 112t-109.5 42t-109 -42t-43 -112v-700z" />
<glyph unicode="q" horiz-adv-x="661" d="M115 193v700q0 97 61.5 155t153.5 58q93 0 155 -58t62 -155v-1290h-64v454q-52 -77 -153 -77q-92 0 -153.5 57.5t-61.5 155.5zM178 193q0 -69 44.5 -111.5t107.5 -42.5q65 0 109 40.5t44 108.5v705q0 70 -43.5 112t-109.5 42q-65 0 -108.5 -42t-43.5 -112v-700z" />
<glyph unicode="r" horiz-adv-x="561" d="M115 0v895q0 100 53 155.5t143 55.5t141.5 -56t51.5 -155v-94h-64v94q0 74 -34.5 113t-94.5 39t-96.5 -39.5t-36.5 -112.5v-895h-63z" />
<glyph unicode="s" horiz-adv-x="626" d="M98 193v104h64v-104q0 -72 42.5 -113t108.5 -41q65 0 108.5 41.5t43.5 112.5v92q0 59 -20 104t-52.5 73.5t-71.5 53t-78.5 49.5t-72 55t-52.5 77.5t-20 109.5v86q0 97 62 155t155 58q92 0 152.5 -58t60.5 -155v-92h-63v92q0 70 -42.5 112t-107.5 42q-66 0 -109.5 -42 t-43.5 -112v-86q0 -53 20 -93t52.5 -65.5t71.5 -48t78 -48.5t71.5 -58t52.5 -85.5t20 -123.5v-92q0 -98 -61.5 -155.5t-153.5 -57.5q-94 0 -154.5 57t-60.5 156z" />
<glyph unicode="t" horiz-adv-x="460" d="M33 1026v59h131v269h63v-269h205v-59h-205v-840q0 -72 32.5 -109.5t92.5 -37.5q48 0 84 12l2 -55q-47 -16 -86 -16q-91 0 -139.5 53t-48.5 153v840h-131z" />
<glyph unicode="u" horiz-adv-x="661" d="M115 193v892h63v-892q0 -71 43.5 -112.5t108.5 -41.5q67 0 110 41t43 113v892h64v-892q0 -98 -61.5 -155.5t-155.5 -57.5q-92 0 -153.5 57.5t-61.5 155.5z" />
<glyph unicode="v" horiz-adv-x="659" d="M115 328v757h63v-757q0 -47 27.5 -113.5t64 -115t60.5 -48.5q22 0 58 48t64.5 115t28.5 114v581q0 65 -19 93q-17 26 -58 26h-9v59q10 1 20 0q65 0 95 -35q34 -41 35 -143v-581q0 -58 -36 -141t-87.5 -145t-91.5 -62q-41 0 -92.5 62t-87 145t-35.5 141z" />
<glyph unicode="w" horiz-adv-x="1001" d="M115 328v757h63v-757q0 -58 25 -125.5t57.5 -111.5t54.5 -44t58.5 44t66 111t29.5 122v761h63v-761q0 -84 57 -180.5t97 -96.5q23 0 55.5 44t57 111.5t24.5 125.5v757h64v-757q0 -75 -30.5 -157t-78 -136.5t-92.5 -54.5q-47 0 -103 73.5t-83 157.5q-24 -84 -80.5 -157.5 t-104.5 -73.5q-45 0 -92 54t-77.5 136t-30.5 158z" />
<glyph unicode="x" horiz-adv-x="643" d="M106 0v174q0 64 13.5 119.5t42.5 105.5t54 84t67 82q-42 50 -67 83.5t-54 84t-42.5 106t-13.5 119.5v127h64v-127q0 -103 39 -181.5t113 -166.5q73 88 112 166.5t39 181.5v127h64v-127q0 -52 -11.5 -101t-25 -83t-42.5 -78t-46 -65.5t-54 -65.5q42 -48 67.5 -82 t54.5 -84.5t43 -106t14 -118.5v-174h-64v174q0 103 -39 181.5t-112 166.5q-74 -88 -113 -166.5t-39 -181.5v-174h-64z" />
<glyph unicode="y" horiz-adv-x="661" d="M115 193v892h63v-892q0 -69 44.5 -111.5t107.5 -42.5q64 0 108.5 41.5t44.5 112.5v892h64v-1286q0 -95 -61 -152t-154 -57q-100 0 -157.5 55.5t-57.5 153.5q0 27 10 56t18.5 43t12.5 18l55 -25q-35 -49 -35 -92q0 -68 45 -108.5t109 -40.5q66 0 108.5 40t42.5 109v258 q-52 -77 -153 -77q-92 0 -153.5 57.5t-61.5 155.5z" />
<glyph unicode="z" horiz-adv-x="544" d="M74 35q0 102 18.5 192.5t48 158.5t65 130.5t71 120t65 115t48 128t18.5 146.5h-334v59h393q4 -12 4 -28q0 -89 -18.5 -170t-48 -143.5t-65 -122.5l-71 -120t-65 -123.5t-48 -145.5t-18.5 -173h332v-59h-391q-4 19 -4 35z" />
<glyph unicode="{" horiz-adv-x="415" d="M66 575v58q34 2 69 37.5t35 83.5v579q0 77 49.5 121.5t130.5 44.5v-57q-53 -2 -86 -31t-33 -78v-579q0 -54 -29 -96.5t-59 -53.5q31 -13 59.5 -54t28.5 -95v-580q0 -51 32 -79.5t87 -28.5v-58q-81 0 -130.5 44t-49.5 122v580q0 47 -35 82.5t-69 37.5z" />
<glyph unicode="|" horiz-adv-x="323" d="M131 -397v1913h62v-1913h-62z" />
<glyph unicode="}" horiz-adv-x="415" d="M66 -233q53 0 85.5 29t32.5 79v580q0 54 28.5 95t59.5 54q-30 11 -59 53.5t-29 96.5v579q0 49 -32.5 78t-85.5 31v57q81 0 130.5 -44.5t49.5 -121.5v-579q0 -48 34.5 -83.5t69.5 -37.5v-58q-36 -2 -70 -37t-34 -83v-580q0 -78 -49.5 -122t-130.5 -44v58z" />
<glyph unicode="~" d="M70 483q-7 81 38 124.5t117 43.5q46 0 95.5 -28.5t95 -57t80.5 -28.5q47 0 77.5 31t24.5 83h53q9 -77 -37 -124.5t-118 -47.5q-34 0 -72 18.5t-66.5 40t-65 40t-67.5 18.5q-46 0 -77 -30t-25 -83h-53z" />
<glyph unicode="&#xa1;" horiz-adv-x="325" d="M117 1049q0 22 12.5 34.5t32.5 12.5q22 0 34.5 -12.5t12.5 -34.5q0 -20 -12.5 -32.5t-34.5 -12.5q-20 0 -32.5 12.5t-12.5 32.5zM131 -348v1102h64v-1102h-64z" />
<glyph unicode="&#xa2;" d="M143 365v700q0 88 52.5 145t134.5 66v178h61v-178q81 -9 132.5 -65t51.5 -146v-92h-63v92q0 72 -43 114t-109 42t-109.5 -42t-43.5 -114v-700q0 -71 44 -112.5t109 -41.5t108.5 41.5t43.5 112.5v104h63v-104q0 -90 -52 -146.5t-132 -64.5v-174h-61v174q-82 8 -134.5 64.5 t-52.5 146.5z" />
<glyph unicode="&#xa3;" d="M68 0v59h135v629h-115v60h115v493q0 97 59.5 155t151.5 58q100 0 157.5 -56.5t57.5 -154.5v-143h-64v143q0 71 -42 111.5t-109 40.5t-107.5 -41.5t-40.5 -112.5v-493h254v-60h-254v-629h383v-59h-581z" />
<glyph unicode="&#xa4;" d="M66 428l116 123q-45 60 -45 151q0 89 43 150l-114 123l40 41l113 -123q60 47 139 47q83 0 140 -47l114 123l39 -41l-116 -123q45 -64 45 -150q0 -88 -45 -149l116 -123l-39 -41l-116 121q-52 -43 -138 -43q-85 0 -137 43l-115 -121zM197 702q0 -82 43.5 -130t117.5 -48 t118 48t44 130t-44.5 131.5t-117.5 49.5t-117 -49.5t-44 -131.5z" />
<glyph unicode="&#xa5;" d="M123 1010v424h63v-424q0 -67 28 -134t78 -146.5t66 -113.5q16 35 50 89.5t60 96t46.5 98.5t20.5 110v424h63v-424q0 -75 -32.5 -154t-71 -132.5t-71 -108.5t-32.5 -87v-16h184v-59h-184v-131h184v-60h-184v-262h-63v262h-185v60h185v131h-185v59h185v18q0 31 -32 85.5 t-70.5 108t-70.5 132.5t-32 154z" />
<glyph unicode="&#xa6;" horiz-adv-x="323" d="M131 367h62v-764h-62v764zM131 791v765h62v-765h-62z" />
<glyph unicode="&#xa7;" horiz-adv-x="634" d="M102 -12v94h64v-94q0 -69 43.5 -111.5t107.5 -42.5q65 0 108.5 42t43.5 112v104q0 51 -20 89t-52.5 62t-71.5 45t-78.5 44t-72 51t-52.5 74t-20 106v105q0 41 13.5 76.5t29 56t44 42t40 28t35.5 18.5q-52 28 -84 55t-55 76t-23 115v106q0 97 61.5 155t153.5 58 q93 0 154 -58t61 -155v-96h-63v96q0 69 -44.5 111.5t-107.5 42.5q-65 0 -108 -42t-43 -112v-106q0 -49 20 -87t52.5 -62.5t71.5 -45.5t78 -44.5t71.5 -51.5t52.5 -73.5t20 -104.5v-105q0 -41 -13.5 -77t-30 -57.5t-44.5 -42.5t-41 -28t-36 -18q81 -42 123 -96t42 -150v-104 q0 -98 -62 -155.5t-153 -57.5q-93 0 -154 58t-61 155zM166 563q0 -76 34 -116t111 -78q23 11 34 16.5t39 24t43 37t28.5 49t13.5 65.5v105q0 40 -9.5 69t-32 51.5t-46 38t-64.5 35.5q-26 -13 -42.5 -23t-46.5 -34t-46 -58.5t-16 -76.5v-105z" />
<glyph unicode="&#xa8;" horiz-adv-x="405" d="M61 1372q0 22 13 34.5t35 12.5q23 0 36 -12.5t13 -34.5q0 -21 -13 -35t-36 -14q-21 0 -34.5 14t-13.5 35zM248 1372q0 22 12.5 34.5t34.5 12.5q23 0 36 -12.5t13 -34.5q0 -21 -13 -35t-36 -14q-21 0 -34 14t-13 35z" />
<glyph unicode="&#xa9;" horiz-adv-x="1515" d="M66 717q0 212 85 379.5t243.5 262.5t363.5 95q207 0 365.5 -95.5t242.5 -262.5t84 -379q0 -213 -83.5 -379.5t-242 -262t-366.5 -95.5q-206 0 -364.5 95.5t-243 262.5t-84.5 379zM129 717q0 -195 77.5 -349t221.5 -241.5t330 -87.5q188 0 331.5 87.5t220 241t76.5 349.5 t-77 349.5t-220.5 241t-330.5 87.5q-186 0 -330 -87.5t-221.5 -241.5t-77.5 -349zM541 410v616q0 99 61.5 157t155.5 58q93 0 153 -58t60 -157v-98h-64v98q0 72 -41.5 114t-107.5 42t-110 -42t-44 -114v-616q0 -72 42 -113t108 -41q67 0 110 41t43 113v112h64v-112 q0 -98 -61.5 -155.5t-155.5 -57.5q-93 0 -153 57t-60 156z" />
<glyph unicode="&#xaa;" horiz-adv-x="432" d="M90 977v61q0 29 10.5 53t25 39t38 28t43 20.5t46.5 17t42 16.5v111q0 37 -22.5 59.5t-55.5 22.5q-35 0 -57.5 -22.5t-22.5 -59.5v-53h-47v53q0 58 32.5 92.5t94.5 34.5q56 0 90.5 -35t34.5 -92v-346q0 -56 -34.5 -92.5t-86.5 -36.5q-65 0 -98 35.5t-33 93.5zM92 727v45 h248v-45h-248zM137 977q0 -38 24 -61t60 -23q31 0 52.5 23.5t21.5 60.5v188q-13 -6 -39 -15.5t-43.5 -17.5t-36.5 -20t-29 -31t-10 -43v-61z" />
<glyph unicode="&#xab;" horiz-adv-x="681" d="M66 553l231 362h68l-232 -362l232 -363h-68zM317 553l232 362h67l-231 -362l231 -363h-67z" />
<glyph unicode="&#xac;" d="M76 541v57h565v-360h-57v303h-508z" />
<glyph unicode="&#xad;" horiz-adv-x="452" d="M66 541v59h321v-59h-321z" />
<glyph unicode="&#xae;" horiz-adv-x="1517" d="M66 717q0 212 85.5 379.5t244.5 262.5t364 95q207 0 365.5 -95.5t242.5 -262.5t84 -379q0 -213 -83.5 -379.5t-242 -262t-366.5 -95.5q-206 0 -365 95.5t-244 262.5t-85 379zM129 717q0 -195 78 -349t222.5 -241.5t330.5 -87.5q188 0 332 87.5t220.5 241t76.5 349.5 t-77 349.5t-221 241t-331 87.5q-186 0 -330.5 -87.5t-222.5 -241.5t-78 -349zM551 207v1034h201q109 0 170 -58t61 -159v-156q0 -65 -30.5 -114.5t-82.5 -71.5q52 -24 82.5 -72.5t30.5 -113.5v-279h-59v279q0 71 -45 114t-121 43h-144v-446h-63zM614 713h144q75 0 119.5 42 t44.5 113v156q0 74 -45.5 116t-124.5 42h-138v-469z" />
<glyph unicode="&#xaf;" horiz-adv-x="462" d="M61 1305v55h340v-55h-340z" />
<glyph unicode="&#xb0;" horiz-adv-x="458" d="M66 1282q0 75 44 123.5t119 48.5t119.5 -48.5t44.5 -123.5t-44.5 -123.5t-119.5 -48.5t-119 48.5t-44 123.5zM115 1282q0 -56 30.5 -91.5t83.5 -35.5q52 0 83.5 35.5t31.5 91.5q0 55 -31.5 91t-83.5 36t-83 -36t-31 -91z" />
<glyph unicode="&#xb1;" d="M78 0v55h565v-55h-565zM78 541v57h254v307h57v-307h254v-57h-254v-308h-57v308h-254z" />
<glyph unicode="&#xb2;" horiz-adv-x="415" d="M74 860v37q0 70 33.5 145.5t73 130t73 120.5t33.5 118v59q0 35 -22.5 56.5t-57.5 21.5q-33 0 -55.5 -21.5t-22.5 -56.5v-63h-55v63q0 59 37.5 95.5t95.5 36.5q60 0 97.5 -36t37.5 -96v-57q0 -60 -33.5 -130t-73 -124t-73 -122.5t-33.5 -125.5h211v-51h-266z" />
<glyph unicode="&#xb3;" horiz-adv-x="415" d="M74 975v65h55v-65q0 -32 23 -54t55 -22q34 0 57 22t23 54v155q0 32 -22.5 53t-55.5 21h-62v53h62q33 0 55.5 22.5t22.5 55.5v138q0 32 -23 53.5t-57 21.5q-33 0 -55.5 -21.5t-22.5 -53.5v-60h-55v60q0 60 36.5 94.5t96.5 34.5q61 0 98 -35t37 -94v-138q0 -37 -16.5 -65.5 t-44.5 -38.5q27 -11 44 -38.5t17 -62.5v-155q0 -60 -37 -93.5t-98 -33.5q-63 0 -98 33t-35 94z" />
<glyph unicode="&#xb4;" horiz-adv-x="327" d="M61 1233l132 221h73l-145 -221h-60z" />
<glyph unicode="&#xb5;" horiz-adv-x="661" d="M115 -397v1482h63v-835q0 -211 152 -211q67 0 110 41.5t43 114.5v890h64v-890q0 -70 23.5 -104t78.5 -34h13v-57q-8 -2 -23 -2q-102 0 -129 80q-23 -45 -72 -71.5t-108 -26.5q-47 0 -91 22.5t-61 58.5v-458h-63z" />
<glyph unicode="&#xb6;" horiz-adv-x="790" d="M66 1198q0 102 62.5 169t160.5 67h436v-56h-111v-1378h-59v1378h-207v-1378h-59v967q-97 1 -160 67t-63 164z" />
<glyph unicode="&#xb7;" horiz-adv-x="227" d="M66 590q0 22 12.5 34.5t34.5 12.5q23 0 36 -12.5t13 -34.5q0 -21 -13 -35t-36 -14q-21 0 -34 14t-13 35z" />
<glyph unicode="&#xb8;" horiz-adv-x="329" d="M61 -260l19 39q40 -25 72 -25q24 0 41.5 16.5t17.5 43.5q0 65 -64 65h-28l-15 15l17 102h51l-8 -76q104 -4 104 -108q0 -47 -35.5 -76t-82.5 -29q-45 0 -89 33z" />
<glyph unicode="&#xb9;" horiz-adv-x="344" d="M53 1405v57q47 16 90 55t58 72h49v-729h-55v637q-24 -27 -63 -53t-79 -39z" />
<glyph unicode="&#xba;" horiz-adv-x="432" d="M90 977v346q0 57 35 92t92 35q56 0 90.5 -35t34.5 -92v-346q0 -56 -34.5 -92.5t-86.5 -36.5q-58 0 -94.5 36.5t-36.5 92.5zM92 727v45h248v-45h-248zM137 977q0 -38 24 -61t60 -23q31 0 52.5 23.5t21.5 60.5v346q0 37 -22.5 59.5t-55.5 22.5q-35 0 -57.5 -22.5 t-22.5 -59.5v-346z" />
<glyph unicode="&#xbb;" horiz-adv-x="681" d="M66 190l231 363l-231 362h67l232 -362l-232 -363h-67zM317 190l232 363l-232 362h68l231 -362l-231 -363h-68z" />
<glyph unicode="&#xbc;" horiz-adv-x="1005" d="M94 1249v58q47 16 90 55t58 72h49v-729h-55v636q-24 -27 -63 -53t-79 -39zM168 0l629 1434h59l-629 -1434h-59zM643 147v46q0 52 19.5 121.5t43 128.5t43 138t19.5 148h55q0 -90 -31.5 -194t-62.5 -193t-31 -143h158v196h55v-395h-55v147h-213z" />
<glyph unicode="&#xbd;" horiz-adv-x="1024" d="M94 1249v58q47 16 90 55t58 72h49v-729h-55v636q-24 -27 -63 -53t-79 -39zM168 0l629 1434h59l-629 -1434h-59zM662 0v37q0 57 22 116.5t53 109.5t62 97.5t53 97.5t22 93v59q0 35 -22 56.5t-57 21.5q-33 0 -55.5 -21.5t-22.5 -56.5v-63h-55v63q0 59 37.5 95t95.5 36 q60 0 97.5 -35.5t37.5 -95.5v-57q0 -60 -33.5 -130t-73 -124t-73 -122.5t-33.5 -125.5h211v-51h-266z" />
<glyph unicode="&#xbe;" horiz-adv-x="983" d="M94 815v66h56v-66q0 -32 22.5 -54t54.5 -22q34 0 57 22t23 54v156q0 32 -22.5 52.5t-55.5 20.5h-61v54h61q33 0 55.5 22.5t22.5 55.5v137q0 32 -23 54t-57 22q-32 0 -54.5 -22t-22.5 -54v-60h-56v60q0 60 36.5 94.5t96.5 34.5q61 0 98 -35t37 -94v-137q0 -37 -16.5 -66 t-44.5 -39q27 -11 44 -38t17 -62v-156q0 -60 -37 -93.5t-98 -33.5q-63 0 -98 33t-35 94zM180 0l629 1434h59l-628 -1434h-60zM621 147v46q0 65 31 156.5t62 192t31 187.5h56q0 -90 -31.5 -194t-62.5 -193t-31 -143h158v196h55v-395h-55v147h-213z" />
<glyph unicode="&#xbf;" horiz-adv-x="628" d="M82 -133v342q0 104 56 162.5t159 70.5v314h63v-371h-41q-87 0 -130.5 -50.5t-43.5 -125.5v-342q0 -79 47.5 -127.5t124.5 -48.5q79 0 127 47.5t48 128.5v119h63v-119q0 -110 -62.5 -173t-175.5 -63q-111 0 -173 63t-62 173zM283 1049q0 47 45 47q22 0 34.5 -12.5 t12.5 -34.5q0 -20 -12.5 -32.5t-34.5 -12.5q-21 0 -33 12t-12 33z" />
<glyph unicode="&#xc0;" d="M123 0v1217q0 110 64.5 173.5t172.5 63.5q109 0 173.5 -63.5t64.5 -173.5v-1217h-63v586h-349v-586h-63zM186 645h349v572q0 77 -49.5 127.5t-125.5 50.5q-78 0 -126 -48t-48 -130v-572zM227 1741h74l131 -221h-59z" />
<glyph unicode="&#xc1;" d="M123 0v1217q0 110 64.5 173.5t172.5 63.5q109 0 173.5 -63.5t64.5 -173.5v-1217h-63v586h-349v-586h-63zM186 645h349v572q0 77 -49.5 127.5t-125.5 50.5q-78 0 -126 -48t-48 -130v-572zM287 1520l131 221h74l-146 -221h-59z" />
<glyph unicode="&#xc2;" d="M123 0v1217q0 110 64.5 173.5t172.5 63.5q109 0 173.5 -63.5t64.5 -173.5v-1217h-63v586h-349v-586h-63zM186 645h349v572q0 77 -49.5 127.5t-125.5 50.5q-78 0 -126 -48t-48 -130v-572zM195 1520l135 221h61l135 -221h-59q-12 19 -33.5 52.5t-39.5 62t-34 53.5 l-106 -168h-59z" />
<glyph unicode="&#xc3;" d="M123 0v1217q0 110 64.5 173.5t172.5 63.5q109 0 173.5 -63.5t64.5 -173.5v-1217h-63v586h-349v-586h-63zM166 1595q0 59 31 93t79 34q24 0 47.5 -13.5t39.5 -29.5t38.5 -29.5t44.5 -13.5q26 0 43.5 20t18.5 52h49q-1 -61 -31 -95t-80 -34q-24 0 -47.5 13.5t-39.5 29.5 t-38.5 29.5t-44.5 13.5q-26 0 -43.5 -18.5t-17.5 -51.5h-49zM186 645h349v572q0 77 -49.5 127.5t-125.5 50.5q-78 0 -126 -48t-48 -130v-572z" />
<glyph unicode="&#xc4;" d="M123 0v1217q0 110 64.5 173.5t172.5 63.5q109 0 173.5 -63.5t64.5 -173.5v-1217h-63v586h-349v-586h-63zM186 645h349v572q0 77 -49.5 127.5t-125.5 50.5q-78 0 -126 -48t-48 -130v-572zM217 1659q0 22 12.5 34.5t34.5 12.5q23 0 36 -12.5t13 -34.5q0 -21 -13 -35 t-36 -14q-21 0 -34 14t-13 35zM403 1659q0 22 13 34.5t35 12.5q23 0 36 -12.5t13 -34.5q0 -21 -13 -35t-36 -14q-21 0 -34.5 14t-13.5 35z" />
<glyph unicode="&#xc5;" d="M123 0v1217q0 110 64.5 173.5t172.5 63.5q109 0 173.5 -63.5t64.5 -173.5v-1217h-63v586h-349v-586h-63zM186 645h349v572q0 77 -49.5 127.5t-125.5 50.5q-78 0 -126 -48t-48 -130v-572zM231 1638q0 57 37.5 94t91.5 37q55 0 93.5 -37t38.5 -94q0 -55 -38.5 -92 t-93.5 -37q-53 0 -91 37t-38 92zM285 1638q0 -35 21 -57t54 -22q34 0 56 22t22 57q0 36 -22 59t-56 23q-33 0 -54 -23t-21 -59z" />
<glyph unicode="&#xc6;" horiz-adv-x="995" d="M123 0v1196q0 111 62 174.5t175 63.5h570v-60h-338v-622h299v-60h-299v-633h338v-59h-402v692h-342v-692h-63zM186 752h342v622h-168q-79 0 -126.5 -48t-47.5 -130v-444z" />
<glyph unicode="&#xc7;" horiz-adv-x="684" d="M123 217v1002q0 107 64 171t173 64t173.5 -64t64.5 -171v-119h-63v119q0 77 -49.5 126.5t-125.5 49.5q-78 0 -126 -47.5t-48 -128.5v-1002q0 -80 50 -129t124 -49q82 0 128.5 47.5t46.5 130.5v123h63v-123q0 -108 -61 -171t-166 -66l-6 -60q104 -4 104 -108 q0 -47 -36 -76t-83 -29q-44 0 -88 33l19 39q40 -25 71 -25q24 0 42 16.5t18 43.5q0 65 -64 65h-29l-14 15l14 88q-93 12 -144.5 74t-51.5 161z" />
<glyph unicode="&#xc8;" horiz-adv-x="581" d="M123 0v1434h393v-60h-330v-622h297v-60h-297v-633h330v-59h-393zM190 1741h74l131 -221h-59z" />
<glyph unicode="&#xc9;" horiz-adv-x="581" d="M123 0v1434h393v-60h-330v-622h297v-60h-297v-633h330v-59h-393zM250 1520l131 221h74l-146 -221h-59z" />
<glyph unicode="&#xca;" horiz-adv-x="581" d="M123 0v1434h393v-60h-330v-622h297v-60h-297v-633h330v-59h-393zM158 1520l135 221h61l135 -221h-59q-81 127 -106 168l-107 -168h-59z" />
<glyph unicode="&#xcb;" horiz-adv-x="581" d="M123 0v1434h393v-60h-330v-622h297v-60h-297v-633h330v-59h-393zM180 1659q0 22 12.5 34.5t34.5 12.5q23 0 36 -12.5t13 -34.5q0 -21 -13 -35t-36 -14q-21 0 -34 14t-13 35zM367 1659q0 22 12.5 34.5t34.5 12.5q23 0 36 -12.5t13 -34.5q0 -21 -13 -35t-36 -14 q-21 0 -34 14t-13 35z" />
<glyph unicode="&#xcc;" horiz-adv-x="325" d="M31 1741h73l132 -221h-60zM131 0v1434h64v-1434h-64z" />
<glyph unicode="&#xcd;" horiz-adv-x="325" d="M90 1520l131 221h74l-145 -221h-60zM131 0v1434h64v-1434h-64z" />
<glyph unicode="&#xce;" horiz-adv-x="325" d="M-2 1520l135 221h62l135 -221h-60q-81 127 -106 168l-107 -168h-59zM131 0v1434h64v-1434h-64z" />
<glyph unicode="&#xcf;" horiz-adv-x="325" d="M20 1659q0 22 13 34.5t35 12.5q23 0 36 -12.5t13 -34.5q0 -21 -13 -35t-36 -14q-21 0 -34.5 14t-13.5 35zM131 0v1434h64v-1434h-64zM207 1659q0 22 12.5 34.5t34.5 12.5q23 0 36 -12.5t13 -34.5q0 -21 -13 -35t-36 -14q-21 0 -34 14t-13 35z" />
<glyph unicode="&#xd0;" d="M41 690v58h82v686h237q111 0 174.5 -64t63.5 -172v-960q0 -110 -64 -174t-174 -64h-237v690h-82zM186 59h174q77 0 126 49t49 130v960q0 81 -48 128.5t-127 47.5h-174v-626h174v-58h-174v-631z" />
<glyph unicode="&#xd1;" d="M123 0v1217q0 110 64 173.5t173 63.5t173.5 -63.5t64.5 -173.5v-1217h-63v1217q0 82 -48 130t-127 48t-126.5 -48t-47.5 -130v-1217h-63zM166 1595q0 59 31 93t79 34q24 0 47.5 -13.5t39.5 -29.5t38.5 -29.5t44.5 -13.5q26 0 43.5 20t18.5 52h49q-1 -61 -31 -95t-80 -34 q-24 0 -47.5 13.5t-39.5 29.5t-38.5 29.5t-44.5 13.5q-26 0 -43.5 -18.5t-17.5 -51.5h-49z" />
<glyph unicode="&#xd2;" d="M123 217v1002q0 107 64 171t173 64q108 0 173 -64t65 -171v-1002q0 -110 -64.5 -173.5t-173.5 -63.5t-173 63.5t-64 173.5zM186 217q0 -82 47.5 -130t126.5 -48t127 48t48 130v1002q0 81 -48.5 128.5t-126.5 47.5t-126 -47.5t-48 -128.5v-1002zM227 1741h74l131 -221h-59 z" />
<glyph unicode="&#xd3;" d="M123 217v1002q0 107 64 171t173 64q108 0 173 -64t65 -171v-1002q0 -110 -64.5 -173.5t-173.5 -63.5t-173 63.5t-64 173.5zM186 217q0 -82 47.5 -130t126.5 -48t127 48t48 130v1002q0 81 -48.5 128.5t-126.5 47.5t-126 -47.5t-48 -128.5v-1002zM287 1520l131 221h74 l-146 -221h-59z" />
<glyph unicode="&#xd4;" d="M123 217v1002q0 107 64 171t173 64q108 0 173 -64t65 -171v-1002q0 -110 -64.5 -173.5t-173.5 -63.5t-173 63.5t-64 173.5zM186 217q0 -82 47.5 -130t126.5 -48t127 48t48 130v1002q0 81 -48.5 128.5t-126.5 47.5t-126 -47.5t-48 -128.5v-1002zM195 1520l135 221h61 l135 -221h-59q-12 19 -33.5 52.5t-39.5 62t-34 53.5l-106 -168h-59z" />
<glyph unicode="&#xd5;" d="M123 217v1002q0 107 64 171t173 64q108 0 173 -64t65 -171v-1002q0 -110 -64.5 -173.5t-173.5 -63.5t-173 63.5t-64 173.5zM166 1595q0 59 31 93t79 34q24 0 47.5 -13.5t39.5 -29.5t38.5 -29.5t44.5 -13.5q26 0 43.5 20t18.5 52h49q-1 -61 -31 -95t-80 -34 q-24 0 -47.5 13.5t-39.5 29.5t-38.5 29.5t-44.5 13.5q-26 0 -43.5 -18.5t-17.5 -51.5h-49zM186 217q0 -82 47.5 -130t126.5 -48t127 48t48 130v1002q0 81 -48.5 128.5t-126.5 47.5t-126 -47.5t-48 -128.5v-1002z" />
<glyph unicode="&#xd6;" d="M123 217v1002q0 107 64 171t173 64q108 0 173 -64t65 -171v-1002q0 -110 -64.5 -173.5t-173.5 -63.5t-173 63.5t-64 173.5zM186 217q0 -82 47.5 -130t126.5 -48t127 48t48 130v1002q0 81 -48.5 128.5t-126.5 47.5t-126 -47.5t-48 -128.5v-1002zM217 1659q0 22 12.5 34.5 t34.5 12.5q23 0 36 -12.5t13 -34.5q0 -21 -13 -35t-36 -14q-21 0 -34 14t-13 35zM403 1659q0 22 13 34.5t35 12.5q23 0 36 -12.5t13 -34.5q0 -21 -13 -35t-36 -14q-21 0 -34.5 14t-13.5 35z" />
<glyph unicode="&#xd7;" d="M86 322l233 251l-233 254l43 41l231 -252l234 252l41 -41l-236 -252l236 -251l-43 -41l-232 249l-231 -249z" />
<glyph unicode="&#xd8;" d="M123 217v1002q0 107 64 171t173 64q87 0 148 -45l27 98l47 -12l-33 -125q49 -62 49 -151v-1002q0 -110 -64.5 -173.5t-173.5 -63.5q-95 0 -157 49l-27 -103l-45 13l33 131q-41 59 -41 147zM186 217q0 -33 4 -47l302 1171q-51 54 -132 54q-78 0 -126 -47.5t-48 -128.5 v-1002zM221 100q48 -61 139 -61q79 0 127 48t48 130v1002q0 19 -9 59z" />
<glyph unicode="&#xd9;" d="M123 217v1217h63v-1217q0 -82 48 -130t126 -48q82 0 128.5 47.5t46.5 130.5v1217h63v-1217q0 -110 -64.5 -173.5t-173.5 -63.5t-173 63.5t-64 173.5zM227 1741h74l131 -221h-59z" />
<glyph unicode="&#xda;" d="M123 217v1217h63v-1217q0 -82 48 -130t126 -48q82 0 128.5 47.5t46.5 130.5v1217h63v-1217q0 -110 -64.5 -173.5t-173.5 -63.5t-173 63.5t-64 173.5zM287 1520l131 221h74l-146 -221h-59z" />
<glyph unicode="&#xdb;" d="M123 217v1217h63v-1217q0 -82 48 -130t126 -48q82 0 128.5 47.5t46.5 130.5v1217h63v-1217q0 -110 -64.5 -173.5t-173.5 -63.5t-173 63.5t-64 173.5zM195 1520l135 221h61l135 -221h-59q-12 19 -33.5 52.5t-39.5 62t-34 53.5l-106 -168h-59z" />
<glyph unicode="&#xdc;" d="M123 217v1217h63v-1217q0 -82 48 -130t126 -48q82 0 128.5 47.5t46.5 130.5v1217h63v-1217q0 -110 -64.5 -173.5t-173.5 -63.5t-173 63.5t-64 173.5zM217 1659q0 22 12.5 34.5t34.5 12.5q23 0 36 -12.5t13 -34.5q0 -21 -13 -35t-36 -14q-21 0 -34 14t-13 35zM403 1659 q0 22 13 34.5t35 12.5q23 0 36 -12.5t13 -34.5q0 -21 -13 -35t-36 -14q-21 0 -34.5 14t-13.5 35z" />
<glyph unicode="&#xdd;" horiz-adv-x="688" d="M106 1010v424h64v-424q0 -66 31 -135.5t78 -145t63 -115.5q16 41 63.5 115t80 144t32.5 137v424h64v-424q0 -70 -32.5 -148t-71 -133.5t-71 -112t-32.5 -88.5v-528h-64v528q0 32 -32 88.5t-70.5 111.5t-70.5 133t-32 149zM270 1520l131 221h74l-145 -221h-60z" />
<glyph unicode="&#xde;" horiz-adv-x="686" d="M119 0v1434h63v-318h176q111 0 172.5 -64t61.5 -173v-320q0 -113 -61 -176.5t-173 -63.5h-176v-319h-63zM182 379h176q79 0 124.5 48.5t45.5 131.5v320q0 82 -45.5 130t-124.5 48h-176v-678z" />
<glyph unicode="&#xdf;" horiz-adv-x="716" d="M123 0v1219q0 109 64 172t173 63q108 0 173 -63.5t65 -171.5v-289q0 -74 -35 -130.5t-92 -76.5q57 -19 92 -77t35 -132v-276q0 -110 -64.5 -174t-173.5 -64h-67v59h67q82 0 128.5 48t46.5 131v276q0 78 -46.5 128t-121.5 50h-72v60h65q80 0 127.5 47.5t47.5 130.5v289 q0 81 -47.5 128.5t-127.5 47.5q-79 0 -126.5 -47.5t-47.5 -128.5v-1219h-63z" />
<glyph unicode="&#xe0;" horiz-adv-x="649" d="M102 193v157q0 148 138 211l231 109v223q0 68 -45 111t-109 43q-65 0 -108 -42t-43 -112v-92h-64v92q0 97 60.5 155t154.5 58q95 0 156.5 -58t61.5 -155v-700q0 -97 -61 -155t-155 -58q-93 0 -155 58.5t-62 154.5zM166 193q0 -70 44 -112t109 -42q66 0 109 42t43 112v411 l-209 -98q-96 -45 -96 -156v-157zM184 1454h74l131 -221h-59z" />
<glyph unicode="&#xe1;" horiz-adv-x="649" d="M102 193v157q0 148 138 211l231 109v223q0 68 -45 111t-109 43q-65 0 -108 -42t-43 -112v-92h-64v92q0 97 60.5 155t154.5 58q95 0 156.5 -58t61.5 -155v-700q0 -97 -61 -155t-155 -58q-93 0 -155 58.5t-62 154.5zM166 193q0 -70 44 -112t109 -42q66 0 109 42t43 112v411 l-209 -98q-96 -45 -96 -156v-157zM244 1233l131 221h74l-146 -221h-59z" />
<glyph unicode="&#xe2;" horiz-adv-x="649" d="M102 193v157q0 148 138 211l231 109v223q0 68 -45 111t-109 43q-65 0 -108 -42t-43 -112v-92h-64v92q0 97 60.5 155t154.5 58q95 0 156.5 -58t61.5 -155v-700q0 -97 -61 -155t-155 -58q-93 0 -155 58.5t-62 154.5zM152 1233l135 221h61l135 -221h-59q-12 19 -33.5 52.5 t-39.5 62t-34 53.5l-106 -168h-59zM166 193q0 -70 44 -112t109 -42q66 0 109 42t43 112v411l-209 -98q-96 -45 -96 -156v-157z" />
<glyph unicode="&#xe3;" horiz-adv-x="649" d="M102 193v157q0 148 138 211l231 109v223q0 68 -45 111t-109 43q-65 0 -108 -42t-43 -112v-92h-64v92q0 97 60.5 155t154.5 58q95 0 156.5 -58t61.5 -155v-700q0 -97 -61 -155t-155 -58q-93 0 -155 58.5t-62 154.5zM123 1309q0 59 31 93t79 34q24 0 47.5 -13.5t39.5 -29.5 t38.5 -29.5t44.5 -13.5q26 0 43.5 19.5t18.5 51.5h49q-1 -61 -31 -95t-80 -34q-24 0 -47.5 13.5t-39.5 29.5t-38.5 29.5t-44.5 13.5q-26 0 -43.5 -18.5t-17.5 -50.5h-49zM166 193q0 -70 44 -112t109 -42q66 0 109 42t43 112v411l-209 -98q-96 -45 -96 -156v-157z" />
<glyph unicode="&#xe4;" horiz-adv-x="649" d="M102 193v157q0 148 138 211l231 109v223q0 68 -45 111t-109 43q-65 0 -108 -42t-43 -112v-92h-64v92q0 97 60.5 155t154.5 58q95 0 156.5 -58t61.5 -155v-700q0 -97 -61 -155t-155 -58q-93 0 -155 58.5t-62 154.5zM166 193q0 -70 44 -112t109 -42q66 0 109 42t43 112v411 l-209 -98q-96 -45 -96 -156v-157zM174 1372q0 22 12.5 34.5t34.5 12.5q23 0 36 -12.5t13 -34.5q0 -21 -13 -35t-36 -14q-21 0 -34 14t-13 35zM360 1372q0 22 13 34.5t35 12.5q23 0 36 -12.5t13 -34.5q0 -21 -13 -35t-36 -14q-21 0 -34.5 14t-13.5 35z" />
<glyph unicode="&#xe5;" horiz-adv-x="649" d="M102 193v157q0 148 138 211l231 109v223q0 68 -45 111t-109 43q-65 0 -108 -42t-43 -112v-92h-64v92q0 97 60.5 155t154.5 58q95 0 156.5 -58t61.5 -155v-700q0 -97 -61 -155t-155 -58q-93 0 -155 58.5t-62 154.5zM166 193q0 -70 44 -112t109 -42q66 0 109 42t43 112v411 l-209 -98q-96 -45 -96 -156v-157zM188 1352q0 57 37.5 94t91.5 37q55 0 93.5 -37t38.5 -94q0 -55 -38.5 -92t-93.5 -37q-53 0 -91 37t-38 92zM242 1352q0 -35 21.5 -57.5t53.5 -22.5q34 0 56 22.5t22 57.5q0 36 -22 59t-56 23q-33 0 -54 -23t-21 -59z" />
<glyph unicode="&#xe6;" horiz-adv-x="995" d="M102 182v129q0 78 41.5 120t110.5 69l213 82v319q0 69 -42 106t-108 37q-70 0 -110.5 -36.5t-40.5 -106.5v-90h-64v90q0 96 59 150.5t156 54.5q61 0 109.5 -28.5t71.5 -78.5q22 50 70 78.5t112 28.5q95 0 154 -54t59 -149v-119q0 -103 -100 -141l-263 -100v-359 q0 -72 40 -108.5t110 -36.5q66 0 107.5 37t41.5 108v103h64v-103q0 -97 -59 -150.5t-154 -53.5q-63 0 -110.5 27t-69.5 75q-23 -47 -72 -74.5t-111 -27.5q-98 0 -156.5 53t-58.5 149zM166 182q0 -70 41 -106.5t110 -36.5q66 0 108 37t42 108v334l-188 -72 q-113 -43 -113 -135v-129zM530 606l246 92q53 18 53 86v119q0 68 -41.5 104.5t-107.5 36.5q-70 0 -110 -36.5t-40 -106.5v-295z" />
<glyph unicode="&#xe7;" horiz-adv-x="620" d="M115 193v700q0 97 61.5 155t153.5 58q93 0 155 -58t62 -155v-92h-64v92q0 70 -43.5 112t-109.5 42q-65 0 -108.5 -42t-43.5 -112v-700q0 -71 43.5 -112.5t108.5 -41.5q67 0 110 41t43 113v104h64v-104q0 -97 -59 -153.5t-150 -59.5l-6 -60q104 -4 104 -108q0 -47 -36 -76 t-83 -29q-44 0 -88 33l19 39q40 -25 71 -25q24 0 42 16.5t18 43.5q0 65 -64 65h-28l-15 15l15 90q-76 12 -124 67.5t-48 141.5z" />
<glyph unicode="&#xe8;" horiz-adv-x="649" d="M115 193v700q0 96 61 154.5t154 58.5q94 0 155.5 -58.5t61.5 -154.5v-174q0 -50 -20.5 -79.5t-63.5 -51.5l-285 -142v-253q0 -68 44 -111t108 -43q66 0 109.5 42t43.5 112v104h64v-104q0 -98 -61 -155.5t-156 -57.5q-94 0 -154.5 57.5t-60.5 155.5zM178 516l264 129 q18 9 29.5 29.5t11.5 44.5v174q0 69 -44 111.5t-109 42.5q-63 0 -107.5 -42.5t-44.5 -111.5v-377zM197 1454h73l131 -221h-59z" />
<glyph unicode="&#xe9;" horiz-adv-x="649" d="M115 193v700q0 96 61 154.5t154 58.5q94 0 155.5 -58.5t61.5 -154.5v-174q0 -50 -20.5 -79.5t-63.5 -51.5l-285 -142v-253q0 -68 44 -111t108 -43q66 0 109.5 42t43.5 112v104h64v-104q0 -98 -61 -155.5t-156 -57.5q-94 0 -154.5 57.5t-60.5 155.5zM178 516l264 129 q18 9 29.5 29.5t11.5 44.5v174q0 69 -44 111.5t-109 42.5q-63 0 -107.5 -42.5t-44.5 -111.5v-377zM256 1233l131 221h74l-146 -221h-59z" />
<glyph unicode="&#xea;" horiz-adv-x="649" d="M115 193v700q0 96 61 154.5t154 58.5q94 0 155.5 -58.5t61.5 -154.5v-174q0 -50 -20.5 -79.5t-63.5 -51.5l-285 -142v-253q0 -68 44 -111t108 -43q66 0 109.5 42t43.5 112v104h64v-104q0 -98 -61 -155.5t-156 -57.5q-94 0 -154.5 57.5t-60.5 155.5zM164 1233l135 221h61 l136 -221h-60q-81 127 -106 168l-107 -168h-59zM178 516l264 129q18 9 29.5 29.5t11.5 44.5v174q0 69 -44 111.5t-109 42.5q-63 0 -107.5 -42.5t-44.5 -111.5v-377z" />
<glyph unicode="&#xeb;" horiz-adv-x="649" d="M115 193v700q0 96 61 154.5t154 58.5q94 0 155.5 -58.5t61.5 -154.5v-174q0 -50 -20.5 -79.5t-63.5 -51.5l-285 -142v-253q0 -68 44 -111t108 -43q66 0 109.5 42t43.5 112v104h64v-104q0 -98 -61 -155.5t-156 -57.5q-94 0 -154.5 57.5t-60.5 155.5zM178 516l264 129 q18 9 29.5 29.5t11.5 44.5v174q0 69 -44 111.5t-109 42.5q-63 0 -107.5 -42.5t-44.5 -111.5v-377zM186 1372q0 22 12.5 34.5t34.5 12.5q23 0 36.5 -12.5t13.5 -34.5q0 -21 -13.5 -35t-36.5 -14q-21 0 -34 14t-13 35zM373 1372q0 22 12.5 34.5t34.5 12.5q23 0 36 -12.5 t13 -34.5q0 -21 -13 -35t-36 -14q-21 0 -34 14t-13 35z" />
<glyph unicode="&#xec;" horiz-adv-x="325" d="M29 1454h73l131 -221h-59zM131 0v1085h64v-1085h-64z" />
<glyph unicode="&#xed;" horiz-adv-x="325" d="M88 1233l131 221h74l-146 -221h-59zM131 0v1085h64v-1085h-64z" />
<glyph unicode="&#xee;" horiz-adv-x="325" d="M-4 1233l135 221h62l135 -221h-60q-81 127 -106 168l-107 -168h-59zM131 0v1085h64v-1085h-64z" />
<glyph unicode="&#xef;" horiz-adv-x="325" d="M18 1372q0 22 13 34.5t35 12.5q23 0 36 -12.5t13 -34.5q0 -21 -13 -35t-36 -14q-21 0 -34.5 14t-13.5 35zM131 0v1085h64v-1085h-64zM205 1372q0 22 12.5 34.5t34.5 12.5q23 0 36 -12.5t13 -34.5q0 -21 -13 -35t-36 -14q-21 0 -34 14t-13 35z" />
<glyph unicode="&#xf0;" horiz-adv-x="659" d="M115 193v700q0 97 61 155t154 58q49 0 89 -24t62 -64v117q0 84 -26 147l-119 -63l-23 38l117 64q-53 74 -149 74q-37 0 -72 -9v58q42 10 72 10q133 0 204 -102l109 59l20 -41l-104 -57q35 -72 35 -178v-942q0 -98 -60.5 -155.5t-152.5 -57.5q-94 0 -155.5 57.5 t-61.5 155.5zM178 193q0 -71 43.5 -112.5t110.5 -41.5q65 0 107 41t42 113v700q0 70 -43 112t-108 42q-66 0 -109 -42t-43 -112v-700z" />
<glyph unicode="&#xf1;" horiz-adv-x="661" d="M115 0v893q0 97 61 155t154 58t155 -58t62 -155v-893h-64v893q0 70 -43.5 112t-109.5 42q-65 0 -108.5 -42t-43.5 -112v-893h-63zM135 1309q0 59 31 93t80 34q24 0 47.5 -13.5t39.5 -29.5t38.5 -29.5t44.5 -13.5q26 0 42.5 19.5t18.5 51.5h49q-1 -61 -30.5 -95t-79.5 -34 q-24 0 -47.5 13.5t-39.5 29.5t-38.5 29.5t-44.5 13.5q-26 0 -44 -18.5t-18 -50.5h-49z" />
<glyph unicode="&#xf2;" horiz-adv-x="661" d="M115 193v700q0 97 61 155t154 58t155 -58t62 -155v-700q0 -98 -61.5 -155.5t-155.5 -57.5t-154.5 57t-60.5 156zM178 193q0 -71 43.5 -112.5t108.5 -41.5q67 0 110 41t43 113v700q0 70 -43.5 112t-109.5 42t-109 -42t-43 -112v-700zM197 1454h73l131 -221h-59z" />
<glyph unicode="&#xf3;" horiz-adv-x="661" d="M115 193v700q0 97 61 155t154 58t155 -58t62 -155v-700q0 -98 -61.5 -155.5t-155.5 -57.5t-154.5 57t-60.5 156zM178 193q0 -71 43.5 -112.5t108.5 -41.5q67 0 110 41t43 113v700q0 70 -43.5 112t-109.5 42t-109 -42t-43 -112v-700zM256 1233l131 221h74l-146 -221h-59z " />
<glyph unicode="&#xf4;" horiz-adv-x="661" d="M115 193v700q0 97 61 155t154 58t155 -58t62 -155v-700q0 -98 -61.5 -155.5t-155.5 -57.5t-154.5 57t-60.5 156zM164 1233l135 221h61l136 -221h-60q-81 127 -106 168l-107 -168h-59zM178 193q0 -71 43.5 -112.5t108.5 -41.5q67 0 110 41t43 113v700q0 70 -43.5 112 t-109.5 42t-109 -42t-43 -112v-700z" />
<glyph unicode="&#xf5;" horiz-adv-x="661" d="M115 193v700q0 97 61 155t154 58t155 -58t62 -155v-700q0 -98 -61.5 -155.5t-155.5 -57.5t-154.5 57t-60.5 156zM135 1309q0 59 31 93t80 34q24 0 47.5 -13.5t39.5 -29.5t38.5 -29.5t44.5 -13.5q26 0 42.5 19.5t18.5 51.5h49q-1 -61 -30.5 -95t-79.5 -34 q-24 0 -47.5 13.5t-39.5 29.5t-38.5 29.5t-44.5 13.5q-26 0 -44 -18.5t-18 -50.5h-49zM178 193q0 -71 43.5 -112.5t108.5 -41.5q67 0 110 41t43 113v700q0 70 -43.5 112t-109.5 42t-109 -42t-43 -112v-700z" />
<glyph unicode="&#xf6;" horiz-adv-x="661" d="M115 193v700q0 97 61 155t154 58t155 -58t62 -155v-700q0 -98 -61.5 -155.5t-155.5 -57.5t-154.5 57t-60.5 156zM178 193q0 -71 43.5 -112.5t108.5 -41.5q67 0 110 41t43 113v700q0 70 -43.5 112t-109.5 42t-109 -42t-43 -112v-700zM186 1372q0 22 12.5 34.5t34.5 12.5 q23 0 36.5 -12.5t13.5 -34.5q0 -21 -13.5 -35t-36.5 -14q-21 0 -34 14t-13 35zM373 1372q0 22 12.5 34.5t34.5 12.5q23 0 36 -12.5t13 -34.5q0 -21 -13 -35t-36 -14q-21 0 -34 14t-13 35z" />
<glyph unicode="&#xf7;" d="M78 539v57h565v-57h-565zM330 248v102h61v-102h-61zM330 801v102h61v-102h-61z" />
<glyph unicode="&#xf8;" horiz-adv-x="661" d="M115 193v700q0 97 61 155t154 58q57 0 114 -31l25 88l45 -14l-29 -102q62 -62 62 -154v-700q0 -98 -61.5 -155.5t-155.5 -57.5q-69 0 -125 32l-25 -90l-45 15l31 110q-51 57 -51 146zM178 193q0 -39 10 -62l240 883q-45 33 -98 33q-66 0 -109 -42t-43 -112v-700zM221 78 q42 -39 109 -39t110 41t43 113v700q0 43 -18 78z" />
<glyph unicode="&#xf9;" horiz-adv-x="661" d="M115 193v892h63v-892q0 -71 43.5 -112.5t108.5 -41.5q67 0 110 41t43 113v892h64v-892q0 -98 -61.5 -155.5t-155.5 -57.5q-92 0 -153.5 57.5t-61.5 155.5zM197 1454h73l131 -221h-59z" />
<glyph unicode="&#xfa;" horiz-adv-x="661" d="M115 193v892h63v-892q0 -71 43.5 -112.5t108.5 -41.5q67 0 110 41t43 113v892h64v-892q0 -98 -61.5 -155.5t-155.5 -57.5q-92 0 -153.5 57.5t-61.5 155.5zM256 1233l131 221h74l-146 -221h-59z" />
<glyph unicode="&#xfb;" horiz-adv-x="661" d="M115 193v892h63v-892q0 -71 43.5 -112.5t108.5 -41.5q67 0 110 41t43 113v892h64v-892q0 -98 -61.5 -155.5t-155.5 -57.5q-92 0 -153.5 57.5t-61.5 155.5zM164 1233l135 221h61l136 -221h-60q-81 127 -106 168l-107 -168h-59z" />
<glyph unicode="&#xfc;" horiz-adv-x="661" d="M115 193v892h63v-892q0 -71 43.5 -112.5t108.5 -41.5q67 0 110 41t43 113v892h64v-892q0 -98 -61.5 -155.5t-155.5 -57.5q-92 0 -153.5 57.5t-61.5 155.5zM186 1372q0 22 12.5 34.5t34.5 12.5q23 0 36.5 -12.5t13.5 -34.5q0 -21 -13.5 -35t-36.5 -14q-21 0 -34 14t-13 35 zM373 1372q0 22 12.5 34.5t34.5 12.5q23 0 36 -12.5t13 -34.5q0 -21 -13 -35t-36 -14q-21 0 -34 14t-13 35z" />
<glyph unicode="&#xfd;" horiz-adv-x="661" d="M115 193v892h63v-892q0 -69 44.5 -111.5t107.5 -42.5q64 0 108.5 41.5t44.5 112.5v892h64v-1286q0 -95 -61 -152t-154 -57q-100 0 -157.5 55.5t-57.5 153.5q0 27 10 56t18.5 43t12.5 18l55 -25q-35 -49 -35 -92q0 -68 45 -108.5t109 -40.5q66 0 108.5 40t42.5 109v258 q-52 -77 -153 -77q-92 0 -153.5 57.5t-61.5 155.5zM256 1233l131 221h74l-146 -221h-59z" />
<glyph unicode="&#xfe;" horiz-adv-x="661" d="M115 -397v1913h63v-490q23 38 63.5 59t88.5 21q93 0 155 -58t62 -155v-700q0 -98 -61.5 -155.5t-155.5 -57.5q-51 0 -91.5 20t-60.5 57v-454h-63zM178 193q0 -71 43.5 -112.5t108.5 -41.5t109 41.5t44 112.5v700q0 70 -43.5 112t-109.5 42t-109 -42t-43 -112v-700z" />
<glyph unicode="&#xff;" horiz-adv-x="661" d="M115 193v892h63v-892q0 -69 44.5 -111.5t107.5 -42.5q64 0 108.5 41.5t44.5 112.5v892h64v-1286q0 -95 -61 -152t-154 -57q-100 0 -157.5 55.5t-57.5 153.5q0 27 10 56t18.5 43t12.5 18l55 -25q-35 -49 -35 -92q0 -68 45 -108.5t109 -40.5q66 0 108.5 40t42.5 109v258 q-52 -77 -153 -77q-92 0 -153.5 57.5t-61.5 155.5zM186 1372q0 22 12.5 34.5t34.5 12.5q23 0 36.5 -12.5t13.5 -34.5q0 -21 -13.5 -35t-36.5 -14q-21 0 -34 14t-13 35zM373 1372q0 22 12.5 34.5t34.5 12.5q23 0 36 -12.5t13 -34.5q0 -21 -13 -35t-36 -14q-21 0 -34 14 t-13 35z" />
<glyph unicode="&#x152;" horiz-adv-x="985" d="M123 238v960q0 108 63 172t174 64h560v-60h-338v-622h299v-60h-299v-633h338v-59h-560q-110 0 -173.5 64t-63.5 174zM186 238q0 -81 48 -130t126 -49h158v1315h-158q-80 0 -127 -47.5t-47 -128.5v-960z" />
<glyph unicode="&#x153;" horiz-adv-x="1017" d="M115 193v700q0 97 61 155t154 58q61 0 111 -29.5t73 -79.5q23 50 73 79.5t111 29.5q94 0 155.5 -58.5t61.5 -154.5v-174q0 -50 -20.5 -79.5t-63.5 -51.5l-284 -142v-253q0 -70 43 -112t108 -42q66 0 110 42t44 112v104h63v-104q0 -98 -61 -155.5t-156 -57.5 q-62 0 -112 28.5t-72 77.5q-23 -50 -73 -78t-111 -28q-94 0 -154.5 57t-60.5 156zM178 193q0 -71 43.5 -112.5t108.5 -41.5q67 0 110 41t43 113v700q0 69 -43.5 111.5t-109.5 42.5t-109 -42t-43 -112v-700zM547 516l264 129q18 9 29.5 29.5t11.5 44.5v174q0 69 -44.5 111.5 t-109.5 42.5q-63 0 -107 -42.5t-44 -111.5v-377z" />
<glyph unicode="&#x178;" horiz-adv-x="688" d="M106 1010v424h64v-424q0 -66 31 -135.5t78 -145t63 -115.5q16 41 63.5 115t80 144t32.5 137v424h64v-424q0 -70 -32.5 -148t-71 -133.5t-71 -112t-32.5 -88.5v-528h-64v528q0 32 -32 88.5t-70.5 111.5t-70.5 133t-32 149zM201 1659q0 22 12.5 34.5t34.5 12.5 q23 0 36 -12.5t13 -34.5q0 -21 -13 -35t-36 -14q-21 0 -34 14t-13 35zM387 1659q0 22 12.5 34.5t34.5 12.5q23 0 36 -12.5t13 -34.5q0 -21 -13 -35t-36 -14q-21 0 -34 14t-13 35z" />
<glyph unicode="&#x2c6;" horiz-adv-x="454" d="M61 1233l136 221h61l135 -221h-59q-12 19 -33.5 52.5t-39.5 62t-34 53.5l-106 -168h-60z" />
<glyph unicode="&#x2dc;" horiz-adv-x="514" d="M61 1309q0 59 31 93t80 34q24 0 47.5 -13.5t39.5 -29.5t38.5 -29.5t44.5 -13.5q26 0 42.5 19.5t18.5 51.5h50q-1 -61 -31 -95t-80 -34q-24 0 -47.5 13.5t-39.5 29.5t-38.5 29.5t-44.5 13.5q-26 0 -43.5 -18.5t-17.5 -50.5h-50z" />
<glyph unicode="&#x2000;" horiz-adv-x="884" />
<glyph unicode="&#x2001;" horiz-adv-x="1769" />
<glyph unicode="&#x2002;" horiz-adv-x="884" />
<glyph unicode="&#x2003;" horiz-adv-x="1769" />
<glyph unicode="&#x2004;" horiz-adv-x="589" />
<glyph unicode="&#x2005;" horiz-adv-x="442" />
<glyph unicode="&#x2006;" horiz-adv-x="294" />
<glyph unicode="&#x2007;" horiz-adv-x="294" />
<glyph unicode="&#x2008;" horiz-adv-x="221" />
<glyph unicode="&#x2009;" horiz-adv-x="353" />
<glyph unicode="&#x200a;" horiz-adv-x="98" />
<glyph unicode="&#x2010;" horiz-adv-x="452" d="M66 541v59h321v-59h-321z" />
<glyph unicode="&#x2011;" horiz-adv-x="452" d="M66 541v59h321v-59h-321z" />
<glyph unicode="&#x2012;" horiz-adv-x="452" d="M66 541v59h321v-59h-321z" />
<glyph unicode="&#x2013;" horiz-adv-x="1024" d="M41 535v57h942v-57h-942z" />
<glyph unicode="&#x2014;" horiz-adv-x="2048" d="M41 535v57h1970v-57h-1970z" />
<glyph unicode="&#x2018;" horiz-adv-x="219" d="M68 1282q0 127 77 238l48 -11q-64 -112 -64 -223q0 -44 10 -86q-10 -2 -30.5 -4t-30.5 -4q-10 48 -10 90z" />
<glyph unicode="&#x2019;" horiz-adv-x="219" d="M27 1200q63 110 63 225q0 44 -10 86l61 7q11 -50 11 -91q0 -119 -78 -237z" />
<glyph unicode="&#x201a;" horiz-adv-x="219" d="M27 -199q63 110 63 224q0 44 -10 86q10 2 30.5 4t30.5 4q11 -53 11 -90q0 -120 -78 -238z" />
<glyph unicode="&#x201c;" horiz-adv-x="397" d="M68 1282q0 127 77 238l48 -11q-64 -112 -64 -223q0 -44 10 -86q-10 -2 -30.5 -4t-30.5 -4q-10 48 -10 90zM246 1282q0 125 78 238l47 -11q-64 -112 -64 -223q0 -44 10 -86q-10 -2 -30.5 -4t-30.5 -4q-10 48 -10 90z" />
<glyph unicode="&#x201d;" horiz-adv-x="397" d="M27 1200q63 110 63 225q0 44 -10 86l61 7q11 -50 11 -91q0 -119 -78 -237zM205 1200q63 110 63 225q0 44 -10 86l61 7q11 -49 11 -91q0 -119 -78 -237z" />
<glyph unicode="&#x201e;" horiz-adv-x="397" d="M27 -199q63 110 63 224q0 44 -10 86q10 2 30.5 4t30.5 4q11 -53 11 -90q0 -120 -78 -238zM205 -199q63 110 63 224q0 44 -10 86q10 2 30.5 4t30.5 4q11 -53 11 -90q0 -120 -78 -238z" />
<glyph unicode="&#x2022;" horiz-adv-x="516" d="M102 563q0 66 45 111t111 45t111 -45t45 -111t-45 -110.5t-111 -44.5t-111 44.5t-45 110.5z" />
<glyph unicode="&#x2026;" horiz-adv-x="673" d="M66 39q0 20 12.5 32.5t32.5 12.5q22 0 34.5 -12.5t12.5 -32.5q0 -22 -12.5 -34.5t-34.5 -12.5q-20 0 -32.5 12.5t-12.5 34.5zM291 39q0 20 12.5 32.5t34.5 12.5q20 0 32.5 -12.5t12.5 -32.5q0 -22 -12.5 -34.5t-32.5 -12.5q-22 0 -34.5 12.5t-12.5 34.5zM516 39 q0 20 12.5 32.5t34.5 12.5q20 0 32.5 -12.5t12.5 -32.5q0 -22 -12.5 -34.5t-32.5 -12.5q-22 0 -34.5 12.5t-12.5 34.5z" />
<glyph unicode="&#x202f;" horiz-adv-x="353" />
<glyph unicode="&#x2039;" horiz-adv-x="430" d="M66 553l231 362h68l-232 -362l232 -363h-68z" />
<glyph unicode="&#x203a;" horiz-adv-x="430" d="M66 190l231 363l-231 362h67l232 -362l-232 -363h-67z" />
<glyph unicode="&#x205f;" horiz-adv-x="442" />
<glyph unicode="&#x20ac;" d="M53 791v59h133v369q0 107 64.5 171t173.5 64t173.5 -64t64.5 -171v-119h-64v119q0 81 -47 128.5t-127 47.5q-78 0 -126 -47.5t-48 -128.5v-369h311v-59h-311v-162h313v-60h-313v-352q0 -82 48 -130t126 -48q82 0 128 47.5t46 130.5v121h64v-121q0 -110 -64.5 -173.5 t-173.5 -63.5t-173.5 63.5t-64.5 173.5v352h-131v60h131v162h-133z" />
<glyph unicode="&#x2122;" horiz-adv-x="655" d="M29 1393v41h207v-41h-80v-381h-43v381h-84zM276 1012v334q0 43 26 69.5t65 26.5q47 0 67 -33q17 33 68 33q39 0 63.5 -25.5t24.5 -70.5v-334h-43v334q0 25 -13 40t-32 15q-21 0 -34 -14.5t-13 -40.5v-334h-43v334q0 26 -13 40.5t-34 14.5t-33.5 -14.5t-12.5 -40.5v-334 h-43z" />
<glyph unicode="&#x25fc;" horiz-adv-x="1085" d="M0 0v1085h1085v-1085h-1085z" />
</font>
</defs>
</svg>
