<?xml version="1.0" standalone="no"?>
<!DOCTYPE svg PUBLIC "-//W3C//DTD SVG 1.1//EN" "http://www.w3.org/Graphics/SVG/1.1/DTD/svg11.dtd" >
<svg xmlns="http://www.w3.org/2000/svg">
<metadata></metadata>
<defs>
<font id="andobold" horiz-adv-x="745" >
<font-face units-per-em="2048" ascent="1577" descent="-471" />
<missing-glyph horiz-adv-x="327" />
<glyph unicode="&#xfb01;" horiz-adv-x="788" d="M25 928v157h110v205q0 117 80 181.5t195 64.5q114 0 193 -64.5t79 -181.5v-71h-168v71q0 39 -30 64.5t-74 25.5t-75.5 -25.5t-31.5 -64.5v-205h379v-1085h-168v928h-211v-928h-168v928h-110z" />
<glyph unicode="&#xfb02;" horiz-adv-x="817" d="M25 928v157h110v175q0 112 77 184t187 72h312v-1516h-168v1362h-144q-43 0 -69.5 -28t-26.5 -74v-175h158v-157h-158v-928h-168v928h-110z" />
<glyph unicode="&#xfb03;" horiz-adv-x="1183" d="M25 928v157h110v154q0 111 66.5 174.5t169.5 63.5q72 0 139 -31l-37 -141q-40 16 -102 16q-29 0 -48.5 -22.5t-19.5 -59.5v-154h227v205q0 117 80 181.5t195 64.5q114 0 193 -64.5t79 -181.5v-71h-168v71q0 39 -30 64.5t-74 25.5t-75.5 -25.5t-31.5 -64.5v-205h379v-1085 h-168v928h-211v-928h-168v928h-227v-928h-168v928h-110z" />
<glyph unicode="&#xfb04;" horiz-adv-x="1212" d="M25 928v157h110v154q0 111 66.5 174.5t169.5 63.5q72 0 139 -31l-37 -141q-40 16 -102 16q-29 0 -48.5 -22.5t-19.5 -59.5v-154h227v175q0 112 77.5 184t187.5 72h311v-1516h-168v1362h-143q-43 0 -70 -28t-27 -74v-175h158v-157h-158v-928h-168v928h-227v-928h-168v928 h-110z" />
<glyph horiz-adv-x="0" />
<glyph horiz-adv-x="682" />
<glyph unicode=" "  horiz-adv-x="327" />
<glyph unicode="&#x09;" horiz-adv-x="327" />
<glyph unicode="&#xa0;" horiz-adv-x="327" />
<glyph unicode="!" horiz-adv-x="380" d="M92 82q0 42 28 70t70 28t70.5 -28t28.5 -70t-28.5 -70t-70.5 -28t-70 28t-28 70zM106 350v1084h168v-1084h-168z" />
<glyph unicode="&#x22;" horiz-adv-x="581" d="M90 1085v431h148v-431h-148zM344 1085v431h148v-431h-148z" />
<glyph unicode="#" d="M27 401v150h106l35 313h-107v150h125l47 420h152l-47 -420h135l47 420h152l-47 -420h92v-150h-111l-35 -313h111v-150h-127l-45 -401h-152l45 401h-135l-45 -401h-151l45 401h-90zM285 551h135l35 313h-136z" />
<glyph unicode="$" d="M98 295v121h172v-121q0 -55 26.5 -86t76.5 -31q47 0 74.5 31.5t27.5 85.5v131q0 58 -21 104t-54 78.5t-73 62t-80.5 62t-73.5 70t-54 95t-21 128.5v115q0 106 51 175t142 91v152h164v-152q89 -24 140.5 -93t51.5 -173v-117h-172v117q0 55 -28 85.5t-74 30.5 q-48 0 -75.5 -30.5t-27.5 -85.5v-115q0 -52 21 -93.5t54 -71t73 -57.5t80.5 -61.5t73.5 -73.5t54 -102.5t21 -140.5v-131q0 -104 -51.5 -174t-140.5 -92v-152h-164v150q-90 22 -141.5 92t-51.5 176z" />
<glyph unicode="%" horiz-adv-x="1093" d="M70 969v299q0 89 49.5 137.5t138.5 48.5q91 0 139.5 -48.5t48.5 -137.5v-299q0 -89 -48.5 -137t-139.5 -48q-90 0 -139 48t-49 137zM168 0l631 1434h127l-631 -1434h-127zM205 969q0 -23 15 -38.5t38 -15.5t38 15.5t15 38.5v299q0 23 -15 39t-38 16t-38 -16t-15 -39v-299 zM647 164v299q0 89 49.5 137.5t139.5 48.5q91 0 139.5 -48.5t48.5 -137.5v-299q0 -89 -48.5 -136.5t-139.5 -47.5q-90 0 -139.5 47.5t-49.5 136.5zM782 164q0 -23 15.5 -38t38.5 -15t38 15t15 38v299q0 23 -15 39t-38 16t-38.5 -16t-15.5 -39v-299z" />
<glyph unicode="&#x26;" horiz-adv-x="821" d="M98 252v313q0 63 34 118.5t81 70.5q-50 20 -82.5 71.5t-32.5 120.5v240q0 122 75.5 195t199.5 73t199 -73t75 -195v-142h-172v142q0 49 -28 78.5t-74 29.5t-74.5 -29.5t-28.5 -78.5v-240q0 -50 28.5 -81t72.5 -31h401v-160h-125v-422q0 -60 30.5 -88.5t94.5 -28.5v-153 q-70 0 -128.5 25.5t-78.5 64.5q-22 -38 -78 -65t-114 -27q-124 0 -199.5 73.5t-75.5 198.5zM270 252q0 -52 28.5 -82.5t74.5 -30.5t74 30.5t28 82.5v422h-102q-44 0 -73.5 -31.5t-29.5 -77.5v-313z" />
<glyph unicode="'" horiz-adv-x="327" d="M90 1085v431h148v-431h-148z" />
<glyph unicode="(" horiz-adv-x="466" d="M90 602q0 305 64.5 545.5t148.5 349.5h156q-79 -104 -138 -357t-59 -538q0 -286 59 -537.5t138 -357.5h-156q-84 109 -148.5 349t-64.5 546z" />
<glyph unicode=")" horiz-adv-x="466" d="M8 -293q79 106 138 357.5t59 537.5q0 285 -59 538t-138 357h156q84 -109 148.5 -349.5t64.5 -545.5q0 -306 -64.5 -546t-148.5 -349h-156z" />
<glyph unicode="*" horiz-adv-x="393" d="M33 1399l43 84l88 -70l-12 111h90l-13 -111l88 72l43 -86l-94 -39l94 -37l-43 -84l-86 66l11 -109h-90l12 107l-88 -66l-41 86l94 35z" />
<glyph unicode="+" d="M66 487v156h225v268h164v-268h225v-156h-225v-268h-164v268h-225z" />
<glyph unicode="," horiz-adv-x="288" d="M12 -215q64 110 64 238q0 38 -8 98l155 26q17 -46 17 -122q0 -133 -113 -271z" />
<glyph unicode="-" horiz-adv-x="454" d="M53 494v159h348v-159h-348z" />
<glyph unicode="." horiz-adv-x="303" d="M53 82q0 42 28.5 70t70.5 28t70 -28t28 -70t-28 -70t-70 -28t-70.5 28t-28.5 70z" />
<glyph unicode="/" horiz-adv-x="704" d="M33 0l467 1434h172l-467 -1434h-172z" />
<glyph unicode="0" d="M98 250v934q0 125 77 197.5t198 72.5t197.5 -72.5t76.5 -197.5v-934q0 -125 -76.5 -197.5t-197.5 -72.5t-198 72.5t-77 197.5zM270 250q0 -51 28.5 -81t74.5 -30t74 30t28 81v934q0 51 -28 80.5t-74 29.5t-74.5 -30t-28.5 -80v-934z" />
<glyph unicode="1" horiz-adv-x="600" d="M53 1053v155q90 25 153.5 90.5t94.5 135.5h148v-1434h-173v1178q-40 -57 -91 -88t-132 -37z" />
<glyph unicode="2" horiz-adv-x="696" d="M61 0v27q0 145 39 275.5t94 227t110.5 186t94.5 189t39 199.5v80q0 51 -28 80.5t-74 29.5t-74.5 -30t-28.5 -80v-140h-172v140q0 125 77 197.5t198 72.5t197.5 -72.5t76.5 -197.5v-80q0 -104 -34 -207.5t-84 -190.5t-101 -171.5t-92 -182.5t-51 -192h362v-160h-549z" />
<glyph unicode="3" horiz-adv-x="708" d="M61 252v143h172v-143q0 -52 28.5 -82.5t74.5 -30.5t74 30.5t28 82.5v276q0 47 -27 78t-71 31h-125v160h127q43 0 69.5 30.5t26.5 81.5v277q0 49 -28 78.5t-74 29.5t-74.5 -29.5t-28.5 -78.5v-142h-172v142q0 122 75.5 195t199.5 73t199 -73t75 -195v-277 q0 -69 -32.5 -120.5t-81.5 -71.5q47 -15 80.5 -70.5t33.5 -118.5v-276q0 -125 -75 -198.5t-199 -73.5t-199.5 73.5t-75.5 198.5z" />
<glyph unicode="4" horiz-adv-x="708" d="M72 268v88q0 115 32 255.5t70 253.5t70 269.5t32 299.5h173q0 -142 -29 -294t-64 -260t-68.5 -236t-39.5 -222h192v373h172v-795h-172v268h-368z" />
<glyph unicode="5" d="M98 250v145h172v-145q0 -51 28.5 -81t74.5 -30t74 30t28 81v358q0 51 -28 81t-74 30q-42 0 -69.5 -21t-33.5 -55h-168v791h535v-160h-363v-432q37 37 99 37q122 0 198 -72t76 -199v-358q0 -125 -76.5 -197.5t-197.5 -72.5t-198 72.5t-77 197.5z" />
<glyph unicode="6" d="M98 250v934q0 125 77 197.5t198 72.5t197.5 -72.5t76.5 -197.5v-146h-172v146q0 51 -28 80.5t-74 29.5t-74.5 -30t-28.5 -80v-344q45 39 103 39q121 0 197.5 -73t76.5 -198v-358q0 -125 -76.5 -197.5t-197.5 -72.5t-198 72.5t-77 197.5zM270 250q0 -51 28.5 -81t74.5 -30 t74 30t28 81v358q0 51 -28 81t-74 30t-74.5 -30t-28.5 -81v-358z" />
<glyph unicode="7" horiz-adv-x="626" d="M29 1276v158h522q10 -33 10 -86q0 -153 -27.5 -294.5t-66.5 -255t-77.5 -228t-65 -262t-25.5 -308.5h-172q0 160 26 307t64 260t76.5 220.5t66.5 233.5t31 255h-362z" />
<glyph unicode="8" d="M98 248v235q0 82 40 140t110 108q-70 52 -110 109t-40 135v207q0 125 75.5 198.5t199.5 73.5t199 -73.5t75 -198.5v-207q0 -78 -39.5 -135t-109.5 -109q70 -50 109.5 -108t39.5 -140v-235q0 -122 -75 -195t-199 -73t-199.5 73t-75.5 195zM270 248q0 -49 28.5 -79 t74.5 -30t74 30t28 79v235q0 47 -26.5 84t-75.5 76q-50 -38 -76.5 -75.5t-26.5 -84.5v-235zM270 975q0 -83 103 -158q49 37 75.5 74t26.5 84v207q0 52 -28 82t-74 30t-74.5 -30t-28.5 -82v-207z" />
<glyph unicode="9" d="M98 250v145h172v-145q0 -51 28.5 -81t74.5 -30t74 30t28 81v344q-46 -39 -102 -39q-121 0 -198 72.5t-77 197.5v359q0 125 77 197.5t198 72.5t197.5 -72.5t76.5 -197.5v-934q0 -125 -76.5 -197.5t-197.5 -72.5t-198 72.5t-77 197.5zM270 825q0 -50 28.5 -80t74.5 -30 t74 29.5t28 80.5v359q0 51 -28 80.5t-74 29.5t-74.5 -30t-28.5 -80v-359z" />
<glyph unicode=":" horiz-adv-x="303" d="M53 254q0 42 28.5 70t70.5 28t70 -28t28 -70t-28 -70t-70 -28t-70.5 28t-28.5 70zM53 868q0 42 28.5 70.5t70.5 28.5t70 -28.5t28 -70.5t-28 -70t-70 -28t-70.5 28t-28.5 70z" />
<glyph unicode=";" horiz-adv-x="303" d="M14 -215q64 110 64 238q0 38 -8 98l155 26q17 -46 17 -122q0 -133 -113 -271zM53 868q0 42 28.5 70.5t70.5 28.5t70 -28.5t28 -70.5t-28 -70t-70 -28t-70.5 28t-28.5 70z" />
<glyph unicode="&#x3c;" d="M76 504v112l592 371v-184l-396 -244l396 -242v-184z" />
<glyph unicode="=" d="M66 340v156h614v-156h-614zM66 641v156h614v-156h-614z" />
<glyph unicode="&#x3e;" d="M76 133v184l395 242l-395 244v184l592 -371v-112z" />
<glyph unicode="?" horiz-adv-x="665" d="M53 1044v146q0 121 72.5 192.5t200.5 71.5t199 -71t71 -193v-340q0 -104 -48 -170t-138 -88v-242h-168v385h84q47 0 73.5 30.5t26.5 84.5v340q0 51 -27 80.5t-73 29.5q-47 0 -75 -29.5t-28 -80.5v-146h-170zM227 82q0 42 28.5 70t70.5 28t70 -28t28 -70t-28 -70t-70 -28 t-70.5 28t-28.5 70z" />
<glyph unicode="@" horiz-adv-x="995" d="M98 96v971q0 168 116.5 277.5t283.5 109.5q169 0 284 -107t115 -280v-831q0 -118 -71.5 -186t-182.5 -68q-110 0 -182 67.5t-72 183.5v525q0 119 70.5 184.5t183.5 65.5q20 0 41 -9v-149q-16 2 -41 2q-42 0 -66 -24.5t-24 -69.5v-525q0 -45 24 -70.5t66 -25.5q40 0 65 27 t25 72v831q0 105 -69 168t-166 63t-166.5 -63t-69.5 -168v-971q0 -67 25 -121.5t66 -86.5t89 -49t97 -17q101 0 190 57l53 -141q-101 -72 -243 -72q-86 0 -164 28.5t-140.5 81t-99.5 135.5t-37 185z" />
<glyph unicode="A" d="M98 0v1184q0 125 77 197.5t198 72.5t197.5 -72.5t76.5 -197.5v-1184h-172v543h-205v-543h-172zM270 702h205v482q0 51 -28 80.5t-74 29.5t-74.5 -30t-28.5 -80v-482z" />
<glyph unicode="B" horiz-adv-x="737" d="M98 0v1434h275q124 0 199 -73.5t75 -195.5v-256q0 -69 -32.5 -120.5t-82.5 -71.5q47 -15 81 -70.5t34 -118.5v-256q0 -125 -75 -198.5t-199 -73.5h-275zM270 160h103q46 0 74 30t28 82v256q0 47 -27 78t-71 31h-107v-477zM270 797h109q43 0 69.5 30.5t26.5 81.5v256 q0 49 -28 79t-74 30h-103v-477z" />
<glyph unicode="C" horiz-adv-x="708" d="M98 250v934q0 125 77 197.5t198 72.5t197.5 -72.5t76.5 -197.5v-140h-172v140q0 51 -28 80.5t-74 29.5t-74.5 -30t-28.5 -80v-934q0 -51 28.5 -81t74.5 -30t74 30t28 81v145h172v-145q0 -125 -76.5 -197.5t-197.5 -72.5t-198 72.5t-77 197.5z" />
<glyph unicode="D" d="M98 0v1434h275q121 0 197.5 -73t76.5 -198v-893q0 -125 -76.5 -197.5t-197.5 -72.5h-275zM270 160h103q46 0 74 29.5t28 80.5v893q0 51 -28 81t-74 30h-103v-1114z" />
<glyph unicode="E" horiz-adv-x="595" d="M98 0v1434h445v-160h-273v-477h244v-160h-244v-477h273v-160h-445z" />
<glyph unicode="F" horiz-adv-x="583" d="M98 0v1434h445v-160h-273v-477h244v-160h-244v-637h-172z" />
<glyph unicode="G" d="M98 250v934q0 125 77 197.5t198 72.5t197.5 -72.5t76.5 -197.5v-140h-172v140q0 51 -28 80.5t-74 29.5t-74.5 -30t-28.5 -80v-934q0 -51 28.5 -81t74.5 -30t74 30t28 81v387h-102v160h274v-547q0 -125 -76.5 -197.5t-197.5 -72.5t-198 72.5t-77 197.5z" />
<glyph unicode="H" d="M98 0v1434h172v-637h205v637h172v-1434h-172v637h-205v-637h-172z" />
<glyph unicode="I" horiz-adv-x="385" d="M106 0v1434h173v-1434h-173z" />
<glyph unicode="J" horiz-adv-x="651" d="M45 227v189h172v-189q0 -39 23.5 -63.5t58.5 -24.5t58.5 24.5t23.5 63.5v1045h-287v162h459v-1207q0 -112 -73 -179.5t-181 -67.5q-109 0 -181.5 67t-72.5 180z" />
<glyph unicode="K" horiz-adv-x="737" d="M98 0v1434h172v-666q124 133 164.5 209.5t40.5 200.5v256h172v-256q0 -147 -39 -238.5t-139 -194.5q60 -67 94 -116t59 -126t25 -171v-332h-172v332q0 91 -31 161.5t-90 137.5l-84 -84v-547h-172z" />
<glyph unicode="L" horiz-adv-x="561" d="M98 0v1434h172v-1274h267v-160h-439z" />
<glyph unicode="M" horiz-adv-x="1056" d="M98 0v1206q0 112 74.5 180t183.5 68t174 -68q33 30 80 49t90 19q107 0 182.5 -68t75.5 -180v-1206h-172v1206q0 39 -25.5 63.5t-60.5 24.5q-36 0 -61 -24.5t-25 -63.5v-1206h-172v1206q0 39 -25 63.5t-61 24.5t-61 -24.5t-25 -63.5v-1206h-172z" />
<glyph unicode="N" d="M98 0v1184q0 125 77 197.5t198 72.5t197.5 -72.5t76.5 -197.5v-1184h-172v1184q0 51 -28 80.5t-74 29.5t-74.5 -30t-28.5 -80v-1184h-172z" />
<glyph unicode="O" d="M98 250v934q0 125 77 197.5t198 72.5t197.5 -72.5t76.5 -197.5v-934q0 -125 -76.5 -197.5t-197.5 -72.5t-198 72.5t-77 197.5zM270 250q0 -51 28.5 -81t74.5 -30t74 30t28 81v934q0 51 -28 80.5t-74 29.5t-74.5 -30t-28.5 -80v-934z" />
<glyph unicode="P" horiz-adv-x="716" d="M98 0v1434h275q124 0 199 -73.5t75 -195.5v-352q0 -127 -73.5 -199.5t-196.5 -72.5h-105v-541h-174zM272 700h107q43 0 69.5 31t26.5 82v352q0 49 -28 79t-74 30h-101v-574z" />
<glyph unicode="Q" d="M98 250v934q0 125 77 197.5t198 72.5t197.5 -72.5t76.5 -197.5v-934q0 -102 -51.5 -170t-138.5 -90v-246h-168v246q-88 22 -139.5 90t-51.5 170zM270 250q0 -51 28.5 -81t74.5 -30t74 30t28 81v934q0 51 -28 80.5t-74 29.5t-74.5 -30t-28.5 -80v-934z" />
<glyph unicode="R" horiz-adv-x="737" d="M98 0v1434h275q124 0 199 -73.5t75 -195.5v-256q0 -69 -32.5 -120.5t-82.5 -71.5q48 -15 81.5 -70t33.5 -119v-528h-172v528q0 47 -27 78t-71 31h-109v-637h-170zM268 797h111q43 0 69.5 30.5t26.5 81.5v256q0 49 -28 79t-74 30h-105v-477z" />
<glyph unicode="S" horiz-adv-x="704" d="M78 256v139h172v-139q0 -55 26 -86t76 -31q47 0 75 31.5t28 85.5v170q0 58 -21 104t-54 78.5t-73 62t-80.5 62t-73.5 70t-54 95t-21 128.5v152q0 129 74.5 202.5t199.5 73.5q124 0 199.5 -74t75.5 -202v-134h-172v134q0 55 -28 85.5t-75 30.5q-48 0 -75 -30.5t-27 -85.5 v-152q0 -52 21 -93.5t54 -71t73 -57.5t80.5 -61.5t73.5 -73.5t54 -102.5t21 -140.5v-170q0 -127 -76 -201.5t-199 -74.5q-125 0 -199.5 73.5t-74.5 202.5z" />
<glyph unicode="T" horiz-adv-x="598" d="M29 1274v160h540v-160h-184v-1274h-172v1274h-184z" />
<glyph unicode="U" d="M98 250v1184h172v-1184q0 -51 28.5 -81t74.5 -30t74 30t28 81v1184h172v-1184q0 -125 -76.5 -197.5t-197.5 -72.5t-198 72.5t-77 197.5z" />
<glyph unicode="V" d="M98 485v949h172v-949q0 -80 41 -188.5t62 -108.5t61.5 108.5t40.5 188.5v949h172v-949q0 -83 -47 -204t-113 -211t-114 -90t-114 89t-113.5 210t-47.5 206z" />
<glyph unicode="W" horiz-adv-x="1056" d="M98 432v1002h172v-1002q0 -76 28.5 -161t49.5 -85q12 0 34 38t41 98t19 110v1002h172v-1002q0 -51 18 -110.5t40.5 -97.5t36.5 -38q20 0 48.5 84.5t28.5 161.5v1002h172v-1002q0 -96 -31.5 -199t-90.5 -177t-127 -74q-37 0 -93 71.5t-88 147.5q-29 -78 -85 -148.5 t-95 -70.5q-60 0 -119 69.5t-95 174.5t-36 206z" />
<glyph unicode="X" horiz-adv-x="729" d="M90 0v283q0 127 46 231.5t130 222.5q-57 81 -88.5 134t-59.5 135t-28 163v265h170v-265q0 -134 102 -290q105 160 105 290v265h172v-265q0 -62 -13.5 -119.5t-43 -114.5t-54.5 -96.5t-67 -99.5q41 -59 67 -101.5t54.5 -102t42.5 -122.5t14 -130v-283h-172v283 q0 146 -105 313q-102 -168 -102 -313v-283h-170z" />
<glyph unicode="Y" horiz-adv-x="712" d="M82 1010v424h172v-424q0 -131 102 -287q51 80 77 145.5t26 141.5v424h172v-424q0 -75 -29.5 -156.5t-65 -138t-65 -108t-29.5 -72.5v-535h-172v535q0 21 -29.5 72t-64.5 106.5t-64.5 137.5t-29.5 159z" />
<glyph unicode="Z" horiz-adv-x="614" d="M66 90q0 162 29 297.5t71.5 233t86.5 189.5t79.5 211t44.5 253h-311v160h477q6 -50 6 -109q0 -99 -16 -188t-41.5 -159.5t-57 -138.5t-64 -139t-60.5 -147t-48.5 -177.5t-25.5 -215.5h313v-160h-475q-8 45 -8 90z" />
<glyph unicode="[" horiz-adv-x="452" d="M106 -299v1806h293v-155h-133v-1495h133v-156h-293z" />
<glyph unicode="\" horiz-adv-x="704" d="M33 1434h172l467 -1434h-172z" />
<glyph unicode="]" horiz-adv-x="452" d="M53 -143h133v1495h-133v155h293v-1806h-293v156z" />
<glyph unicode="^" d="M45 764l246 670h164l243 -670h-159l-166 496l-166 -496h-162z" />
<glyph unicode="_" horiz-adv-x="1024" d="M33 -20h958v-156h-958v156z" />
<glyph unicode="`" horiz-adv-x="411" d="M61 1454h179l110 -221h-137z" />
<glyph unicode="a" horiz-adv-x="679" d="M78 225v146q0 83 43.5 142.5t114.5 90.5l186 82v174q0 39 -25.5 64.5t-62.5 25.5t-62.5 -25.5t-25.5 -64.5v-115h-168v115q0 117 73.5 181.5t182.5 64.5q108 0 182 -64.5t74 -181.5v-635q0 -117 -74 -181t-182 -64q-109 0 -182.5 64t-73.5 181zM246 225q0 -39 25.5 -64.5 t62.5 -25.5t62.5 25.5t25.5 64.5v287l-115 -51q-61 -28 -61 -90v-146z" />
<glyph unicode="b" horiz-adv-x="692" d="M90 225v1291h168v-443q41 33 88 33q108 0 182 -64.5t74 -181.5v-635q0 -117 -74 -181t-182 -64q-109 0 -182.5 64t-73.5 181zM258 225q0 -39 25.5 -64.5t62.5 -25.5t62.5 25.5t25.5 64.5v635q0 39 -25.5 64.5t-62.5 25.5t-62.5 -25.5t-25.5 -64.5v-635z" />
<glyph unicode="c" horiz-adv-x="651" d="M90 225v635q0 117 74 181.5t182 64.5q109 0 182.5 -64.5t73.5 -181.5v-115h-168v115q0 39 -25.5 64.5t-62.5 25.5t-62.5 -25.5t-25.5 -64.5v-635q0 -39 25.5 -64.5t62.5 -25.5t62.5 25.5t25.5 64.5v129h168v-129q0 -117 -73.5 -181t-182.5 -64q-108 0 -182 64t-74 181z " />
<glyph unicode="d" horiz-adv-x="692" d="M90 225v635q0 117 74 181.5t182 64.5q47 0 88 -33v443h168v-1291q0 -117 -73.5 -181t-182.5 -64q-108 0 -182 64t-74 181zM258 225q0 -39 25.5 -64.5t62.5 -25.5t62.5 25.5t25.5 64.5v635q0 39 -25.5 64.5t-62.5 25.5t-62.5 -25.5t-25.5 -64.5v-635z" />
<glyph unicode="e" horiz-adv-x="679" d="M90 225v635q0 117 74 181.5t182 64.5q109 0 182.5 -64.5t73.5 -181.5v-151q0 -70 -22 -101.5t-84 -62.5l-238 -115v-205q0 -39 25.5 -64.5t62.5 -25.5t62.5 25.5t25.5 64.5v129h168v-129q0 -117 -73.5 -181t-182.5 -64q-108 0 -182 64t-74 181zM258 606l160 76 q16 6 16 27v151q0 39 -25.5 64.5t-62.5 25.5t-62.5 -25.5t-25.5 -64.5v-254z" />
<glyph unicode="f" horiz-adv-x="477" d="M25 928v157h110v195q0 111 66.5 174.5t169.5 63.5q45 0 110 -21l-22 -149q-51 14 -88 14q-29 0 -48.5 -22.5t-19.5 -59.5v-195h158v-157h-158v-928h-168v928h-110z" />
<glyph unicode="g" horiz-adv-x="692" d="M90 -168q0 66 32.5 113.5t78.5 70.5q-111 66 -111 209v635q0 117 74 181.5t182 64.5q109 0 182.5 -64.5t73.5 -181.5v-1028q0 -111 -74 -176.5t-184 -65.5q-118 0 -186 64.5t-68 177.5zM258 -168q0 -39 25 -62.5t61 -23.5q37 0 63.5 24t26.5 62v188q-83 -27 -129.5 -70 t-46.5 -118zM258 225q0 -39 25.5 -64.5t62.5 -25.5t62.5 25.5t25.5 64.5v635q0 39 -25.5 64.5t-62.5 25.5t-62.5 -25.5t-25.5 -64.5v-635z" />
<glyph unicode="h" horiz-adv-x="692" d="M90 0v1516h168v-443q41 33 88 33q108 0 182 -64.5t74 -181.5v-860h-168v860q0 39 -25.5 64.5t-62.5 25.5t-62.5 -25.5t-25.5 -64.5v-860h-168z" />
<glyph unicode="i" horiz-adv-x="380" d="M92 1356q0 42 28 70t70 28t70.5 -28t28.5 -70t-28.5 -70.5t-70.5 -28.5t-70 28.5t-28 70.5zM106 0v1085h168v-1085h-168z" />
<glyph unicode="j" horiz-adv-x="380" d="M-66 -365l39 142q38 -21 78 -21q55 0 55 78v1251h168v-1251q0 -109 -57 -173t-166 -64q-64 0 -117 38zM92 1356q0 42 28 70t70 28t70.5 -28t28.5 -70t-28.5 -70.5t-70.5 -28.5t-70 28.5t-28 70.5z" />
<glyph unicode="k" horiz-adv-x="684" d="M90 0v1516h168v-900q89 91 132.5 159.5t43.5 127.5q0 28 -15 43.5t-42 14.5l37 133q16 2 31 2q71 0 110 -41q47 -49 47 -146q0 -64 -32 -135.5t-117 -171.5q86 -74 117.5 -173.5t31.5 -303.5v-125h-168v125q0 160 -16.5 230.5t-77.5 125.5q-9 -9 -25 -25.5t-29.5 -30 t-27.5 -26.5v-399h-168z" />
<glyph unicode="l" horiz-adv-x="380" d="M106 0v1516h168v-1516h-168z" />
<glyph unicode="m" horiz-adv-x="1003" d="M90 0v860q0 112 70 179t178 67t166 -64q64 64 162 64q107 0 177 -67t70 -179v-860h-168v860q0 41 -22.5 65.5t-56.5 24.5t-57 -25t-23 -65v-860h-168v860q0 40 -24 65t-56 25q-36 0 -58 -24.5t-22 -65.5v-860h-168z" />
<glyph unicode="n" horiz-adv-x="692" d="M90 0v860q0 117 73.5 181.5t182.5 64.5q108 0 182 -64.5t74 -181.5v-860h-168v860q0 39 -25.5 64.5t-62.5 25.5t-62.5 -25.5t-25.5 -64.5v-860h-168z" />
<glyph unicode="o" horiz-adv-x="692" d="M90 225v635q0 117 73.5 181.5t182.5 64.5q108 0 182 -64.5t74 -181.5v-635q0 -117 -74 -181t-182 -64q-109 0 -182.5 64t-73.5 181zM258 225q0 -39 25.5 -64.5t62.5 -25.5t62.5 25.5t25.5 64.5v635q0 39 -25.5 64.5t-62.5 25.5t-62.5 -25.5t-25.5 -64.5v-635z" />
<glyph unicode="p" horiz-adv-x="692" d="M90 -397v1257q0 117 73.5 181.5t182.5 64.5q108 0 182 -64.5t74 -181.5v-635q0 -117 -74 -181t-182 -64q-48 0 -88 32v-409h-168zM258 225q0 -39 25.5 -64.5t62.5 -25.5t62.5 25.5t25.5 64.5v635q0 39 -25.5 64.5t-62.5 25.5t-62.5 -25.5t-25.5 -64.5v-635z" />
<glyph unicode="q" horiz-adv-x="692" d="M90 225v635q0 117 74 181.5t182 64.5q109 0 182.5 -64.5t73.5 -181.5v-1257h-168v409q-43 -32 -88 -32q-108 0 -182 64t-74 181zM258 225q0 -39 25.5 -64.5t62.5 -25.5t62.5 25.5t25.5 64.5v635q0 39 -25.5 64.5t-62.5 25.5t-62.5 -25.5t-25.5 -64.5v-635z" />
<glyph unicode="r" horiz-adv-x="598" d="M90 0v860q0 113 65 178.5t173 65.5t172.5 -66t64.5 -178v-112h-168v112q0 42 -20 65t-49 23q-30 0 -50 -23t-20 -65v-860h-168z" />
<glyph unicode="s" horiz-adv-x="659" d="M74 225v129h168v-129q0 -40 26 -64t62 -24t62 24t26 64v117q0 31 -19 57.5t-49.5 47.5t-67 42t-73 46.5t-67 56t-49.5 75.5t-19 99v94q0 116 73.5 181t182.5 65q110 0 183 -64.5t73 -181.5v-115h-168v115q0 40 -26.5 65t-61.5 25t-61.5 -25t-26.5 -65v-94q0 -30 19 -56 t49.5 -46t67 -40.5t73 -46t67 -56.5t49.5 -77t19 -102v-117q0 -111 -74 -177t-182 -66q-107 0 -181.5 66.5t-74.5 176.5z" />
<glyph unicode="t" horiz-adv-x="475" d="M12 930v155h111v271h168v-271h168v-155h-168v-705q0 -84 59 -84h103v-137q-50 -18 -103 -18q-109 0 -168 62.5t-59 176.5v705h-111z" />
<glyph unicode="u" horiz-adv-x="692" d="M90 225v860h168v-860q0 -39 25.5 -64.5t62.5 -25.5t62.5 25.5t25.5 64.5v860h168v-860q0 -117 -74 -181t-182 -64q-109 0 -182.5 64t-73.5 181z" />
<glyph unicode="v" horiz-adv-x="692" d="M90 348v737h168v-737q0 -48 34 -109t54 -61q19 0 53.5 61t34.5 109v512q0 44 -18 62.5t-51 13.5v149q26 3 49 3q88 0 132 -39q56 -49 56 -189v-512q0 -65 -43.5 -153t-105 -151.5t-107.5 -63.5q-47 0 -108.5 63.5t-104.5 151.5t-43 153z" />
<glyph unicode="w" horiz-adv-x="1003" d="M90 348v737h168v-737q0 -60 31 -121t49 -61q21 0 50.5 58.5t29.5 117.5v743h168v-743q0 -60 28.5 -118t51.5 -58q20 0 49.5 60.5t29.5 121.5v737h168v-737q0 -85 -41 -172.5t-98.5 -141.5t-107.5 -54q-36 0 -83.5 47t-80.5 108q-36 -65 -80 -110t-84 -45q-49 0 -107 54 t-99.5 141.5t-41.5 172.5z" />
<glyph unicode="x" horiz-adv-x="675" d="M82 0v209q0 77 24.5 145.5t54.5 110.5t79 96q-49 54 -79 97t-54.5 113t-24.5 149v165h168v-165q0 -130 88 -244q88 119 88 244v165h168v-165q0 -115 -41 -195.5t-117 -163.5q77 -84 117.5 -162t40.5 -190v-209h-168v209q0 121 -88 240q-88 -114 -88 -240v-209h-168z" />
<glyph unicode="y" horiz-adv-x="692" d="M90 -168q0 66 32 112t77 72q-109 64 -109 209v860h168v-860q0 -39 25.5 -64.5t62.5 -25.5t62.5 25.5t25.5 64.5v860h168v-1253q0 -111 -74 -176.5t-184 -65.5q-118 0 -186 64.5t-68 177.5zM258 -168q0 -39 25 -62.5t61 -23.5q37 0 63.5 24t26.5 62v188 q-83 -27 -129.5 -70t-46.5 -118z" />
<glyph unicode="z" horiz-adv-x="555" d="M49 76q0 121 29.5 229.5t71.5 186.5t84 148.5t72.5 144.5t31.5 145h-281v155h437q12 -30 12 -69q0 -108 -30.5 -211t-74 -181.5t-86 -153t-71.5 -155.5q-27 -76 -27 -149v-10h289v-156h-445q-12 35 -12 76z" />
<glyph unicode="{" horiz-adv-x="450" d="M53 526v156q41 0 66.5 20.5t25.5 61.5v496q0 111 66.5 175t185.5 64v-151q-44 0 -68 -24t-24 -64v-496q0 -51 -20.5 -96t-46.5 -64q25 -19 46 -65.5t21 -96.5v-491q0 -39 24.5 -64.5t67.5 -25.5v-152q-117 0 -184.5 66.5t-67.5 175.5v491q0 41 -26 62.5t-66 21.5z" />
<glyph unicode="|" horiz-adv-x="372" d="M106 -397v1913h160v-1913h-160z" />
<glyph unicode="}" horiz-adv-x="450" d="M53 -139q43 0 67.5 25.5t24.5 64.5v491q0 49 21.5 96t46.5 66q-26 19 -47 64.5t-21 95.5v496q0 40 -24 64t-68 24v151q119 0 185.5 -64t66.5 -175v-496q0 -41 25.5 -61.5t66.5 -20.5v-156q-40 0 -66 -21.5t-26 -62.5v-491q0 -109 -67.5 -175.5t-184.5 -66.5v152z" />
<glyph unicode="~" d="M39 498q0 97 56 148.5t141 51.5q48 0 146 -50t128 -50q49 0 49 51v41h141q7 -35 7 -53q0 -90 -56.5 -143.5t-140.5 -53.5q-42 0 -139 51.5t-135 51.5q-50 0 -50 -51v-35h-143q-4 32 -4 41z" />
<glyph unicode="&#xa1;" horiz-adv-x="380" d="M92 1004q0 42 28 70t70 28t70.5 -28t28.5 -70t-28.5 -70.5t-70.5 -28.5t-70 28.5t-28 70.5zM106 -348v1083h168v-1083h-168z" />
<glyph unicode="&#xa2;" d="M117 401v635q0 93 48 154t126 82v182h164v-182q78 -21 126 -82t48 -154v-114h-168v114q0 39 -25.5 64.5t-62.5 25.5t-62.5 -25.5t-25.5 -64.5v-635q0 -39 25.5 -64.5t62.5 -25.5t62.5 25.5t25.5 64.5v129h168v-129q0 -94 -48 -153.5t-126 -81.5v-186h-164v186 q-78 22 -126 81.5t-48 153.5z" />
<glyph unicode="&#xa3;" d="M57 0v160h119v467h-98v157h98v420q0 111 72 180.5t180 69.5q107 0 178.5 -69.5t71.5 -180.5v-160h-172v160q0 42 -21 66t-57 24t-58 -24t-22 -66v-420h217v-157h-217v-467h340v-160h-631z" />
<glyph unicode="&#xa4;" d="M37 442l108 115q-28 58 -28 129q0 72 30 131l-110 117l106 106l109 -114q54 28 119 28q64 0 118 -28l111 114l107 -106l-111 -117q31 -67 31 -131q0 -69 -31 -129l111 -115l-107 -106l-113 113q-59 -27 -116 -27q-58 0 -117 27l-111 -113zM264 686q0 -52 30.5 -83.5 t76.5 -31.5t76 31.5t30 83.5q0 55 -29.5 87t-76.5 32t-77 -32.5t-30 -86.5z" />
<glyph unicode="&#xa5;" d="M98 1014v420h172v-420q0 -126 103 -283q51 80 76.5 143.5t25.5 139.5v420h172v-420q0 -75 -29.5 -158.5t-64.5 -140.5t-64.5 -105.5t-29.5 -62.5v-10h159v-144h-159v-74h159v-143h-159v-176h-172v176h-160v143h160v74h-160v144h160v10q0 11 -29.5 58.5t-65 104.5t-65 142 t-29.5 162z" />
<glyph unicode="&#xa6;" horiz-adv-x="372" d="M106 371h160v-768h-160v768zM106 788v768h160v-768h-160z" />
<glyph unicode="&#xa7;" horiz-adv-x="667" d="M78 0v145h168v-145q0 -38 26.5 -62t61.5 -24t61.5 24t26.5 62v121q0 38 -25.5 68.5t-63.5 49t-83 45.5t-83 56t-63.5 82t-25.5 123v121q0 141 115 206q-115 82 -115 218v120q0 110 74.5 177t181.5 67t181.5 -67t74.5 -177v-145h-168v145q0 38 -26.5 62t-61.5 24 t-61.5 -24t-26.5 -62v-120q0 -38 25.5 -68.5t63.5 -49t83 -45.5t83 -56t63.5 -82t25.5 -123v-121q0 -140 -115 -207q54 -40 84.5 -91t30.5 -126v-121q0 -110 -75 -177t-181 -67q-107 0 -181.5 67t-74.5 177zM246 545q0 -39 21.5 -66.5t64.5 -56.5q90 31 90 123v121 q0 66 -86 120q-12 -3 -24.5 -9.5t-28.5 -19.5t-26.5 -36.5t-10.5 -54.5v-121z" />
<glyph unicode="&#xa8;" horiz-adv-x="561" d="M61 1356q0 42 26.5 69t68.5 27q41 0 67.5 -26.5t26.5 -69.5t-26.5 -69.5t-67.5 -26.5q-42 0 -68.5 27t-26.5 69zM311 1356q0 42 26.5 69t68.5 27q41 0 67.5 -26.5t26.5 -69.5t-26.5 -69.5t-67.5 -26.5q-42 0 -68.5 27t-26.5 69z" />
<glyph unicode="&#xa9;" horiz-adv-x="1480" d="M53 715q0 159 51 296t141 235t218.5 154t279.5 56q198 0 354.5 -95.5t243 -264.5t86.5 -381q0 -210 -86.5 -377.5t-243 -262.5t-354.5 -95q-201 0 -359 95t-244.5 262.5t-86.5 377.5zM203 715q0 -260 152 -428t388 -168q234 0 384.5 168t150.5 428q0 173 -67.5 310.5 t-190 214.5t-277.5 77q-237 0 -388.5 -169.5t-151.5 -432.5zM508 467v502q0 112 69 174.5t175 62.5q102 0 168.5 -62.5t66.5 -174.5v-115h-156v115q0 42 -21.5 66t-57.5 24q-39 0 -64.5 -24t-25.5 -66v-502q0 -43 23 -67.5t63 -24.5q36 0 59.5 25t23.5 67v125h156v-125 q0 -110 -68.5 -174t-170.5 -64q-105 0 -172.5 63.5t-67.5 174.5z" />
<glyph unicode="&#xaa;" horiz-adv-x="438" d="M66 977v57q0 109 94 144l106 41v84q0 22 -13.5 35.5t-33.5 13.5t-33.5 -13.5t-13.5 -35.5v-66h-106v66q0 68 43 109.5t110 41.5t110.5 -41.5t43.5 -109.5v-326q0 -66 -44 -110t-110 -44t-109.5 44t-43.5 110zM78 678v94h282v-94h-282zM172 977q0 -22 13.5 -36.5 t33.5 -14.5t33.5 14.5t13.5 36.5v135l-59 -25q-35 -16 -35 -53v-57z" />
<glyph unicode="&#xab;" horiz-adv-x="862" d="M53 553l240 379h188l-241 -379l241 -381h-188zM381 553l240 379h188l-242 -379l242 -381h-188z" />
<glyph unicode="&#xac;" d="M66 487v156h614v-428h-168v272h-446z" />
<glyph unicode="&#xad;" horiz-adv-x="454" d="M53 494v159h348v-159h-348z" />
<glyph unicode="&#xae;" horiz-adv-x="1480" d="M53 715q0 159 51 296t141 234.5t218.5 153t279.5 55.5q199 0 355 -95t242.5 -263.5t86.5 -380.5q0 -210 -86.5 -377.5t-243 -262.5t-354.5 -95q-201 0 -359 95t-244.5 262.5t-86.5 377.5zM203 715q0 -260 152 -428t388 -168q234 0 384.5 168t150.5 428 q0 263 -149.5 431.5t-385.5 168.5q-237 0 -388.5 -168.5t-151.5 -431.5zM522 236v972h209q128 0 200.5 -63t72.5 -176v-119q0 -101 -68 -166q68 -62 68 -164v-276h-150v276q0 41 -30.5 66.5t-80.5 25.5h-67v-376h-154zM676 760h67q49 0 80 25t31 65v119q0 42 -33.5 67 t-89.5 25h-55v-301z" />
<glyph unicode="&#xaf;" horiz-adv-x="503" d="M61 1272v127h381v-127h-381z" />
<glyph unicode="&#xb0;" horiz-adv-x="471" d="M53 1268q0 81 50 133.5t133 52.5q82 0 132 -52.5t50 -133.5q0 -79 -50 -131t-132 -52q-83 0 -133 51.5t-50 131.5zM168 1268q0 -29 19 -50.5t49 -21.5q28 0 47.5 21.5t19.5 50.5q0 31 -19 53t-48 22q-30 0 -49 -21.5t-19 -53.5z" />
<glyph unicode="&#xb1;" d="M66 0v156h614v-156h-614zM66 528v156h225v268h164v-268h225v-156h-225v-268h-164v268h-225z" />
<glyph unicode="&#xb2;" horiz-adv-x="421" d="M53 860v45q0 70 20 134.5t48.5 112t56.5 90.5t48 87.5t20 85.5v35q0 15 -10 24t-25 9t-25 -9t-10 -24v-74h-123v74q0 69 45 110.5t113 41.5t113 -41.5t45 -110.5v-35q0 -58 -28 -121t-61.5 -108.5t-61.5 -102.5t-28 -104h179v-119h-316z" />
<glyph unicode="&#xb3;" horiz-adv-x="421" d="M53 1004v75h123v-75q0 -15 10.5 -26t24.5 -11t24.5 11t10.5 26v131q0 13 -9.5 21.5t-21.5 8.5h-63v119h63q13 0 22 9.5t9 25.5v129q0 17 -9.5 26t-25.5 9t-25.5 -9t-9.5 -26v-74h-123v74q0 69 43.5 111.5t114.5 42.5t114.5 -42.5t43.5 -111.5v-129q0 -65 -52 -94 q21 -8 36.5 -32t15.5 -58v-131q0 -68 -43.5 -112t-114.5 -44t-114.5 44t-43.5 112z" />
<glyph unicode="&#xb4;" horiz-adv-x="411" d="M61 1233l111 221h178l-151 -221h-138z" />
<glyph unicode="&#xb5;" horiz-adv-x="692" d="M90 -397v1482h168v-858q0 -39 27 -65.5t63 -26.5t61 25t25 67v858h168v-858q0 -33 13 -49t51 -16h16v-158q-28 -8 -47 -8q-42 0 -75.5 15t-45.5 38q-22 -31 -68.5 -50t-97.5 -19q-24 0 -50.5 8t-39.5 22v-407h-168z" />
<glyph unicode="&#xb6;" horiz-adv-x="876" d="M41 1145q0 126 68 207.5t172 81.5h555v-156h-86v-1278h-168v1278h-133v-1278h-168v856q-104 0 -172 81.5t-68 207.5z" />
<glyph unicode="&#xb7;" horiz-adv-x="303" d="M53 571q0 42 28.5 70.5t70.5 28.5t70 -28t28 -71q0 -42 -28 -70t-70 -28t-70.5 28t-28.5 70z" />
<glyph unicode="&#xb8;" horiz-adv-x="385" d="M61 -266l27 82q46 -19 78 -19q16 0 27.5 9.5t11.5 27.5t-11.5 29.5t-27.5 11.5h-49l-17 19l23 112h98l-10 -67q46 0 79.5 -27t33.5 -82q0 -65 -40 -100t-100 -35q-72 0 -123 39z" />
<glyph unicode="&#xb9;" horiz-adv-x="350" d="M37 1350v116q81 22 137 123h107v-729h-123v553q-30 -30 -54.5 -43.5t-66.5 -19.5z" />
<glyph unicode="&#xba;" horiz-adv-x="438" d="M66 977v326q0 68 43 109.5t110 41.5t110.5 -41.5t43.5 -109.5v-326q0 -66 -44 -110t-110 -44t-109.5 44t-43.5 110zM78 678v94h282v-94h-282zM172 977q0 -22 13.5 -36.5t33.5 -14.5t33.5 14.5t13.5 36.5v326q0 22 -13.5 35.5t-33.5 13.5t-33.5 -13.5t-13.5 -35.5v-326z " />
<glyph unicode="&#xbb;" horiz-adv-x="862" d="M53 172l242 381l-242 379h189l239 -379l-239 -381h-189zM381 172l242 381l-242 379h188l240 -379l-240 -381h-188z" />
<glyph unicode="&#xbc;" horiz-adv-x="1007" d="M70 1194v117q81 22 137 123h106v-729h-123v552q-30 -30 -54 -43.5t-66 -19.5zM131 0l631 1434h127l-631 -1434h-127zM623 123v67q0 86 48 265t48 274h123q0 -69 -15 -139t-33.5 -118t-33.5 -110t-15 -116h70v141h123v-387h-123v123h-192z" />
<glyph unicode="&#xbd;" horiz-adv-x="1036" d="M70 1194v117q81 22 137 123h106v-729h-123v552q-30 -30 -54 -43.5t-66 -19.5zM127 0l631 1434h127l-631 -1434h-127zM651 0v45q0 70 20 134.5t48.5 112t56.5 90.5t48 87.5t20 85.5v35q0 15 -10 24t-25 9t-25 -9t-10 -24v-74h-123v74q0 69 45 110t113 41t113 -41t45 -110 v-35q0 -58 -28 -121t-61.5 -108.5t-61.5 -102.5t-28 -104h179v-119h-316z" />
<glyph unicode="&#xbe;" horiz-adv-x="1007" d="M70 844v76h123v-76q0 -15 10 -26t24 -11t24.5 11t10.5 26v131q0 13 -9.5 22t-21.5 9h-63v118h63q13 0 22 9.5t9 25.5v129q0 17 -9.5 26t-25.5 9q-34 0 -34 -35v-74h-123v74q0 69 43.5 111.5t113.5 42.5q71 0 114.5 -42.5t43.5 -111.5v-129q0 -65 -51 -94q21 -8 36 -32 t15 -58v-131q0 -68 -43.5 -112t-114.5 -44t-114 44t-43 112zM147 0l631 1434h127l-631 -1434h-127zM623 123v67q0 86 48 265t48 274h123q0 -69 -15 -139t-33.5 -118t-33.5 -110t-15 -116h70v141h123v-387h-123v123h-192z" />
<glyph unicode="&#xbf;" horiz-adv-x="665" d="M70 -104v340q0 104 48 170t138 88v241h168v-385h-84q-47 0 -73.5 -30t-26.5 -84v-340q0 -51 27 -81t73 -30q47 0 74.5 30t27.5 81v145h170v-145q0 -121 -72 -193t-200 -72q-127 0 -198.5 71.5t-71.5 193.5zM242 1004q0 42 28 70t70 28t70 -28t28 -70t-28 -70.5t-70 -28.5 t-70 28.5t-28 70.5z" />
<glyph unicode="&#xc0;" d="M98 0v1184q0 125 77 197.5t198 72.5t197.5 -72.5t76.5 -197.5v-1184h-172v543h-205v-543h-172zM190 1741h179l110 -221h-137zM270 702h205v482q0 51 -28 80.5t-74 29.5t-74.5 -30t-28.5 -80v-482z" />
<glyph unicode="&#xc1;" d="M98 0v1184q0 125 77 197.5t198 72.5t197.5 -72.5t76.5 -197.5v-1184h-172v543h-205v-543h-172zM268 1520l111 221h178l-151 -221h-138zM270 702h205v482q0 51 -28 80.5t-74 29.5t-74.5 -30t-28.5 -80v-482z" />
<glyph unicode="&#xc2;" d="M98 0v1184q0 125 77 197.5t198 72.5t197.5 -72.5t76.5 -197.5v-1184h-172v543h-205v-543h-172zM172 1520l135 221h131l135 -221h-129l-71 104l-72 -104h-129zM270 702h205v482q0 51 -28 80.5t-74 29.5t-74.5 -30t-28.5 -80v-482z" />
<glyph unicode="&#xc3;" d="M98 0v1184q0 125 77 197.5t198 72.5t197.5 -72.5t76.5 -197.5v-1184h-172v543h-205v-543h-172zM152 1530q0 84 38.5 135t102.5 51q32 0 81.5 -34.5t78.5 -34.5q24 0 36.5 17.5t12.5 43.5h92q0 -87 -39 -136.5t-102 -49.5q-34 0 -82.5 32.5t-77.5 32.5q-21 0 -35 -16.5 t-14 -40.5h-92zM270 702h205v482q0 51 -28 80.5t-74 29.5t-74.5 -30t-28.5 -80v-482z" />
<glyph unicode="&#xc4;" d="M98 0v1184q0 125 77 197.5t198 72.5t197.5 -72.5t76.5 -197.5v-1184h-172v543h-205v-543h-172zM154 1642q0 43 26.5 70t67.5 27t67.5 -27t26.5 -70t-26.5 -69.5t-67.5 -26.5t-67.5 26.5t-26.5 69.5zM270 702h205v482q0 51 -28 80.5t-74 29.5t-74.5 -30t-28.5 -80v-482z M403 1642q0 43 27 70t68 27t67.5 -27t26.5 -70t-26.5 -69.5t-67.5 -26.5q-42 0 -68.5 27t-26.5 69z" />
<glyph unicode="&#xc5;" d="M98 0v1184q0 125 77 197.5t198 72.5t197.5 -72.5t76.5 -197.5v-1184h-172v543h-205v-543h-172zM223 1638q0 67 43 107.5t107 40.5q63 0 106 -40.5t43 -107.5q0 -65 -42.5 -106t-106.5 -41t-107 41t-43 106zM270 702h205v482q0 51 -28 80.5t-74 29.5t-74.5 -30t-28.5 -80 v-482zM319 1638q0 -24 16 -40.5t38 -16.5q23 0 38 16t15 41q0 26 -15 42t-38 16q-22 0 -38 -16t-16 -42z" />
<glyph unicode="&#xc6;" horiz-adv-x="983" d="M98 0v1165q0 124 73 196.5t204 72.5h555v-160h-273v-477h244v-160h-244v-477h273v-160h-445v637h-215v-637h-172zM270 797h215v477h-110q-48 0 -76.5 -28.5t-28.5 -80.5v-368z" />
<glyph unicode="&#xc7;" horiz-adv-x="708" d="M98 250v934q0 125 77 197.5t198 72.5t197.5 -72.5t76.5 -197.5v-140h-172v140q0 51 -28 80.5t-74 29.5t-74.5 -30t-28.5 -80v-934q0 -51 28.5 -81t74.5 -30t74 30t28 81v145h172v-145q0 -119 -69 -189.5t-181 -78.5l-6 -43q46 0 79.5 -27t33.5 -82q0 -66 -40 -100.5 t-99 -34.5q-72 0 -123 39l26 82q46 -19 78 -19q16 0 27.5 9.5t11.5 27.5t-11.5 29.5t-27.5 11.5h-49l-16 19l18 94q-92 21 -146.5 89t-54.5 173z" />
<glyph unicode="&#xc8;" horiz-adv-x="595" d="M98 0v1434h445v-160h-273v-477h244v-160h-244v-477h273v-160h-445zM156 1741h178l110 -221h-137z" />
<glyph unicode="&#xc9;" horiz-adv-x="595" d="M98 0v1434h445v-160h-273v-477h244v-160h-244v-477h273v-160h-445zM233 1520l111 221h178l-151 -221h-138z" />
<glyph unicode="&#xca;" horiz-adv-x="595" d="M98 0v1434h445v-160h-273v-477h244v-160h-244v-477h273v-160h-445zM137 1520l135 221h131l136 -221h-129l-72 104l-72 -104h-129z" />
<glyph unicode="&#xcb;" horiz-adv-x="595" d="M98 0v1434h445v-160h-273v-477h244v-160h-244v-477h273v-160h-445zM119 1642q0 43 26.5 70t67.5 27t67.5 -27t26.5 -70t-26.5 -69.5t-67.5 -26.5t-67.5 26.5t-26.5 69.5zM369 1642q0 43 26.5 70t67.5 27t67.5 -27t26.5 -70t-26.5 -69.5t-67.5 -26.5t-67.5 26.5 t-26.5 69.5z" />
<glyph unicode="&#xcc;" horiz-adv-x="385" d="M10 1741h178l111 -221h-137zM106 0v1434h173v-1434h-173z" />
<glyph unicode="&#xcd;" horiz-adv-x="385" d="M88 1520l111 221h178l-152 -221h-137zM106 0v1434h173v-1434h-173z" />
<glyph unicode="&#xce;" horiz-adv-x="385" d="M-8 1520l135 221h131l135 -221h-129l-71 104l-72 -104h-129zM106 0v1434h173v-1434h-173z" />
<glyph unicode="&#xcf;" horiz-adv-x="385" d="M-27 1642q0 43 27 70t68 27t67.5 -27t26.5 -70t-26.5 -69.5t-67.5 -26.5q-42 0 -68.5 27t-26.5 69zM106 0v1434h173v-1434h-173zM223 1642q0 43 26.5 70t67.5 27t68 -27t27 -70q0 -42 -27 -69t-68 -27t-67.5 26.5t-26.5 69.5z" />
<glyph unicode="&#xd0;" d="M33 637v160h65v637h275q121 0 197.5 -73t76.5 -198v-893q0 -125 -76.5 -197.5t-197.5 -72.5h-275v637h-65zM270 160h103q46 0 74 29.5t28 80.5v893q0 51 -28 81t-74 30h-103v-477h115v-160h-115v-477z" />
<glyph unicode="&#xd1;" d="M98 0v1184q0 125 77 197.5t198 72.5t197.5 -72.5t76.5 -197.5v-1184h-172v1184q0 51 -28 80.5t-74 29.5t-74.5 -30t-28.5 -80v-1184h-172zM152 1530q0 84 38.5 135t102.5 51q32 0 81.5 -34.5t78.5 -34.5q24 0 36.5 17.5t12.5 43.5h92q0 -87 -39 -136.5t-102 -49.5 q-34 0 -82.5 32.5t-77.5 32.5q-21 0 -35 -16.5t-14 -40.5h-92z" />
<glyph unicode="&#xd2;" d="M98 250v934q0 125 77 197.5t198 72.5t197.5 -72.5t76.5 -197.5v-934q0 -125 -76.5 -197.5t-197.5 -72.5t-198 72.5t-77 197.5zM190 1741h179l110 -221h-137zM270 250q0 -51 28.5 -81t74.5 -30t74 30t28 81v934q0 51 -28 80.5t-74 29.5t-74.5 -30t-28.5 -80v-934z" />
<glyph unicode="&#xd3;" d="M98 250v934q0 125 77 197.5t198 72.5t197.5 -72.5t76.5 -197.5v-934q0 -125 -76.5 -197.5t-197.5 -72.5t-198 72.5t-77 197.5zM268 1520l111 221h178l-151 -221h-138zM270 250q0 -51 28.5 -81t74.5 -30t74 30t28 81v934q0 51 -28 80.5t-74 29.5t-74.5 -30t-28.5 -80v-934 z" />
<glyph unicode="&#xd4;" d="M98 250v934q0 125 77 197.5t198 72.5t197.5 -72.5t76.5 -197.5v-934q0 -125 -76.5 -197.5t-197.5 -72.5t-198 72.5t-77 197.5zM172 1520l135 221h131l135 -221h-129l-71 104l-72 -104h-129zM270 250q0 -51 28.5 -81t74.5 -30t74 30t28 81v934q0 51 -28 80.5t-74 29.5 t-74.5 -30t-28.5 -80v-934z" />
<glyph unicode="&#xd5;" d="M98 250v934q0 125 77 197.5t198 72.5t197.5 -72.5t76.5 -197.5v-934q0 -125 -76.5 -197.5t-197.5 -72.5t-198 72.5t-77 197.5zM152 1530q0 84 38.5 135t102.5 51q32 0 81.5 -34.5t78.5 -34.5q24 0 36.5 17.5t12.5 43.5h92q0 -87 -39 -136.5t-102 -49.5q-34 0 -82.5 32.5 t-77.5 32.5q-21 0 -35 -16.5t-14 -40.5h-92zM270 250q0 -51 28.5 -81t74.5 -30t74 30t28 81v934q0 51 -28 80.5t-74 29.5t-74.5 -30t-28.5 -80v-934z" />
<glyph unicode="&#xd6;" d="M98 250v934q0 125 77 197.5t198 72.5t197.5 -72.5t76.5 -197.5v-934q0 -125 -76.5 -197.5t-197.5 -72.5t-198 72.5t-77 197.5zM154 1642q0 43 26.5 70t67.5 27t67.5 -27t26.5 -70t-26.5 -69.5t-67.5 -26.5t-67.5 26.5t-26.5 69.5zM270 250q0 -51 28.5 -81t74.5 -30t74 30 t28 81v934q0 51 -28 80.5t-74 29.5t-74.5 -30t-28.5 -80v-934zM403 1642q0 43 27 70t68 27t67.5 -27t26.5 -70t-26.5 -69.5t-67.5 -26.5q-42 0 -68.5 27t-26.5 69z" />
<glyph unicode="&#xd7;" d="M53 336l215 231l-215 232l113 104l207 -223l207 223l110 -106l-213 -230l213 -229l-110 -107l-207 224l-207 -224z" />
<glyph unicode="&#xd8;" d="M98 250v934q0 125 77 197.5t198 72.5q70 0 133 -29l24 93l84 -25l-32 -125q65 -71 65 -184v-934q0 -125 -76.5 -197.5t-197.5 -72.5q-74 0 -135 28l-23 -94l-84 25l31 127q-64 70 -64 184zM270 489l191 754q-28 51 -88 51q-46 0 -74.5 -30t-28.5 -80v-695zM285 188 q25 -49 88 -49q46 0 74 30t28 81v692z" />
<glyph unicode="&#xd9;" d="M98 250v1184h172v-1184q0 -51 28.5 -81t74.5 -30t74 30t28 81v1184h172v-1184q0 -125 -76.5 -197.5t-197.5 -72.5t-198 72.5t-77 197.5zM190 1741h179l110 -221h-137z" />
<glyph unicode="&#xda;" d="M98 250v1184h172v-1184q0 -51 28.5 -81t74.5 -30t74 30t28 81v1184h172v-1184q0 -125 -76.5 -197.5t-197.5 -72.5t-198 72.5t-77 197.5zM268 1520l111 221h178l-151 -221h-138z" />
<glyph unicode="&#xdb;" d="M98 250v1184h172v-1184q0 -51 28.5 -81t74.5 -30t74 30t28 81v1184h172v-1184q0 -125 -76.5 -197.5t-197.5 -72.5t-198 72.5t-77 197.5zM172 1520l135 221h131l135 -221h-129l-71 104l-72 -104h-129z" />
<glyph unicode="&#xdc;" d="M98 250v1184h172v-1184q0 -51 28.5 -81t74.5 -30t74 30t28 81v1184h172v-1184q0 -125 -76.5 -197.5t-197.5 -72.5t-198 72.5t-77 197.5zM154 1642q0 43 26.5 70t67.5 27t67.5 -27t26.5 -70t-26.5 -69.5t-67.5 -26.5t-67.5 26.5t-26.5 69.5zM403 1642q0 43 27 70t68 27 t67.5 -27t26.5 -70t-26.5 -69.5t-67.5 -26.5q-42 0 -68.5 27t-26.5 69z" />
<glyph unicode="&#xdd;" horiz-adv-x="712" d="M82 1010v424h172v-424q0 -131 102 -287q51 80 77 145.5t26 141.5v424h172v-424q0 -75 -29.5 -156.5t-65 -138t-65 -108t-29.5 -72.5v-535h-172v535q0 21 -29.5 72t-64.5 106.5t-64.5 137.5t-29.5 159zM252 1520l110 221h179l-152 -221h-137z" />
<glyph unicode="&#xde;" horiz-adv-x="716" d="M98 0v1434h172v-291h103q130 0 202 -74t72 -199v-305q0 -129 -71.5 -201.5t-202.5 -72.5h-103v-291h-172zM270 451h103q50 0 76 29.5t26 84.5v305q0 54 -26.5 83.5t-75.5 29.5h-103v-532z" />
<glyph unicode="&#xdf;" horiz-adv-x="737" d="M98 0v1190q0 119 77.5 191.5t197.5 72.5q121 0 197.5 -72.5t76.5 -191.5v-281q0 -59 -35 -116t-80 -76q47 -20 81 -72t34 -115v-262q0 -122 -75 -195t-199 -73h-47v158h47q49 0 75.5 28.5t26.5 81.5v262q0 48 -27 77.5t-75 29.5h-39v160h39q50 0 76 30t26 82v281 q0 50 -27.5 77t-74.5 27t-75 -27t-28 -77v-1190h-172z" />
<glyph unicode="&#xe0;" horiz-adv-x="679" d="M78 225v146q0 83 43.5 142.5t114.5 90.5l186 82v174q0 39 -25.5 64.5t-62.5 25.5t-62.5 -25.5t-25.5 -64.5v-115h-168v115q0 117 73.5 181.5t182.5 64.5q108 0 182 -64.5t74 -181.5v-635q0 -117 -74 -181t-182 -64q-109 0 -182.5 64t-73.5 181zM152 1454h178l110 -221 h-137zM246 225q0 -39 25.5 -64.5t62.5 -25.5t62.5 25.5t25.5 64.5v287l-115 -51q-61 -28 -61 -90v-146z" />
<glyph unicode="&#xe1;" horiz-adv-x="679" d="M78 225v146q0 83 43.5 142.5t114.5 90.5l186 82v174q0 39 -25.5 64.5t-62.5 25.5t-62.5 -25.5t-25.5 -64.5v-115h-168v115q0 117 73.5 181.5t182.5 64.5q108 0 182 -64.5t74 -181.5v-635q0 -117 -74 -181t-182 -64q-109 0 -182.5 64t-73.5 181zM229 1233l111 221h178 l-151 -221h-138zM246 225q0 -39 25.5 -64.5t62.5 -25.5t62.5 25.5t25.5 64.5v287l-115 -51q-61 -28 -61 -90v-146z" />
<glyph unicode="&#xe2;" horiz-adv-x="679" d="M78 225v146q0 83 43.5 142.5t114.5 90.5l186 82v174q0 39 -25.5 64.5t-62.5 25.5t-62.5 -25.5t-25.5 -64.5v-115h-168v115q0 117 73.5 181.5t182.5 64.5q108 0 182 -64.5t74 -181.5v-635q0 -117 -74 -181t-182 -64q-109 0 -182.5 64t-73.5 181zM133 1233l135 221h131 l136 -221h-129l-72 104l-72 -104h-129zM246 225q0 -39 25.5 -64.5t62.5 -25.5t62.5 25.5t25.5 64.5v287l-115 -51q-61 -28 -61 -90v-146z" />
<glyph unicode="&#xe3;" horiz-adv-x="679" d="M78 225v146q0 83 43.5 142.5t114.5 90.5l186 82v174q0 39 -25.5 64.5t-62.5 25.5t-62.5 -25.5t-25.5 -64.5v-115h-168v115q0 117 73.5 181.5t182.5 64.5q108 0 182 -64.5t74 -181.5v-635q0 -117 -74 -181t-182 -64q-109 0 -182.5 64t-73.5 181zM113 1243q0 84 38.5 135.5 t102.5 51.5q32 0 81.5 -35t78.5 -35q24 0 36.5 17.5t12.5 43.5h92q0 -87 -39 -136.5t-102 -49.5q-34 0 -82.5 32.5t-77.5 32.5q-21 0 -35 -16.5t-14 -40.5h-92zM246 225q0 -39 25.5 -64.5t62.5 -25.5t62.5 25.5t25.5 64.5v287l-115 -51q-61 -28 -61 -90v-146z" />
<glyph unicode="&#xe4;" horiz-adv-x="679" d="M78 225v146q0 83 43.5 142.5t114.5 90.5l186 82v174q0 39 -25.5 64.5t-62.5 25.5t-62.5 -25.5t-25.5 -64.5v-115h-168v115q0 117 73.5 181.5t182.5 64.5q108 0 182 -64.5t74 -181.5v-635q0 -117 -74 -181t-182 -64q-109 0 -182.5 64t-73.5 181zM115 1356q0 43 26.5 69.5 t67.5 26.5t67.5 -26.5t26.5 -69.5t-26.5 -69.5t-67.5 -26.5t-67.5 26.5t-26.5 69.5zM246 225q0 -39 25.5 -64.5t62.5 -25.5t62.5 25.5t25.5 64.5v287l-115 -51q-61 -28 -61 -90v-146zM365 1356q0 43 26.5 69.5t67.5 26.5t67.5 -26.5t26.5 -69.5t-26.5 -69.5t-67.5 -26.5 t-67.5 26.5t-26.5 69.5z" />
<glyph unicode="&#xe5;" horiz-adv-x="679" d="M78 225v146q0 83 43.5 142.5t114.5 90.5l186 82v174q0 39 -25.5 64.5t-62.5 25.5t-62.5 -25.5t-25.5 -64.5v-115h-168v115q0 117 73.5 181.5t182.5 64.5q108 0 182 -64.5t74 -181.5v-635q0 -117 -74 -181t-182 -64q-109 0 -182.5 64t-73.5 181zM184 1352q0 67 43 107 t107 40t106.5 -40t42.5 -107q0 -65 -42.5 -106.5t-106.5 -41.5t-107 41.5t-43 106.5zM246 225q0 -39 25.5 -64.5t62.5 -25.5t62.5 25.5t25.5 64.5v287l-115 -51q-61 -28 -61 -90v-146zM281 1352q0 -25 15.5 -41.5t37.5 -16.5q23 0 38 16.5t15 41.5q0 26 -14.5 41.5 t-38.5 15.5q-22 0 -37.5 -15.5t-15.5 -41.5z" />
<glyph unicode="&#xe6;" horiz-adv-x="1011" d="M78 225v94q0 91 43.5 152t114.5 86l186 64v239q0 39 -25.5 64.5t-62.5 25.5t-62.5 -25.5t-25.5 -64.5v-115h-168v115q0 117 73.5 181.5t182.5 64.5q50 0 98.5 -22.5t73.5 -55.5q28 33 75 55.5t97 22.5q109 0 182.5 -64.5t73.5 -181.5v-104q0 -74 -23 -109t-84 -57 l-237 -80v-285q0 -39 25.5 -64.5t62.5 -25.5t62.5 25.5t25.5 64.5v129h168v-129q0 -117 -73.5 -181t-182.5 -64q-52 0 -100 23.5t-72 57.5q-24 -33 -72.5 -57t-99.5 -24q-109 0 -182.5 64t-73.5 181zM246 225q0 -39 25.5 -64.5t62.5 -25.5q36 0 60.5 23t27.5 59v8v230 l-115 -39q-27 -9 -44 -34.5t-17 -62.5v-94zM590 674l160 53q6 1 11 11t5 18v104q0 39 -25.5 64.5t-62.5 25.5q-36 0 -60.5 -23t-27.5 -59v-8v-186z" />
<glyph unicode="&#xe7;" horiz-adv-x="651" d="M90 225v635q0 117 74 181.5t182 64.5q109 0 182.5 -64.5t73.5 -181.5v-115h-168v115q0 39 -25.5 64.5t-62.5 25.5t-62.5 -25.5t-25.5 -64.5v-635q0 -39 25.5 -64.5t62.5 -25.5t62.5 25.5t25.5 64.5v129h168v-129q0 -110 -63.5 -172.5t-163.5 -70.5l-6 -43q46 0 79 -27 t33 -82q0 -66 -40 -100.5t-99 -34.5q-72 0 -123 39l27 82q46 -19 78 -19q16 0 27 9.5t11 27.5t-11 29.5t-27 11.5h-50l-16 19l18 94q-83 18 -134.5 79t-51.5 158z" />
<glyph unicode="&#xe8;" horiz-adv-x="679" d="M90 225v635q0 117 74 181.5t182 64.5q109 0 182.5 -64.5t73.5 -181.5v-151q0 -70 -22 -101.5t-84 -62.5l-238 -115v-205q0 -39 25.5 -64.5t62.5 -25.5t62.5 25.5t25.5 64.5v129h168v-129q0 -117 -73.5 -181t-182.5 -64q-108 0 -182 64t-74 181zM164 1454h178l111 -221 h-138zM258 606l160 76q16 6 16 27v151q0 39 -25.5 64.5t-62.5 25.5t-62.5 -25.5t-25.5 -64.5v-254z" />
<glyph unicode="&#xe9;" horiz-adv-x="679" d="M90 225v635q0 117 74 181.5t182 64.5q109 0 182.5 -64.5t73.5 -181.5v-151q0 -70 -22 -101.5t-84 -62.5l-238 -115v-205q0 -39 25.5 -64.5t62.5 -25.5t62.5 25.5t25.5 64.5v129h168v-129q0 -117 -73.5 -181t-182.5 -64q-108 0 -182 64t-74 181zM242 1233l110 221h178 l-151 -221h-137zM258 606l160 76q16 6 16 27v151q0 39 -25.5 64.5t-62.5 25.5t-62.5 -25.5t-25.5 -64.5v-254z" />
<glyph unicode="&#xea;" horiz-adv-x="679" d="M90 225v635q0 117 74 181.5t182 64.5q109 0 182.5 -64.5t73.5 -181.5v-151q0 -70 -22 -101.5t-84 -62.5l-238 -115v-205q0 -39 25.5 -64.5t62.5 -25.5t62.5 25.5t25.5 64.5v129h168v-129q0 -117 -73.5 -181t-182.5 -64q-108 0 -182 64t-74 181zM145 1233l136 221h131 l135 -221h-129l-72 104l-72 -104h-129zM258 606l160 76q16 6 16 27v151q0 39 -25.5 64.5t-62.5 25.5t-62.5 -25.5t-25.5 -64.5v-254z" />
<glyph unicode="&#xeb;" horiz-adv-x="679" d="M90 225v635q0 117 74 181.5t182 64.5q109 0 182.5 -64.5t73.5 -181.5v-151q0 -70 -22 -101.5t-84 -62.5l-238 -115v-205q0 -39 25.5 -64.5t62.5 -25.5t62.5 25.5t25.5 64.5v129h168v-129q0 -117 -73.5 -181t-182.5 -64q-108 0 -182 64t-74 181zM127 1356q0 43 26.5 69.5 t67.5 26.5t67.5 -26.5t26.5 -69.5t-26.5 -69.5t-67.5 -26.5t-67.5 26.5t-26.5 69.5zM258 606l160 76q16 6 16 27v151q0 39 -25.5 64.5t-62.5 25.5t-62.5 -25.5t-25.5 -64.5v-254zM377 1356q0 43 26.5 69.5t67.5 26.5t67.5 -26.5t26.5 -69.5t-26.5 -69.5t-67.5 -26.5 t-67.5 26.5t-26.5 69.5z" />
<glyph unicode="&#xec;" horiz-adv-x="380" d="M8 1454h178l111 -221h-137zM106 0v1085h168v-1085h-168z" />
<glyph unicode="&#xed;" horiz-adv-x="380" d="M86 1233l111 221h178l-152 -221h-137zM106 0v1085h168v-1085h-168z" />
<glyph unicode="&#xee;" horiz-adv-x="380" d="M-10 1233l135 221h131l135 -221h-129l-72 104l-71 -104h-129zM106 0v1085h168v-1085h-168z" />
<glyph unicode="&#xef;" horiz-adv-x="380" d="M-29 1356q0 42 26.5 69t68.5 27q41 0 67.5 -26.5t26.5 -69.5t-26.5 -69.5t-67.5 -26.5q-42 0 -68.5 27t-26.5 69zM106 0v1085h168v-1085h-168zM221 1356q0 43 26.5 69.5t67.5 26.5t68 -27t27 -69t-27 -69t-68 -27t-67.5 26.5t-26.5 69.5z" />
<glyph unicode="&#xf0;" horiz-adv-x="692" d="M90 225v635q0 117 74 181.5t182 64.5q47 0 88 -33v37q0 53 -22 96l-101 -55l-35 70l89 49q-40 28 -76 28q-41 0 -101 -8v150q49 14 101 14q137 0 227 -100l98 53l33 -72l-86 -47q41 -77 41 -178v-885q0 -117 -73.5 -181t-182.5 -64q-108 0 -182 64t-74 181zM258 225 q0 -39 25.5 -64.5t62.5 -25.5t62.5 25.5t25.5 64.5v635q0 39 -25.5 64.5t-62.5 25.5t-62.5 -25.5t-25.5 -64.5v-635z" />
<glyph unicode="&#xf1;" horiz-adv-x="692" d="M90 0v860q0 117 73.5 181.5t182.5 64.5q108 0 182 -64.5t74 -181.5v-860h-168v860q0 39 -25.5 64.5t-62.5 25.5t-62.5 -25.5t-25.5 -64.5v-860h-168zM125 1243q0 84 38.5 135.5t102.5 51.5q32 0 81.5 -35t78.5 -35q24 0 36.5 17.5t12.5 43.5h92q0 -87 -39 -136.5 t-102 -49.5q-34 0 -82.5 32.5t-77.5 32.5q-21 0 -35 -16.5t-14 -40.5h-92z" />
<glyph unicode="&#xf2;" horiz-adv-x="692" d="M90 225v635q0 117 73.5 181.5t182.5 64.5q108 0 182 -64.5t74 -181.5v-635q0 -117 -74 -181t-182 -64q-109 0 -182.5 64t-73.5 181zM164 1454h178l111 -221h-138zM258 225q0 -39 25.5 -64.5t62.5 -25.5t62.5 25.5t25.5 64.5v635q0 39 -25.5 64.5t-62.5 25.5t-62.5 -25.5 t-25.5 -64.5v-635z" />
<glyph unicode="&#xf3;" horiz-adv-x="692" d="M90 225v635q0 117 73.5 181.5t182.5 64.5q108 0 182 -64.5t74 -181.5v-635q0 -117 -74 -181t-182 -64q-109 0 -182.5 64t-73.5 181zM242 1233l110 221h178l-151 -221h-137zM258 225q0 -39 25.5 -64.5t62.5 -25.5t62.5 25.5t25.5 64.5v635q0 39 -25.5 64.5t-62.5 25.5 t-62.5 -25.5t-25.5 -64.5v-635z" />
<glyph unicode="&#xf4;" horiz-adv-x="692" d="M90 225v635q0 117 73.5 181.5t182.5 64.5q108 0 182 -64.5t74 -181.5v-635q0 -117 -74 -181t-182 -64q-109 0 -182.5 64t-73.5 181zM145 1233l136 221h131l135 -221h-129l-72 104l-72 -104h-129zM258 225q0 -39 25.5 -64.5t62.5 -25.5t62.5 25.5t25.5 64.5v635 q0 39 -25.5 64.5t-62.5 25.5t-62.5 -25.5t-25.5 -64.5v-635z" />
<glyph unicode="&#xf5;" horiz-adv-x="692" d="M90 225v635q0 117 73.5 181.5t182.5 64.5q108 0 182 -64.5t74 -181.5v-635q0 -117 -74 -181t-182 -64q-109 0 -182.5 64t-73.5 181zM125 1243q0 84 38.5 135.5t102.5 51.5q32 0 81.5 -35t78.5 -35q24 0 36.5 17.5t12.5 43.5h92q0 -87 -39 -136.5t-102 -49.5 q-34 0 -82.5 32.5t-77.5 32.5q-21 0 -35 -16.5t-14 -40.5h-92zM258 225q0 -39 25.5 -64.5t62.5 -25.5t62.5 25.5t25.5 64.5v635q0 39 -25.5 64.5t-62.5 25.5t-62.5 -25.5t-25.5 -64.5v-635z" />
<glyph unicode="&#xf6;" horiz-adv-x="692" d="M90 225v635q0 117 73.5 181.5t182.5 64.5q108 0 182 -64.5t74 -181.5v-635q0 -117 -74 -181t-182 -64q-109 0 -182.5 64t-73.5 181zM127 1356q0 43 26.5 69.5t67.5 26.5t67.5 -26.5t26.5 -69.5t-26.5 -69.5t-67.5 -26.5t-67.5 26.5t-26.5 69.5zM258 225q0 -39 25.5 -64.5 t62.5 -25.5t62.5 25.5t25.5 64.5v635q0 39 -25.5 64.5t-62.5 25.5t-62.5 -25.5t-25.5 -64.5v-635zM377 1356q0 43 26.5 69.5t67.5 26.5t67.5 -26.5t26.5 -69.5t-26.5 -69.5t-67.5 -26.5t-67.5 26.5t-26.5 69.5z" />
<glyph unicode="&#xf7;" d="M66 487v156h614v-156h-614zM291 180v168h164v-168h-164zM291 784v168h164v-168h-164z" />
<glyph unicode="&#xf8;" horiz-adv-x="692" d="M90 225v635q0 117 73.5 181.5t182.5 64.5q64 0 119 -25l27 90l81 -26l-32 -117q61 -64 61 -168v-635q0 -117 -74 -181t-182 -64q-49 0 -102 16l-23 -82l-82 27l29 98q-78 68 -78 186zM258 354l160 559q-26 37 -72 37q-37 0 -62.5 -25.5t-25.5 -64.5v-506zM289 154 q25 -19 57 -19q37 0 62.5 25.5t25.5 64.5v432z" />
<glyph unicode="&#xf9;" horiz-adv-x="692" d="M90 225v860h168v-860q0 -39 25.5 -64.5t62.5 -25.5t62.5 25.5t25.5 64.5v860h168v-860q0 -117 -74 -181t-182 -64q-109 0 -182.5 64t-73.5 181zM168 1454h178l111 -221h-138z" />
<glyph unicode="&#xfa;" horiz-adv-x="692" d="M90 225v860h168v-860q0 -39 25.5 -64.5t62.5 -25.5t62.5 25.5t25.5 64.5v860h168v-860q0 -117 -74 -181t-182 -64q-109 0 -182.5 64t-73.5 181zM246 1233l110 221h179l-152 -221h-137z" />
<glyph unicode="&#xfb;" horiz-adv-x="692" d="M90 225v860h168v-860q0 -39 25.5 -64.5t62.5 -25.5t62.5 25.5t25.5 64.5v860h168v-860q0 -117 -74 -181t-182 -64q-109 0 -182.5 64t-73.5 181zM150 1233l135 221h131l135 -221h-129l-72 104l-71 -104h-129z" />
<glyph unicode="&#xfc;" horiz-adv-x="692" d="M90 225v860h168v-860q0 -39 25.5 -64.5t62.5 -25.5t62.5 25.5t25.5 64.5v860h168v-860q0 -117 -74 -181t-182 -64q-109 0 -182.5 64t-73.5 181zM131 1356q0 43 26.5 69.5t67.5 26.5t67.5 -26.5t26.5 -69.5t-26.5 -69.5t-67.5 -26.5t-67.5 26.5t-26.5 69.5zM381 1356 q0 43 26.5 69.5t67.5 26.5t67.5 -26.5t26.5 -69.5t-26.5 -69.5t-67.5 -26.5t-67.5 26.5t-26.5 69.5z" />
<glyph unicode="&#xfd;" horiz-adv-x="692" d="M90 -168q0 66 32 112t77 72q-109 64 -109 209v860h168v-860q0 -39 25.5 -64.5t62.5 -25.5t62.5 25.5t25.5 64.5v860h168v-1253q0 -111 -74 -176.5t-184 -65.5q-118 0 -186 64.5t-68 177.5zM246 1233l110 221h179l-152 -221h-137zM258 -168q0 -39 25 -62.5t61 -23.5 q37 0 63.5 24t26.5 62v188q-83 -27 -129.5 -70t-46.5 -118z" />
<glyph unicode="&#xfe;" horiz-adv-x="675" d="M90 -397v1913h168v-441q40 31 80 31q107 0 177.5 -64t70.5 -182v-635q0 -118 -70.5 -181.5t-177.5 -63.5q-42 0 -80 30v-407h-168zM258 225q0 -40 22 -65t58 -25t58 25t22 65v635q0 40 -22 65t-58 25t-58 -25t-22 -65v-635z" />
<glyph unicode="&#xff;" horiz-adv-x="692" d="M90 -168q0 66 32 112t77 72q-109 64 -109 209v860h168v-860q0 -39 25.5 -64.5t62.5 -25.5t62.5 25.5t25.5 64.5v860h168v-1253q0 -111 -74 -176.5t-184 -65.5q-118 0 -186 64.5t-68 177.5zM131 1356q0 43 26.5 69.5t67.5 26.5t67.5 -26.5t26.5 -69.5t-26.5 -69.5 t-67.5 -26.5t-67.5 26.5t-26.5 69.5zM258 -168q0 -39 25 -62.5t61 -23.5q37 0 63.5 24t26.5 62v188q-83 -27 -129.5 -70t-46.5 -118zM381 1356q0 43 26.5 69.5t67.5 26.5t67.5 -26.5t26.5 -69.5t-26.5 -69.5t-67.5 -26.5t-67.5 26.5t-26.5 69.5z" />
<glyph unicode="&#x152;" horiz-adv-x="972" d="M98 272v893q0 124 73 196.5t204 72.5h545v-160h-273v-477h244v-160h-244v-477h273v-160h-545q-129 0 -203 73t-74 199zM270 272q0 -53 28.5 -82.5t76.5 -29.5h100v1114h-100q-48 0 -76.5 -28.5t-28.5 -80.5v-893z" />
<glyph unicode="&#x153;" horiz-adv-x="1026" d="M90 225v635q0 117 73.5 181.5t182.5 64.5q50 0 99 -25.5t73 -56.5q26 31 75 56.5t99 25.5q109 0 182.5 -64.5t73.5 -181.5v-151q0 -70 -22 -101.5t-84 -62.5l-238 -115v-205q0 -39 25.5 -64.5t62.5 -25.5t62.5 25.5t25.5 64.5v129h168v-129q0 -117 -73.5 -181t-182.5 -64 q-49 0 -98.5 25t-75.5 56q-24 -30 -74 -55.5t-98 -25.5q-109 0 -182.5 64t-73.5 181zM258 225q0 -39 25.5 -64.5t62.5 -25.5t62.5 25.5t25.5 64.5v635q0 39 -25.5 64.5t-62.5 25.5t-62.5 -25.5t-25.5 -64.5v-635zM604 606l160 76q16 6 16 27v151q0 39 -25.5 64.5t-62.5 25.5 t-62.5 -25.5t-25.5 -64.5v-254z" />
<glyph unicode="&#x178;" horiz-adv-x="712" d="M82 1010v424h172v-424q0 -131 102 -287q51 80 77 145.5t26 141.5v424h172v-424q0 -75 -29.5 -156.5t-65 -138t-65 -108t-29.5 -72.5v-535h-172v535q0 21 -29.5 72t-64.5 106.5t-64.5 137.5t-29.5 159zM137 1642q0 43 26.5 70t67.5 27t68 -27t27 -70q0 -42 -27 -69 t-68 -27t-67.5 26.5t-26.5 69.5zM387 1642q0 43 26.5 70t67.5 27t67.5 -27t26.5 -70t-26.5 -69.5t-67.5 -26.5t-67.5 26.5t-26.5 69.5z" />
<glyph unicode="&#x2c6;" horiz-adv-x="524" d="M61 1233l136 221h131l135 -221h-129l-72 104l-72 -104h-129z" />
<glyph unicode="&#x2dc;" horiz-adv-x="565" d="M61 1243q0 84 39 135.5t103 51.5q32 0 81 -35t78 -35q24 0 37 17.5t13 43.5h92q0 -87 -39.5 -136.5t-102.5 -49.5q-34 0 -82 32.5t-77 32.5q-21 0 -35 -16.5t-14 -40.5h-93z" />
<glyph unicode="&#x2000;" horiz-adv-x="893" />
<glyph unicode="&#x2001;" horiz-adv-x="1786" />
<glyph unicode="&#x2002;" horiz-adv-x="893" />
<glyph unicode="&#x2003;" horiz-adv-x="1786" />
<glyph unicode="&#x2004;" horiz-adv-x="595" />
<glyph unicode="&#x2005;" horiz-adv-x="446" />
<glyph unicode="&#x2006;" horiz-adv-x="297" />
<glyph unicode="&#x2007;" horiz-adv-x="297" />
<glyph unicode="&#x2008;" horiz-adv-x="223" />
<glyph unicode="&#x2009;" horiz-adv-x="357" />
<glyph unicode="&#x200a;" horiz-adv-x="99" />
<glyph unicode="&#x2010;" horiz-adv-x="454" d="M53 494v159h348v-159h-348z" />
<glyph unicode="&#x2011;" horiz-adv-x="454" d="M53 494v159h348v-159h-348z" />
<glyph unicode="&#x2012;" horiz-adv-x="454" d="M53 494v159h348v-159h-348z" />
<glyph unicode="&#x2013;" horiz-adv-x="1024" d="M33 485v156h958v-156h-958z" />
<glyph unicode="&#x2014;" horiz-adv-x="2048" d="M33 485v156h1982v-156h-1982z" />
<glyph unicode="&#x2018;" horiz-adv-x="288" d="M49 1272q0 132 113 270l114 -31q-63 -109 -63 -237q0 -38 8 -98l-155 -27q-17 46 -17 123z" />
<glyph unicode="&#x2019;" horiz-adv-x="288" d="M12 1180q64 110 64 237q0 39 -8 99l155 26q17 -46 17 -123q0 -132 -113 -270z" />
<glyph unicode="&#x201a;" horiz-adv-x="288" d="M12 -215q64 110 64 238q0 38 -8 98l155 26q17 -46 17 -122q0 -133 -113 -271z" />
<glyph unicode="&#x201c;" horiz-adv-x="538" d="M49 1276q0 132 113 270l114 -30q-63 -109 -63 -238q0 -38 8 -98l-155 -27q-17 46 -17 123zM299 1276q0 132 113 270l114 -30q-63 -109 -63 -238q0 -38 8 -98l-156 -27q-16 43 -16 123z" />
<glyph unicode="&#x201d;" horiz-adv-x="538" d="M12 1184q64 110 64 237q0 39 -8 99l155 26q17 -46 17 -123q0 -132 -113 -270zM262 1184q64 110 64 237q0 31 -9 99l156 26q16 -43 16 -123q0 -133 -112 -270z" />
<glyph unicode="&#x201e;" horiz-adv-x="538" d="M12 -215q64 110 64 238q0 38 -8 98l155 26q17 -46 17 -122q0 -133 -113 -271zM262 -215q64 110 64 238q0 31 -9 98l156 26q16 -43 16 -122q0 -134 -112 -271z" />
<glyph unicode="&#x2022;" horiz-adv-x="528" d="M74 561q0 82 54.5 137.5t135.5 55.5q82 0 136.5 -55.5t54.5 -137.5q0 -79 -55 -135.5t-136 -56.5t-135.5 56.5t-54.5 135.5z" />
<glyph unicode="&#x2026;" horiz-adv-x="835" d="M53 82q0 42 28.5 70t70.5 28t70 -28t28 -70t-28 -70t-70 -28t-70.5 28t-28.5 70zM319 82q0 42 28.5 70t70.5 28t70 -28t28 -70t-28 -70t-70 -28t-70.5 28t-28.5 70zM586 82q0 42 28 70t70 28t70 -28t28 -70t-28 -70t-70 -28t-70 28t-28 70z" />
<glyph unicode="&#x202f;" horiz-adv-x="357" />
<glyph unicode="&#x2039;" horiz-adv-x="534" d="M53 553l240 379h188l-241 -379l241 -381h-188z" />
<glyph unicode="&#x203a;" horiz-adv-x="534" d="M53 172l242 381l-242 379h189l239 -379l-239 -381h-189z" />
<glyph unicode="&#x205f;" horiz-adv-x="446" />
<glyph unicode="&#x20ac;" d="M51 766v147h94v271q0 125 77 197.5t198 72.5t197.5 -72.5t76.5 -197.5v-140h-172v140q0 51 -28 80.5t-74 29.5t-74.5 -30t-28.5 -80v-271h226v-147h-226v-117h228v-147h-228v-252q0 -51 28.5 -81t74.5 -30t74 30t28 81v145h172v-145q0 -125 -76.5 -197.5t-197.5 -72.5 t-198 72.5t-77 197.5v252h-92v147h92v117h-94z" />
<glyph unicode="&#x2122;" horiz-adv-x="720" d="M16 1348v86h246v-86h-78v-336h-90v336h-78zM299 1012v315q0 58 31 86.5t84 28.5q44 0 67 -29q26 29 72 29q51 0 83 -29t32 -86v-315h-90v315q0 13 -7.5 21t-17.5 8t-17.5 -8t-7.5 -21v-315h-90v315q0 13 -8 21t-16 8q-10 0 -17.5 -8t-7.5 -21v-315h-90z" />
<glyph unicode="&#x25fc;" horiz-adv-x="1085" d="M0 0v1085h1085v-1085h-1085z" />
</font>
</defs>
</svg>
